  0
SECTION
  2
HEADER
  9
$ANGBASE
  50
0.0
  9
$ANGDIR
  70
1
  9
$MEASUREMENT
  70
1
  0
ENDSEC
  0
SECTION
  2
TABLES
  0
TABLE
  2
LTYPE
  70
4
  0
LTYPE
  5
40F
  2
CONTINUOUS
  70
0
  3
Solid line
  72
65
  73
0
  40
0.0
  0
LTYPE
  5
410
  2
DASHDOT
 70
0
  3
Dash Dot ____ _ ____ _
 72
65
 73
4
 40
2.0
 49
1.25
 49
-0.25
 49
0.25
 49
-0.25
  0
LTYPE
  5
411
  2
DASHED
 70
0
  3
Dashed __ __ __ __ __
 72
65
 73
2
 40
0.75
 49
0.5
 49
-0.25
  0
LTYPE
  5
43B
  2
DOTTED
 70
0
  3
Dotted .  .  .  .
 72
65
 73
2
 40
0.2
 49
0.0
 49
-0.2
  0
ENDTAB
  0
TABLE
  2
STYLE
  70
4
  0
STYLE
  2
KICAD
  70
0
  40
0
  41
1
  42
1
  50
0
  71
0
  3
isocp.shx
  0
STYLE
  2
KICADB
  70
0
  40
0
  41
1
  42
1
  50
0
  71
0
  3
isocp.shx
  0
STYLE
  2
KICADI
  70
0
  40
0
  41
1
  42
1
  50
15
  71
0
  3
isocp.shx
  0
STYLE
  2
KICADBI
  70
0
  40
0
  41
1
  42
1
  50
15
  71
0
  3
isocp.shx
  0
ENDTAB
  0
TABLE
  2
LAYER
  70
1
  0
LAYER
  2
BLACK
  70
0
  62
7
  6
CONTINUOUS
  0
ENDTAB
  0
ENDSEC
  0
SECTION
  2
ENTITIES
0
LINE
8
BLACK
6
CONTINUOUS
10
71.0715819999999923
20
-25.159164999999998
11
71.3616859999999917
21
-25.2280599999999993
0
LINE
8
BLACK
6
CONTINUOUS
10
71.3616859999999917
20
-25.2280599999999993
11
71.6411739999999924
21
-25.3319489999999981
0
LINE
8
BLACK
6
CONTINUOUS
10
71.6411739999999924
20
-25.3319489999999981
11
71.9058429999999902
21
-25.4692690000000006
0
LINE
8
BLACK
6
CONTINUOUS
10
71.9058429999999902
20
-25.4692690000000006
11
72.1517130000000009
21
-25.6379549999999981
0
LINE
8
BLACK
6
CONTINUOUS
10
72.1517130000000009
20
-25.6379549999999981
11
72.3750599999999906
21
-25.8354479999999995
0
LINE
8
BLACK
6
CONTINUOUS
10
72.3750599999999906
20
-25.8354479999999995
11
72.3750869999999935
21
-25.8354660000000003
0
LINE
8
BLACK
6
CONTINUOUS
10
72.3750869999999935
20
-25.8354660000000003
11
73.2008849999999995
21
-26.6612639999999992
0
LINE
8
BLACK
6
CONTINUOUS
10
73.2008849999999995
20
-26.6612639999999992
11
73.2008919999999961
21
-26.6612580000000001
0
LINE
8
BLACK
6
CONTINUOUS
10
73.2008919999999961
20
-26.6612580000000001
11
73.295628999999991
21
-26.752008
0
LINE
8
BLACK
6
CONTINUOUS
10
73.295628999999991
20
-26.752008
11
73.5066819999999979
21
-26.9078929999999978
0
LINE
8
BLACK
6
CONTINUOUS
10
73.5066819999999979
20
-26.9078929999999978
11
73.7358079999999916
21
-27.0357379999999985
0
LINE
8
BLACK
6
CONTINUOUS
10
73.7358079999999916
20
-27.0357379999999985
11
73.9793049999999965
21
-27.1334759999999982
0
LINE
8
BLACK
6
CONTINUOUS
10
73.9793049999999965
20
-27.1334759999999982
11
74.2332349999999934
21
-27.1995259999999988
0
LINE
8
BLACK
6
CONTINUOUS
10
74.2332349999999934
20
-27.1995259999999988
11
74.4934939999999983
21
-27.2328219999999988
0
LINE
8
BLACK
6
CONTINUOUS
10
74.4934939999999983
20
-27.2328219999999988
11
74.624684000000002
21
-27.2327569999999994
0
LINE
8
BLACK
6
CONTINUOUS
10
74.624684000000002
20
-27.2327569999999994
11
74.6246869999999944
21
-27.2327580000000005
0
LINE
8
BLACK
6
CONTINUOUS
10
74.6246869999999944
20
-27.2327580000000005
11
74.624693999999991
21
-27.2327569999999994
0
LINE
8
BLACK
6
CONTINUOUS
10
74.624693999999991
20
-27.2327569999999994
11
91.6626890000000003
21
-27.2327569999999994
0
LINE
8
BLACK
6
CONTINUOUS
10
91.6626890000000003
20
-27.2327569999999994
11
91.9571199999999891
21
-27.2492899999999985
0
LINE
8
BLACK
6
CONTINUOUS
10
91.9571199999999891
20
-27.2492899999999985
11
92.2478490000000022
21
-27.298684999999999
0
LINE
8
BLACK
6
CONTINUOUS
10
92.2478490000000022
20
-27.298684999999999
11
92.5312199999999905
21
-27.3803190000000001
0
LINE
8
BLACK
6
CONTINUOUS
10
92.5312199999999905
20
-27.3803190000000001
11
92.8036689999999993
21
-27.4931669999999997
0
LINE
8
BLACK
6
CONTINUOUS
10
92.8036689999999993
20
-27.4931669999999997
11
93.0617709999999931
21
-27.6358099999999993
0
LINE
8
BLACK
6
CONTINUOUS
10
93.0617709999999931
20
-27.6358099999999993
11
93.3022789999999986
21
-27.8064529999999976
0
LINE
8
BLACK
6
CONTINUOUS
10
93.3022789999999986
20
-27.8064529999999976
11
93.522168999999991
21
-28.0029509999999995
0
LINE
8
BLACK
6
CONTINUOUS
10
93.522168999999991
20
-28.0029509999999995
11
93.5221449999999948
21
-28.0029760000000003
0
LINE
8
BLACK
6
CONTINUOUS
10
93.5221449999999948
20
-28.0029760000000003
11
93.5221459999999922
21
-28.0029779999999988
0
LINE
8
BLACK
6
CONTINUOUS
10
93.5221459999999922
20
-28.0029779999999988
11
95.854738999999995
21
-30.335569999999997
0
LINE
8
BLACK
6
CONTINUOUS
10
95.854738999999995
20
-30.335569999999997
11
95.8547489999999982
21
-30.3355849999999982
0
LINE
8
BLACK
6
CONTINUOUS
10
95.8547489999999982
20
-30.3355849999999982
11
95.9551900000000018
21
-30.4360259999999982
0
LINE
8
BLACK
6
CONTINUOUS
10
95.9551900000000018
20
-30.4360259999999982
11
96.1773290000000003
21
-30.6131759999999993
0
LINE
8
BLACK
6
CONTINUOUS
10
96.1773290000000003
20
-30.6131759999999993
11
96.4179060000000021
21
-30.7643399999999971
0
LINE
8
BLACK
6
CONTINUOUS
10
96.4179060000000021
20
-30.7643399999999971
11
96.6738959999999992
21
-30.8876189999999973
0
LINE
8
BLACK
6
CONTINUOUS
10
96.6738959999999992
20
-30.8876189999999973
11
96.9420779999999951
21
-30.9814609999999995
0
LINE
8
BLACK
6
CONTINUOUS
10
96.9420779999999951
20
-30.9814609999999995
11
97.2190809999999885
21
-31.0446859999999987
0
LINE
8
BLACK
6
CONTINUOUS
10
97.2190809999999885
20
-31.0446859999999987
11
97.5014209999999935
21
-31.0764989999999983
0
LINE
8
BLACK
6
CONTINUOUS
10
97.5014209999999935
20
-31.0764989999999983
11
97.6434840000000008
21
-31.0764999999999993
0
LINE
8
BLACK
6
CONTINUOUS
10
97.6434840000000008
20
-31.0764999999999993
11
97.6728739999999931
21
-31.0860489999999992
0
LINE
8
BLACK
6
CONTINUOUS
10
97.6728739999999931
20
-31.0860489999999992
11
97.6840989999999891
21
-31.1014999999999979
0
LINE
8
BLACK
6
CONTINUOUS
10
97.6840989999999891
20
-31.1014999999999979
11
140.4653679999999838
21
-31.101502
0
LINE
8
BLACK
6
CONTINUOUS
10
140.4653679999999838
20
-31.101502
11
140.4765950000000032
21
-31.0860519999999987
0
LINE
8
BLACK
6
CONTINUOUS
10
140.4765950000000032
20
-31.0860519999999987
11
140.5059839999999838
21
-31.0765029999999989
0
LINE
8
BLACK
6
CONTINUOUS
10
140.5059839999999838
20
-31.0765029999999989
11
140.5059839999999838
21
-31.0764759999999995
0
LINE
8
BLACK
6
CONTINUOUS
10
140.5059839999999838
20
-31.0764759999999995
11
140.6480469999999912
21
-31.076476999999997
0
LINE
8
BLACK
6
CONTINUOUS
10
140.6480469999999912
20
-31.076476999999997
11
140.9303859999999986
21
-31.0446669999999969
0
LINE
8
BLACK
6
CONTINUOUS
10
140.9303859999999986
20
-31.0446669999999969
11
141.2073879999999804
21
-30.9814449999999972
0
LINE
8
BLACK
6
CONTINUOUS
10
141.2073879999999804
20
-30.9814449999999972
11
141.4755690000000072
21
-30.8876069999999991
0
LINE
8
BLACK
6
CONTINUOUS
10
141.4755690000000072
20
-30.8876069999999991
11
141.7315580000000068
21
-30.7643319999999996
0
LINE
8
BLACK
6
CONTINUOUS
10
141.7315580000000068
20
-30.7643319999999996
11
141.9721360000000061
21
-30.6131709999999977
0
LINE
8
BLACK
6
CONTINUOUS
10
141.9721360000000061
20
-30.6131709999999977
11
142.1942750000000046
21
-30.4360239999999997
0
LINE
8
BLACK
6
CONTINUOUS
10
142.1942750000000046
20
-30.4360239999999997
11
142.2947299999999871
21
-30.3355719999999991
0
LINE
8
BLACK
6
CONTINUOUS
10
142.2947299999999871
20
-30.3355719999999991
11
142.294731999999982
21
-30.335569999999997
0
LINE
8
BLACK
6
CONTINUOUS
10
142.294731999999982
20
-30.335569999999997
11
144.6273229999999899
21
-28.0029789999999998
0
LINE
8
BLACK
6
CONTINUOUS
10
144.6273229999999899
20
-28.0029789999999998
11
144.6273269999999798
21
-28.0029760000000003
0
LINE
8
BLACK
6
CONTINUOUS
10
144.6273269999999798
20
-28.0029760000000003
11
144.8472099999999898
21
-27.806480999999998
0
LINE
8
BLACK
6
CONTINUOUS
10
144.8472099999999898
20
-27.806480999999998
11
145.0877140000000054
21
-27.6358369999999987
0
LINE
8
BLACK
6
CONTINUOUS
10
145.0877140000000054
20
-27.6358369999999987
11
145.3458109999999976
21
-27.493192999999998
0
LINE
8
BLACK
6
CONTINUOUS
10
145.3458109999999976
20
-27.493192999999998
11
145.6182569999999998
21
-27.3803429999999999
0
LINE
8
BLACK
6
CONTINUOUS
10
145.6182569999999998
20
-27.3803429999999999
11
145.9016239999999982
21
-27.2987059999999992
0
LINE
8
BLACK
6
CONTINUOUS
10
145.9016239999999982
20
-27.2987059999999992
11
146.1923500000000047
21
-27.2493090000000002
0
LINE
8
BLACK
6
CONTINUOUS
10
146.1923500000000047
20
-27.2493090000000002
11
146.486694
21
-27.2327759999999977
0
LINE
8
BLACK
6
CONTINUOUS
10
146.486694
20
-27.2327759999999977
11
146.4867789999999843
21
-27.232759999999999
0
LINE
8
BLACK
6
CONTINUOUS
10
146.4867789999999843
20
-27.232759999999999
11
163.5247739999999794
21
-27.232759999999999
0
LINE
8
BLACK
6
CONTINUOUS
10
163.5247739999999794
20
-27.232759999999999
11
163.5247799999999927
21
-27.232761
0
LINE
8
BLACK
6
CONTINUOUS
10
163.5247799999999927
20
-27.232761
11
163.5247839999999826
21
-27.232759999999999
0
LINE
8
BLACK
6
CONTINUOUS
10
163.5247839999999826
20
-27.232759999999999
11
163.5247839999999826
21
-27.2327559999999984
0
LINE
8
BLACK
6
CONTINUOUS
10
163.5247839999999826
20
-27.2327559999999984
11
163.6559749999999838
21
-27.2328229999999998
0
LINE
8
BLACK
6
CONTINUOUS
10
163.6559749999999838
20
-27.2328229999999998
11
163.9162350000000004
21
-27.1995310000000003
0
LINE
8
BLACK
6
CONTINUOUS
10
163.9162350000000004
20
-27.1995310000000003
11
164.1701679999999897
21
-27.1334839999999993
0
LINE
8
BLACK
6
CONTINUOUS
10
164.1701679999999897
20
-27.1334839999999993
11
164.4136670000000038
21
-27.0357489999999991
0
LINE
8
BLACK
6
CONTINUOUS
10
164.4136670000000038
20
-27.0357489999999991
11
164.6427960000000041
21
-26.907906999999998
0
LINE
8
BLACK
6
CONTINUOUS
10
164.6427960000000041
20
-26.907906999999998
11
164.8538509999999917
21
-26.7520239999999987
0
LINE
8
BLACK
6
CONTINUOUS
10
164.8538509999999917
20
-26.7520239999999987
11
164.9482569999999839
21
-26.6615919999999988
0
LINE
8
BLACK
6
CONTINUOUS
10
164.9482569999999839
20
-26.6615919999999988
11
165.7743810000000053
21
-25.8354689999999998
0
LINE
8
BLACK
6
CONTINUOUS
10
165.7743810000000053
20
-25.8354689999999998
11
165.9977489999999989
21
-25.6379599999999996
0
LINE
8
BLACK
6
CONTINUOUS
10
165.9977489999999989
20
-25.6379599999999996
11
166.2436129999999821
21
-25.4692790000000002
0
LINE
8
BLACK
6
CONTINUOUS
10
166.2436129999999821
20
-25.4692790000000002
11
166.5082769999999925
21
-25.3319619999999972
0
LINE
8
BLACK
6
CONTINUOUS
10
166.5082769999999925
20
-25.3319619999999972
11
166.7877599999999916
21
-25.2280759999999979
0
LINE
8
BLACK
6
CONTINUOUS
10
166.7877599999999916
20
-25.2280759999999979
11
167.077857999999992
21
-25.1591829999999987
0
LINE
8
BLACK
6
CONTINUOUS
10
167.077857999999992
20
-25.1591829999999987
11
167.3742069999999842
21
-25.1263179999999977
0
LINE
8
BLACK
6
CONTINUOUS
10
167.3742069999999842
20
-25.1263179999999977
11
167.6723499999999945
21
-25.1299770000000002
0
LINE
8
BLACK
6
CONTINUOUS
10
167.6723499999999945
20
-25.1299770000000002
11
167.9678030000000035
21
-25.1701049999999995
0
LINE
8
BLACK
6
CONTINUOUS
10
167.9678030000000035
20
-25.1701049999999995
11
168.2561230000000023
21
-25.2460959999999979
0
LINE
8
BLACK
6
CONTINUOUS
10
168.2561230000000023
20
-25.2460959999999979
11
168.5329720000000009
21
-25.3568099999999994
0
LINE
8
BLACK
6
CONTINUOUS
10
168.5329720000000009
20
-25.3568099999999994
11
168.7941859999999963
21
-25.5005799999999994
0
LINE
8
BLACK
6
CONTINUOUS
10
168.7941859999999963
20
-25.5005799999999994
11
169.0358369999999866
21
-25.6752439999999993
0
LINE
8
BLACK
6
CONTINUOUS
10
169.0358369999999866
20
-25.6752439999999993
11
169.2542909999999949
21
-25.8781759999999998
0
LINE
8
BLACK
6
CONTINUOUS
10
169.2542909999999949
20
-25.8781759999999998
11
169.4462599999999952
21
-26.1063219999999987
0
LINE
8
BLACK
6
CONTINUOUS
10
169.4462599999999952
20
-26.1063219999999987
11
169.6088579999999979
21
-26.3562510000000003
0
LINE
8
BLACK
6
CONTINUOUS
10
169.6088579999999979
20
-26.3562510000000003
11
169.7396399999999801
21
-26.6242039999999989
0
LINE
8
BLACK
6
CONTINUOUS
10
169.7396399999999801
20
-26.6242039999999989
11
169.8366379999999936
21
-26.9061509999999977
0
LINE
8
BLACK
6
CONTINUOUS
10
169.8366379999999936
20
-26.9061509999999977
11
169.8983939999999961
21
-27.1978519999999975
0
LINE
8
BLACK
6
CONTINUOUS
10
169.8983939999999961
20
-27.1978519999999975
11
169.9239769999999794
21
-27.4949179999999984
0
LINE
8
BLACK
6
CONTINUOUS
10
169.9239769999999794
20
-27.4949179999999984
11
169.9130049999999983
21
-27.7928819999999988
0
LINE
8
BLACK
6
CONTINUOUS
10
169.9130049999999983
20
-27.7928819999999988
11
169.8656409999999823
21
-28.0872619999999991
0
LINE
8
BLACK
6
CONTINUOUS
10
169.8656409999999823
20
-28.0872619999999991
11
169.7825979999999788
21
-28.3736299999999986
0
LINE
8
BLACK
6
CONTINUOUS
10
169.7825979999999788
20
-28.3736299999999986
11
169.6651259999999866
21
-28.6476790000000001
0
LINE
8
BLACK
6
CONTINUOUS
10
169.6651259999999866
20
-28.6476790000000001
11
169.5149899999999832
21
-28.9052879999999988
0
LINE
8
BLACK
6
CONTINUOUS
10
169.5149899999999832
20
-28.9052879999999988
11
169.3344500000000039
21
-29.1425809999999998
0
LINE
8
BLACK
6
CONTINUOUS
10
169.3344500000000039
20
-29.1425809999999998
11
169.1262209999999868
21
-29.3559899999999985
0
LINE
8
BLACK
6
CONTINUOUS
10
169.1262209999999868
20
-29.3559899999999985
11
168.8934329999999875
21
-29.5423039999999979
0
LINE
8
BLACK
6
CONTINUOUS
10
168.8934329999999875
20
-29.5423039999999979
11
168.6395899999999983
21
-29.6987220000000001
0
LINE
8
BLACK
6
CONTINUOUS
10
168.6395899999999983
20
-29.6987220000000001
11
168.3685089999999889
21
-29.8228899999999975
0
LINE
8
BLACK
6
CONTINUOUS
10
168.3685089999999889
20
-29.8228899999999975
11
168.0842669999999828
21
-29.9129419999999975
0
LINE
8
BLACK
6
CONTINUOUS
10
168.0842669999999828
20
-29.9129419999999975
11
167.7911389999999869
21
-29.9675219999999989
0
LINE
8
BLACK
6
CONTINUOUS
10
167.7911389999999869
20
-29.9675219999999989
11
167.4939839999999833
21
-29.9857820000000004
0
LINE
8
BLACK
6
CONTINUOUS
10
167.4939839999999833
20
-29.9857820000000004
11
167.4935349999999801
21
-29.9858709999999995
0
LINE
8
BLACK
6
CONTINUOUS
10
167.4935349999999801
20
-29.9858709999999995
11
167.4935349999999801
21
-29.985871999999997
0
LINE
8
BLACK
6
CONTINUOUS
10
167.4935349999999801
20
-29.985871999999997
11
167.4935339999999826
21
-29.9858709999999995
0
LINE
8
BLACK
6
CONTINUOUS
10
167.4935339999999826
20
-29.9858709999999995
11
167.4935339999999826
21
-29.985871999999997
0
LINE
8
BLACK
6
CONTINUOUS
10
167.4935339999999826
20
-29.985871999999997
11
147.6497339999999951
21
-29.9858779999999996
0
LINE
8
BLACK
6
CONTINUOUS
10
147.6497339999999951
20
-29.9858779999999996
11
147.6497320000000002
21
-29.9858769999999986
0
LINE
8
BLACK
6
CONTINUOUS
10
147.6497320000000002
20
-29.9858769999999986
11
147.6497310000000027
21
-29.9858779999999996
0
LINE
8
BLACK
6
CONTINUOUS
10
147.6497310000000027
20
-29.9858779999999996
11
147.6497310000000027
21
-29.9858999999999973
0
LINE
8
BLACK
6
CONTINUOUS
10
147.6497310000000027
20
-29.9858999999999973
11
147.5835170000000005
21
-29.9858969999999978
0
LINE
8
BLACK
6
CONTINUOUS
10
147.5835170000000005
20
-29.9858969999999978
11
147.4549360000000036
21
-30.0175819999999973
0
LINE
8
BLACK
6
CONTINUOUS
10
147.4549360000000036
20
-30.0175819999999973
11
147.3376749999999902
21
-30.0791199999999996
0
LINE
8
BLACK
6
CONTINUOUS
10
147.3376749999999902
20
-30.0791199999999996
11
147.2385490000000061
21
-30.1669330000000002
0
LINE
8
BLACK
6
CONTINUOUS
10
147.2385490000000061
20
-30.1669330000000002
11
147.1633190000000013
21
-30.2759169999999997
0
LINE
8
BLACK
6
CONTINUOUS
10
147.1633190000000013
20
-30.2759169999999997
11
147.1163579999999911
21
-30.3997379999999993
0
LINE
8
BLACK
6
CONTINUOUS
10
147.1163579999999911
20
-30.3997379999999993
11
147.1003949999999918
21
-30.5311999999999983
0
LINE
8
BLACK
6
CONTINUOUS
10
147.1003949999999918
20
-30.5311999999999983
11
147.1163579999999911
21
-30.6626619999999974
0
LINE
8
BLACK
6
CONTINUOUS
10
147.1163579999999911
20
-30.6626619999999974
11
147.1633190000000013
21
-30.7864829999999969
0
LINE
8
BLACK
6
CONTINUOUS
10
147.1633190000000013
20
-30.7864829999999969
11
147.2385490000000061
21
-30.895467
0
LINE
8
BLACK
6
CONTINUOUS
10
147.2385490000000061
20
-30.895467
11
147.3376749999999902
21
-30.983279999999997
0
LINE
8
BLACK
6
CONTINUOUS
10
147.3376749999999902
20
-30.983279999999997
11
147.4549360000000036
21
-31.0448179999999994
0
LINE
8
BLACK
6
CONTINUOUS
10
147.4549360000000036
20
-31.0448179999999994
11
147.5835170000000005
21
-31.0765029999999989
0
LINE
8
BLACK
6
CONTINUOUS
10
147.5835170000000005
20
-31.0765029999999989
11
147.6497310000000027
21
-31.0764999999999993
0
LINE
8
BLACK
6
CONTINUOUS
10
147.6497310000000027
20
-31.0764999999999993
11
147.6791209999999808
21
-31.0860469999999971
0
LINE
8
BLACK
6
CONTINUOUS
10
147.6791209999999808
20
-31.0860469999999971
11
147.6903489999999977
21
-31.1014999999999979
0
LINE
8
BLACK
6
CONTINUOUS
10
147.6903489999999977
20
-31.1014999999999979
11
178.5653679999999781
21
-31.101502
0
LINE
8
BLACK
6
CONTINUOUS
10
178.5653679999999781
20
-31.101502
11
178.5765949999999975
21
-31.0860519999999987
0
LINE
8
BLACK
6
CONTINUOUS
10
178.5765949999999975
20
-31.0860519999999987
11
178.6059839999999781
21
-31.0765029999999989
0
LINE
8
BLACK
6
CONTINUOUS
10
178.6059839999999781
20
-31.0765029999999989
11
178.6059839999999781
21
-31.0764759999999995
0
LINE
8
BLACK
6
CONTINUOUS
10
178.6059839999999781
20
-31.0764759999999995
11
178.7480469999999855
21
-31.076476999999997
0
LINE
8
BLACK
6
CONTINUOUS
10
178.7480469999999855
20
-31.076476999999997
11
179.0303859999999929
21
-31.0446669999999969
0
LINE
8
BLACK
6
CONTINUOUS
10
179.0303859999999929
20
-31.0446669999999969
11
179.3073880000000031
21
-30.9814449999999972
0
LINE
8
BLACK
6
CONTINUOUS
10
179.3073880000000031
20
-30.9814449999999972
11
179.5755690000000016
21
-30.8876069999999991
0
LINE
8
BLACK
6
CONTINUOUS
10
179.5755690000000016
20
-30.8876069999999991
11
179.8315580000000011
21
-30.7643319999999996
0
LINE
8
BLACK
6
CONTINUOUS
10
179.8315580000000011
20
-30.7643319999999996
11
180.0721360000000004
21
-30.6131709999999977
0
LINE
8
BLACK
6
CONTINUOUS
10
180.0721360000000004
20
-30.6131709999999977
11
180.294274999999999
21
-30.4360239999999997
0
LINE
8
BLACK
6
CONTINUOUS
10
180.294274999999999
20
-30.4360239999999997
11
180.3947299999999814
21
-30.3355719999999991
0
LINE
8
BLACK
6
CONTINUOUS
10
180.3947299999999814
20
-30.3355719999999991
11
180.3947320000000047
21
-30.335569999999997
0
LINE
8
BLACK
6
CONTINUOUS
10
180.3947320000000047
20
-30.335569999999997
11
182.7273229999999842
21
-28.0029789999999998
0
LINE
8
BLACK
6
CONTINUOUS
10
182.7273229999999842
20
-28.0029789999999998
11
182.7273270000000025
21
-28.0029760000000003
0
LINE
8
BLACK
6
CONTINUOUS
10
182.7273270000000025
20
-28.0029760000000003
11
182.9472099999999841
21
-27.806480999999998
0
LINE
8
BLACK
6
CONTINUOUS
10
182.9472099999999841
20
-27.806480999999998
11
183.1877139999999997
21
-27.6358369999999987
0
LINE
8
BLACK
6
CONTINUOUS
10
183.1877139999999997
20
-27.6358369999999987
11
183.445810999999992
21
-27.493192999999998
0
LINE
8
BLACK
6
CONTINUOUS
10
183.445810999999992
20
-27.493192999999998
11
183.7182569999999942
21
-27.3803429999999999
0
LINE
8
BLACK
6
CONTINUOUS
10
183.7182569999999942
20
-27.3803429999999999
11
184.0016239999999925
21
-27.2987059999999992
0
LINE
8
BLACK
6
CONTINUOUS
10
184.0016239999999925
20
-27.2987059999999992
11
184.292349999999999
21
-27.2493090000000002
0
LINE
8
BLACK
6
CONTINUOUS
10
184.292349999999999
20
-27.2493090000000002
11
184.5866939999999943
21
-27.2327759999999977
0
LINE
8
BLACK
6
CONTINUOUS
10
184.5866939999999943
20
-27.2327759999999977
11
184.5867789999999786
21
-27.232759999999999
0
LINE
8
BLACK
6
CONTINUOUS
10
184.5867789999999786
20
-27.232759999999999
11
201.6247740000000022
21
-27.232759999999999
0
LINE
8
BLACK
6
CONTINUOUS
10
201.6247740000000022
20
-27.232759999999999
11
201.624779999999987
21
-27.232761
0
LINE
8
BLACK
6
CONTINUOUS
10
201.624779999999987
20
-27.232761
11
201.6247839999999769
21
-27.232759999999999
0
LINE
8
BLACK
6
CONTINUOUS
10
201.6247839999999769
20
-27.232759999999999
11
201.6247839999999769
21
-27.2327559999999984
0
LINE
8
BLACK
6
CONTINUOUS
10
201.6247839999999769
20
-27.2327559999999984
11
201.7559749999999781
21
-27.2328229999999998
0
LINE
8
BLACK
6
CONTINUOUS
10
201.7559749999999781
20
-27.2328229999999998
11
202.0162349999999947
21
-27.1995310000000003
0
LINE
8
BLACK
6
CONTINUOUS
10
202.0162349999999947
20
-27.1995310000000003
11
202.270167999999984
21
-27.1334839999999993
0
LINE
8
BLACK
6
CONTINUOUS
10
202.270167999999984
20
-27.1334839999999993
11
202.5136669999999981
21
-27.0357489999999991
0
LINE
8
BLACK
6
CONTINUOUS
10
202.5136669999999981
20
-27.0357489999999991
11
202.7427959999999985
21
-26.907906999999998
0
LINE
8
BLACK
6
CONTINUOUS
10
202.7427959999999985
20
-26.907906999999998
11
202.953850999999986
21
-26.7520239999999987
0
LINE
8
BLACK
6
CONTINUOUS
10
202.953850999999986
20
-26.7520239999999987
11
203.0482569999999782
21
-26.6615919999999988
0
LINE
8
BLACK
6
CONTINUOUS
10
203.0482569999999782
20
-26.6615919999999988
11
203.8743809999999996
21
-25.8354689999999998
0
LINE
8
BLACK
6
CONTINUOUS
10
203.8743809999999996
20
-25.8354689999999998
11
204.0977489999999932
21
-25.6379599999999996
0
LINE
8
BLACK
6
CONTINUOUS
10
204.0977489999999932
20
-25.6379599999999996
11
204.3436130000000048
21
-25.4692790000000002
0
LINE
8
BLACK
6
CONTINUOUS
10
204.3436130000000048
20
-25.4692790000000002
11
204.6082769999999869
21
-25.3319619999999972
0
LINE
8
BLACK
6
CONTINUOUS
10
204.6082769999999869
20
-25.3319619999999972
11
204.8877599999999859
21
-25.2280759999999979
0
LINE
8
BLACK
6
CONTINUOUS
10
204.8877599999999859
20
-25.2280759999999979
11
205.1778579999999863
21
-25.1591829999999987
0
LINE
8
BLACK
6
CONTINUOUS
10
205.1778579999999863
20
-25.1591829999999987
11
205.4742069999999785
21
-25.1263179999999977
0
LINE
8
BLACK
6
CONTINUOUS
10
205.4742069999999785
20
-25.1263179999999977
11
205.7723499999999888
21
-25.1299770000000002
0
LINE
8
BLACK
6
CONTINUOUS
10
205.7723499999999888
20
-25.1299770000000002
11
206.0678029999999978
21
-25.1701049999999995
0
LINE
8
BLACK
6
CONTINUOUS
10
206.0678029999999978
20
-25.1701049999999995
11
206.3561229999999966
21
-25.2460959999999979
0
LINE
8
BLACK
6
CONTINUOUS
10
206.3561229999999966
20
-25.2460959999999979
11
206.6329719999999952
21
-25.3568099999999994
0
LINE
8
BLACK
6
CONTINUOUS
10
206.6329719999999952
20
-25.3568099999999994
11
206.8941859999999906
21
-25.5005799999999994
0
LINE
8
BLACK
6
CONTINUOUS
10
206.8941859999999906
20
-25.5005799999999994
11
207.1358369999999809
21
-25.6752439999999993
0
LINE
8
BLACK
6
CONTINUOUS
10
207.1358369999999809
20
-25.6752439999999993
11
207.3542909999999893
21
-25.8781759999999998
0
LINE
8
BLACK
6
CONTINUOUS
10
207.3542909999999893
20
-25.8781759999999998
11
207.5462599999999895
21
-26.1063219999999987
0
LINE
8
BLACK
6
CONTINUOUS
10
207.5462599999999895
20
-26.1063219999999987
11
207.7088579999999922
21
-26.3562510000000003
0
LINE
8
BLACK
6
CONTINUOUS
10
207.7088579999999922
20
-26.3562510000000003
11
207.8396400000000028
21
-26.6242039999999989
0
LINE
8
BLACK
6
CONTINUOUS
10
207.8396400000000028
20
-26.6242039999999989
11
207.9366379999999879
21
-26.9061509999999977
0
LINE
8
BLACK
6
CONTINUOUS
10
207.9366379999999879
20
-26.9061509999999977
11
207.9983939999999905
21
-27.1978519999999975
0
LINE
8
BLACK
6
CONTINUOUS
10
207.9983939999999905
20
-27.1978519999999975
11
208.0239770000000021
21
-27.4949179999999984
0
LINE
8
BLACK
6
CONTINUOUS
10
208.0239770000000021
20
-27.4949179999999984
11
208.0130049999999926
21
-27.7928819999999988
0
LINE
8
BLACK
6
CONTINUOUS
10
208.0130049999999926
20
-27.7928819999999988
11
207.9656409999999767
21
-28.0872619999999991
0
LINE
8
BLACK
6
CONTINUOUS
10
207.9656409999999767
20
-28.0872619999999991
11
207.8825980000000015
21
-28.3736299999999986
0
LINE
8
BLACK
6
CONTINUOUS
10
207.8825980000000015
20
-28.3736299999999986
11
207.7651259999999809
21
-28.6476790000000001
0
LINE
8
BLACK
6
CONTINUOUS
10
207.7651259999999809
20
-28.6476790000000001
11
207.6149899999999775
21
-28.9052879999999988
0
LINE
8
BLACK
6
CONTINUOUS
10
207.6149899999999775
20
-28.9052879999999988
11
207.4344499999999982
21
-29.1425809999999998
0
LINE
8
BLACK
6
CONTINUOUS
10
207.4344499999999982
20
-29.1425809999999998
11
207.2262209999999811
21
-29.3559899999999985
0
LINE
8
BLACK
6
CONTINUOUS
10
207.2262209999999811
20
-29.3559899999999985
11
206.9934329999999818
21
-29.5423039999999979
0
LINE
8
BLACK
6
CONTINUOUS
10
206.9934329999999818
20
-29.5423039999999979
11
206.7395899999999926
21
-29.6987220000000001
0
LINE
8
BLACK
6
CONTINUOUS
10
206.7395899999999926
20
-29.6987220000000001
11
206.4685089999999832
21
-29.8228899999999975
0
LINE
8
BLACK
6
CONTINUOUS
10
206.4685089999999832
20
-29.8228899999999975
11
206.1842669999999771
21
-29.9129419999999975
0
LINE
8
BLACK
6
CONTINUOUS
10
206.1842669999999771
20
-29.9129419999999975
11
205.8911389999999813
21
-29.9675219999999989
0
LINE
8
BLACK
6
CONTINUOUS
10
205.8911389999999813
20
-29.9675219999999989
11
205.5939839999999776
21
-29.9857820000000004
0
LINE
8
BLACK
6
CONTINUOUS
10
205.5939839999999776
20
-29.9857820000000004
11
205.5935350000000028
21
-29.9858709999999995
0
LINE
8
BLACK
6
CONTINUOUS
10
205.5935350000000028
20
-29.9858709999999995
11
205.5935350000000028
21
-29.985871999999997
0
LINE
8
BLACK
6
CONTINUOUS
10
205.5935350000000028
20
-29.985871999999997
11
205.5935339999999769
21
-29.9858709999999995
0
LINE
8
BLACK
6
CONTINUOUS
10
205.5935339999999769
20
-29.9858709999999995
11
205.5935339999999769
21
-29.985871999999997
0
LINE
8
BLACK
6
CONTINUOUS
10
205.5935339999999769
20
-29.985871999999997
11
185.7497339999999895
21
-29.9858779999999996
0
LINE
8
BLACK
6
CONTINUOUS
10
185.7497339999999895
20
-29.9858779999999996
11
185.7497319999999945
21
-29.9858769999999986
0
LINE
8
BLACK
6
CONTINUOUS
10
185.7497319999999945
20
-29.9858769999999986
11
185.749730999999997
21
-29.9858779999999996
0
LINE
8
BLACK
6
CONTINUOUS
10
185.749730999999997
20
-29.9858779999999996
11
185.749730999999997
21
-29.9858999999999973
0
LINE
8
BLACK
6
CONTINUOUS
10
185.749730999999997
20
-29.9858999999999973
11
185.6835169999999948
21
-29.9858969999999978
0
LINE
8
BLACK
6
CONTINUOUS
10
185.6835169999999948
20
-29.9858969999999978
11
185.5549359999999979
21
-30.0175819999999973
0
LINE
8
BLACK
6
CONTINUOUS
10
185.5549359999999979
20
-30.0175819999999973
11
185.4376749999999845
21
-30.0791199999999996
0
LINE
8
BLACK
6
CONTINUOUS
10
185.4376749999999845
20
-30.0791199999999996
11
185.3385490000000004
21
-30.1669330000000002
0
LINE
8
BLACK
6
CONTINUOUS
10
185.3385490000000004
20
-30.1669330000000002
11
185.2633189999999956
21
-30.2759169999999997
0
LINE
8
BLACK
6
CONTINUOUS
10
185.2633189999999956
20
-30.2759169999999997
11
185.2163579999999854
21
-30.3997379999999993
0
LINE
8
BLACK
6
CONTINUOUS
10
185.2163579999999854
20
-30.3997379999999993
11
185.2003949999999861
21
-30.5311999999999983
0
LINE
8
BLACK
6
CONTINUOUS
10
185.2003949999999861
20
-30.5311999999999983
11
185.2163579999999854
21
-30.6626619999999974
0
LINE
8
BLACK
6
CONTINUOUS
10
185.2163579999999854
20
-30.6626619999999974
11
185.2633189999999956
21
-30.7864829999999969
0
LINE
8
BLACK
6
CONTINUOUS
10
185.2633189999999956
20
-30.7864829999999969
11
185.3385490000000004
21
-30.895467
0
LINE
8
BLACK
6
CONTINUOUS
10
185.3385490000000004
20
-30.895467
11
185.4376749999999845
21
-30.983279999999997
0
LINE
8
BLACK
6
CONTINUOUS
10
185.4376749999999845
20
-30.983279999999997
11
185.5549359999999979
21
-31.0448179999999994
0
LINE
8
BLACK
6
CONTINUOUS
10
185.5549359999999979
20
-31.0448179999999994
11
185.6835169999999948
21
-31.0765029999999989
0
LINE
8
BLACK
6
CONTINUOUS
10
185.6835169999999948
20
-31.0765029999999989
11
185.749730999999997
21
-31.0764999999999993
0
LINE
8
BLACK
6
CONTINUOUS
10
185.749730999999997
20
-31.0764999999999993
11
185.7791210000000035
21
-31.0860469999999971
0
LINE
8
BLACK
6
CONTINUOUS
10
185.7791210000000035
20
-31.0860469999999971
11
185.7903499999999894
21
-31.1014999999999979
0
LINE
8
BLACK
6
CONTINUOUS
10
185.7903499999999894
20
-31.1014999999999979
11
211.3247810000000015
21
-31.1014999999999979
0
LINE
8
BLACK
6
CONTINUOUS
10
211.3247810000000015
20
-31.1014999999999979
11
211.6409779999999898
21
-31.1180689999999984
0
LINE
8
BLACK
6
CONTINUOUS
10
211.6409779999999898
20
-31.1180689999999984
11
211.9537100000000009
21
-31.1675989999999992
0
LINE
8
BLACK
6
CONTINUOUS
10
211.9537100000000009
20
-31.1675989999999992
11
212.2595529999999826
21
-31.2495459999999987
0
LINE
8
BLACK
6
CONTINUOUS
10
212.2595529999999826
20
-31.2495459999999987
11
212.5551539999999875
21
-31.3630139999999997
0
LINE
8
BLACK
6
CONTINUOUS
10
212.5551539999999875
20
-31.3630139999999997
11
212.8372749999999769
21
-31.5067589999999988
0
LINE
8
BLACK
6
CONTINUOUS
10
212.8372749999999769
20
-31.5067589999999988
11
213.1028259999999932
21
-31.6792059999999971
0
LINE
8
BLACK
6
CONTINUOUS
10
213.1028259999999932
20
-31.6792059999999971
11
213.3488959999999963
21
-31.8784649999999985
0
LINE
8
BLACK
6
CONTINUOUS
10
213.3488959999999963
20
-31.8784649999999985
11
213.5727899999999977
21
-32.1023539999999983
0
LINE
8
BLACK
6
CONTINUOUS
10
213.5727899999999977
20
-32.1023539999999983
11
213.7720549999999946
21
-32.3484199999999973
0
LINE
8
BLACK
6
CONTINUOUS
10
213.7720549999999946
20
-32.3484199999999973
11
213.9445079999999848
21
-32.6139669999999953
0
LINE
8
BLACK
6
CONTINUOUS
10
213.9445079999999848
20
-32.6139669999999953
11
214.0882589999999936
21
-32.8960849999999994
0
LINE
8
BLACK
6
CONTINUOUS
10
214.0882589999999936
20
-32.8960849999999994
11
214.2017329999999902
21
-33.1916839999999951
0
LINE
8
BLACK
6
CONTINUOUS
10
214.2017329999999902
20
-33.1916839999999951
11
214.2836869999999863
21
-33.4975239999999985
0
LINE
8
BLACK
6
CONTINUOUS
10
214.2836869999999863
20
-33.4975239999999985
11
214.3332240000000013
21
-33.8102559999999954
0
LINE
8
BLACK
6
CONTINUOUS
10
214.3332240000000013
20
-33.8102559999999954
11
214.3497999999999877
21
-34.1264529999999979
0
LINE
8
BLACK
6
CONTINUOUS
10
214.3497999999999877
20
-34.1264529999999979
11
214.3497809999999788
21
-34.1264529999999979
0
LINE
8
BLACK
6
CONTINUOUS
10
214.3497809999999788
20
-34.1264529999999979
11
214.3508870000000002
21
-104.3264530000000008
0
LINE
8
BLACK
6
CONTINUOUS
10
214.3508870000000002
20
-104.3264530000000008
11
214.3343199999999911
21
-104.6426539999999932
0
LINE
8
BLACK
6
CONTINUOUS
10
214.3343199999999911
20
-104.6426539999999932
11
214.2847919999999817
21
-104.9553919999999891
0
LINE
8
BLACK
6
CONTINUOUS
10
214.2847919999999817
20
-104.9553919999999891
11
214.2028449999999964
21
-105.2612389999999891
0
LINE
8
BLACK
6
CONTINUOUS
10
214.2028449999999964
20
-105.2612389999999891
11
214.0893759999999872
21
-105.5568449999999956
0
LINE
8
BLACK
6
CONTINUOUS
10
214.0893759999999872
20
-105.5568449999999956
11
213.9456289999999967
21
-105.8389699999999891
0
LINE
8
BLACK
6
CONTINUOUS
10
213.9456289999999967
20
-105.8389699999999891
11
213.7731799999999964
21
-106.1045239999999978
0
LINE
8
BLACK
6
CONTINUOUS
10
213.7731799999999964
20
-106.1045239999999978
11
213.573915999999997
21
-106.3505969999999934
0
LINE
8
BLACK
6
CONTINUOUS
10
213.573915999999997
20
-106.3505969999999934
11
213.3500229999999931
21
-106.5744929999999897
0
LINE
8
BLACK
6
CONTINUOUS
10
213.3500229999999931
20
-106.5744929999999897
11
213.1039519999999925
21
-106.7737589999999983
0
LINE
8
BLACK
6
CONTINUOUS
10
213.1039519999999925
20
-106.7737589999999983
11
212.8383999999999787
21
-106.9462119999999885
0
LINE
8
BLACK
6
CONTINUOUS
10
212.8383999999999787
20
-106.9462119999999885
11
212.5562759999999969
21
-107.0899619999999999
0
LINE
8
BLACK
6
CONTINUOUS
10
212.5562759999999969
20
-107.0899619999999999
11
212.2606710000000021
21
-107.2034340000000014
0
LINE
8
BLACK
6
CONTINUOUS
10
212.2606710000000021
20
-107.2034340000000014
11
211.9548249999999996
21
-107.2853849999999909
0
LINE
8
BLACK
6
CONTINUOUS
10
211.9548249999999996
20
-107.2853849999999909
11
211.6420880000000011
21
-107.3349169999999901
0
LINE
8
BLACK
6
CONTINUOUS
10
211.6420880000000011
20
-107.3349169999999901
11
211.3259749999999997
21
-107.3514819999999901
0
LINE
8
BLACK
6
CONTINUOUS
10
211.3259749999999997
20
-107.3514819999999901
11
211.3258869999999945
21
-107.3515000000000015
0
LINE
8
BLACK
6
CONTINUOUS
10
211.3258869999999945
20
-107.3515000000000015
11
185.7903519999999844
21
-107.3515000000000015
0
LINE
8
BLACK
6
CONTINUOUS
10
185.7903519999999844
20
-107.3515000000000015
11
185.7791210000000035
21
-107.3669560000000018
0
LINE
8
BLACK
6
CONTINUOUS
10
185.7791210000000035
20
-107.3669560000000018
11
185.749730999999997
21
-107.3765029999999996
0
LINE
8
BLACK
6
CONTINUOUS
10
185.749730999999997
20
-107.3765029999999996
11
185.749730999999997
21
-107.3764749999999992
0
LINE
8
BLACK
6
CONTINUOUS
10
185.749730999999997
20
-107.3764749999999992
11
185.6835140000000024
21
-107.3764719999999926
0
LINE
8
BLACK
6
CONTINUOUS
10
185.6835140000000024
20
-107.3764719999999926
11
185.5549269999999922
21
-107.4081589999999977
0
LINE
8
BLACK
6
CONTINUOUS
10
185.5549269999999922
20
-107.4081589999999977
11
185.4376609999999914
21
-107.4696989999999914
0
LINE
8
BLACK
6
CONTINUOUS
10
185.4376609999999914
20
-107.4696989999999914
11
185.3385299999999916
21
-107.5575159999999926
0
LINE
8
BLACK
6
CONTINUOUS
10
185.3385299999999916
20
-107.5575159999999926
11
185.2632969999999943
21
-107.6665050000000008
0
LINE
8
BLACK
6
CONTINUOUS
10
185.2632969999999943
20
-107.6665050000000008
11
185.2163339999999891
21
-107.7903319999999923
0
LINE
8
BLACK
6
CONTINUOUS
10
185.2163339999999891
20
-107.7903319999999923
11
185.2003699999999924
21
-107.9217999999999904
0
LINE
8
BLACK
6
CONTINUOUS
10
185.2003699999999924
20
-107.9217999999999904
11
185.2163339999999891
21
-108.0532679999999885
0
LINE
8
BLACK
6
CONTINUOUS
10
185.2163339999999891
20
-108.0532679999999885
11
185.2632969999999943
21
-108.1770949999999942
0
LINE
8
BLACK
6
CONTINUOUS
10
185.2632969999999943
20
-108.1770949999999942
11
185.3385299999999916
21
-108.2860839999999882
0
LINE
8
BLACK
6
CONTINUOUS
10
185.3385299999999916
20
-108.2860839999999882
11
185.4376609999999914
21
-108.3739009999999894
0
LINE
8
BLACK
6
CONTINUOUS
10
185.4376609999999914
20
-108.3739009999999894
11
185.5549269999999922
21
-108.4354409999999973
0
LINE
8
BLACK
6
CONTINUOUS
10
185.5549269999999922
20
-108.4354409999999973
11
185.6835140000000024
21
-108.4671279999999882
0
LINE
8
BLACK
6
CONTINUOUS
10
185.6835140000000024
20
-108.4671279999999882
11
185.749730999999997
21
-108.4671249999999958
0
LINE
8
BLACK
6
CONTINUOUS
10
185.749730999999997
20
-108.4671249999999958
11
185.7497319999999945
21
-108.4671249999999958
0
LINE
8
BLACK
6
CONTINUOUS
10
185.7497319999999945
20
-108.4671249999999958
11
185.7497339999999895
21
-108.4671249999999958
0
LINE
8
BLACK
6
CONTINUOUS
10
185.7497339999999895
20
-108.4671249999999958
11
205.5935339999999769
21
-108.4671309999999949
0
LINE
8
BLACK
6
CONTINUOUS
10
205.5935339999999769
20
-108.4671309999999949
11
205.5935350000000028
21
-108.4671309999999949
0
LINE
8
BLACK
6
CONTINUOUS
10
205.5935350000000028
20
-108.4671309999999949
11
205.891145999999992
21
-108.4854189999999932
0
LINE
8
BLACK
6
CONTINUOUS
10
205.891145999999992
20
-108.4854189999999932
11
206.1842809999999986
21
-108.5400009999999895
0
LINE
8
BLACK
6
CONTINUOUS
10
206.1842809999999986
20
-108.5400009999999895
11
206.468529999999987
21
-108.6300540000000012
0
LINE
8
BLACK
6
CONTINUOUS
10
206.468529999999987
20
-108.6300540000000012
11
206.7396179999999788
21
-108.7542259999999885
0
LINE
8
BLACK
6
CONTINUOUS
10
206.7396179999999788
20
-108.7542259999999885
11
206.9934669999999812
21
-108.9106469999999973
0
LINE
8
BLACK
6
CONTINUOUS
10
206.9934669999999812
20
-108.9106469999999973
11
207.2262599999999964
21
-109.0969659999999948
0
LINE
8
BLACK
6
CONTINUOUS
10
207.2262599999999964
20
-109.0969659999999948
11
207.4344949999999983
21
-109.310379999999995
0
LINE
8
BLACK
6
CONTINUOUS
10
207.4344949999999983
20
-109.310379999999995
11
207.6150389999999959
21
-109.547678999999988
0
LINE
8
BLACK
6
CONTINUOUS
10
207.6150389999999959
20
-109.547678999999988
11
207.7651779999999917
21
-109.8052929999999918
0
LINE
8
BLACK
6
CONTINUOUS
10
207.7651779999999917
20
-109.8052929999999918
11
207.8826540000000023
21
-110.0793489999999935
0
LINE
8
BLACK
6
CONTINUOUS
10
207.8826540000000023
20
-110.0793489999999935
11
207.9656990000000008
21
-110.3657249999999976
0
LINE
8
BLACK
6
CONTINUOUS
10
207.9656990000000008
20
-110.3657249999999976
11
208.0130639999999858
21
-110.660111999999998
0
LINE
8
BLACK
6
CONTINUOUS
10
208.0130639999999858
20
-110.660111999999998
11
208.0240359999999953
21
-110.958083000000002
0
LINE
8
BLACK
6
CONTINUOUS
10
208.0240359999999953
20
-110.958083000000002
11
207.9984519999999861
21
-111.2551559999999995
0
LINE
8
BLACK
6
CONTINUOUS
10
207.9984519999999861
20
-111.2551559999999995
11
207.9366949999999861
21
-111.5468630000000019
0
LINE
8
BLACK
6
CONTINUOUS
10
207.9366949999999861
20
-111.5468630000000019
11
207.8396949999999777
21
-111.8288170000000008
0
LINE
8
BLACK
6
CONTINUOUS
10
207.8396949999999777
20
-111.8288170000000008
11
207.708910000000003
21
-112.0967769999999888
0
LINE
8
BLACK
6
CONTINUOUS
10
207.708910000000003
20
-112.0967769999999888
11
207.546307999999982
21
-112.3467129999999941
0
LINE
8
BLACK
6
CONTINUOUS
10
207.546307999999982
20
-112.3467129999999941
11
207.3543339999999944
21
-112.5748639999999909
0
LINE
8
BLACK
6
CONTINUOUS
10
207.3543339999999944
20
-112.5748639999999909
11
207.1358759999999961
21
-112.7777999999999992
0
LINE
8
BLACK
6
CONTINUOUS
10
207.1358759999999961
20
-112.7777999999999992
11
206.8942189999999925
21
-112.9524689999999936
0
LINE
8
BLACK
6
CONTINUOUS
10
206.8942189999999925
20
-112.9524689999999936
11
206.6329979999999864
21
-113.0962430000000012
0
LINE
8
BLACK
6
CONTINUOUS
10
206.6329979999999864
20
-113.0962430000000012
11
206.356143000000003
21
-113.2069589999999977
0
LINE
8
BLACK
6
CONTINUOUS
10
206.356143000000003
20
-113.2069589999999977
11
206.0678169999999909
21
-113.282952999999992
0
LINE
8
BLACK
6
CONTINUOUS
10
206.0678169999999909
20
-113.282952999999992
11
205.772356000000002
21
-113.3230810000000019
0
LINE
8
BLACK
6
CONTINUOUS
10
205.772356000000002
20
-113.3230810000000019
11
205.474205999999981
21
-113.3267409999999984
0
LINE
8
BLACK
6
CONTINUOUS
10
205.474205999999981
20
-113.3267409999999984
11
205.1778489999999806
21
-113.2938759999999974
0
LINE
8
BLACK
6
CONTINUOUS
10
205.1778489999999806
20
-113.2938759999999974
11
204.8877449999999953
21
-113.2249809999999997
0
LINE
8
BLACK
6
CONTINUOUS
10
204.8877449999999953
20
-113.2249809999999997
11
204.6082549999999856
21
-113.1210919999999902
0
LINE
8
BLACK
6
CONTINUOUS
10
204.6082549999999856
20
-113.1210919999999902
11
204.3435849999999903
21
-112.9837729999999993
0
LINE
8
BLACK
6
CONTINUOUS
10
204.3435849999999903
20
-112.9837729999999993
11
204.0977139999999963
21
-112.8150879999999887
0
LINE
8
BLACK
6
CONTINUOUS
10
204.0977139999999963
20
-112.8150879999999887
11
203.8743409999999869
21
-112.6175739999999905
0
LINE
8
BLACK
6
CONTINUOUS
10
203.8743409999999869
20
-112.6175739999999905
11
203.8743809999999996
21
-112.617533999999992
0
LINE
8
BLACK
6
CONTINUOUS
10
203.8743809999999996
20
-112.617533999999992
11
203.0481639999999857
21
-111.7913169999999923
0
LINE
8
BLACK
6
CONTINUOUS
10
203.0481639999999857
20
-111.7913169999999923
11
202.953852999999981
21
-111.7009769999999946
0
LINE
8
BLACK
6
CONTINUOUS
10
202.953852999999981
20
-111.7009769999999946
11
202.7427979999999934
21
-111.5450929999999943
0
LINE
8
BLACK
6
CONTINUOUS
10
202.7427979999999934
20
-111.5450929999999943
11
202.5136679999999956
21
-111.4172499999999957
0
LINE
8
BLACK
6
CONTINUOUS
10
202.5136679999999956
20
-111.4172499999999957
11
202.2701689999999815
21
-111.3195149999999956
0
LINE
8
BLACK
6
CONTINUOUS
10
202.2701689999999815
20
-111.3195149999999956
11
202.0162359999999921
21
-111.253467999999998
0
LINE
8
BLACK
6
CONTINUOUS
10
202.0162359999999921
20
-111.253467999999998
11
201.7559749999999781
21
-111.220175999999995
0
LINE
8
BLACK
6
CONTINUOUS
10
201.7559749999999781
20
-111.220175999999995
11
201.6247839999999769
21
-111.2202429999999964
0
LINE
8
BLACK
6
CONTINUOUS
10
201.6247839999999769
20
-111.2202429999999964
11
201.624779999999987
21
-111.2202410000000015
0
LINE
8
BLACK
6
CONTINUOUS
10
201.624779999999987
20
-111.2202410000000015
11
201.6247740000000022
21
-111.2202429999999964
0
LINE
8
BLACK
6
CONTINUOUS
10
201.6247740000000022
20
-111.2202429999999964
11
184.5867789999999786
21
-111.2202429999999964
0
LINE
8
BLACK
6
CONTINUOUS
10
184.5867789999999786
20
-111.2202429999999964
11
184.2923490000000015
21
-111.2037059999999968
0
LINE
8
BLACK
6
CONTINUOUS
10
184.2923490000000015
20
-111.2037059999999968
11
184.0016210000000001
21
-111.1543089999999978
0
LINE
8
BLACK
6
CONTINUOUS
10
184.0016210000000001
20
-111.1543089999999978
11
183.7182530000000042
21
-111.0726709999999997
0
LINE
8
BLACK
6
CONTINUOUS
10
183.7182530000000042
20
-111.0726709999999997
11
183.4458060000000046
21
-110.9598209999999909
0
LINE
8
BLACK
6
CONTINUOUS
10
183.4458060000000046
20
-110.9598209999999909
11
183.187706999999989
21
-110.8171759999999892
0
LINE
8
BLACK
6
CONTINUOUS
10
183.187706999999989
20
-110.8171759999999892
11
182.9472020000000043
21
-110.6465319999999934
0
LINE
8
BLACK
6
CONTINUOUS
10
182.9472020000000043
20
-110.6465319999999934
11
182.7273139999999785
21
-110.4500329999999906
0
LINE
8
BLACK
6
CONTINUOUS
10
182.7273139999999785
20
-110.4500329999999906
11
182.7273229999999842
21
-110.4500239999999991
0
LINE
8
BLACK
6
CONTINUOUS
10
182.7273229999999842
20
-110.4500239999999991
11
180.3947320000000047
21
-108.1174319999999938
0
LINE
8
BLACK
6
CONTINUOUS
10
180.3947320000000047
20
-108.1174319999999938
11
180.3947299999999814
21
-108.1174309999999963
0
LINE
8
BLACK
6
CONTINUOUS
10
180.3947299999999814
20
-108.1174309999999963
11
180.3947299999999814
21
-108.1174299999999988
0
LINE
8
BLACK
6
CONTINUOUS
10
180.3947299999999814
20
-108.1174299999999988
11
180.3946569999999952
21
-108.1173209999999898
0
LINE
8
BLACK
6
CONTINUOUS
10
180.3946569999999952
20
-108.1173209999999898
11
180.2942929999999819
21
-108.0169589999999999
0
LINE
8
BLACK
6
CONTINUOUS
10
180.2942929999999819
20
-108.0169589999999999
11
180.072150999999991
21
-107.8398099999999999
0
LINE
8
BLACK
6
CONTINUOUS
10
180.072150999999991
20
-107.8398099999999999
11
179.8315709999999967
21
-107.6886469999999889
0
LINE
8
BLACK
6
CONTINUOUS
10
179.8315709999999967
20
-107.6886469999999889
11
179.5755800000000022
21
-107.565370999999999
0
LINE
8
BLACK
6
CONTINUOUS
10
179.5755800000000022
20
-107.565370999999999
11
179.3073949999999854
21
-107.4715319999999963
0
LINE
8
BLACK
6
CONTINUOUS
10
179.3073949999999854
20
-107.4715319999999963
11
179.0303899999999828
21
-107.4083089999999885
0
LINE
8
BLACK
6
CONTINUOUS
10
179.0303899999999828
20
-107.4083089999999885
11
178.7480479999999829
21
-107.3764989999999955
0
LINE
8
BLACK
6
CONTINUOUS
10
178.7480479999999829
20
-107.3764989999999955
11
178.6059839999999781
21
-107.376499999999993
0
LINE
8
BLACK
6
CONTINUOUS
10
178.6059839999999781
20
-107.376499999999993
11
178.5765949999999975
21
-107.3669510000000002
0
LINE
8
BLACK
6
CONTINUOUS
10
178.5765949999999975
20
-107.3669510000000002
11
178.5653679999999781
21
-107.3514989999999898
0
LINE
8
BLACK
6
CONTINUOUS
10
178.5653679999999781
20
-107.3514989999999898
11
147.690369000000004
21
-107.351475999999991
0
LINE
8
BLACK
6
CONTINUOUS
10
147.690369000000004
20
-107.351475999999991
11
147.6791209999999808
21
-107.3669560000000018
0
LINE
8
BLACK
6
CONTINUOUS
10
147.6791209999999808
20
-107.3669560000000018
11
147.6497310000000027
21
-107.3765029999999996
0
LINE
8
BLACK
6
CONTINUOUS
10
147.6497310000000027
20
-107.3765029999999996
11
147.6497310000000027
21
-107.3764749999999992
0
LINE
8
BLACK
6
CONTINUOUS
10
147.6497310000000027
20
-107.3764749999999992
11
147.5835139999999797
21
-107.3764719999999926
0
LINE
8
BLACK
6
CONTINUOUS
10
147.5835139999999797
20
-107.3764719999999926
11
147.4549269999999979
21
-107.4081589999999977
0
LINE
8
BLACK
6
CONTINUOUS
10
147.4549269999999979
20
-107.4081589999999977
11
147.3376609999999971
21
-107.4696989999999914
0
LINE
8
BLACK
6
CONTINUOUS
10
147.3376609999999971
20
-107.4696989999999914
11
147.2385299999999972
21
-107.5575159999999926
0
LINE
8
BLACK
6
CONTINUOUS
10
147.2385299999999972
20
-107.5575159999999926
11
147.163297
21
-107.6665050000000008
0
LINE
8
BLACK
6
CONTINUOUS
10
147.163297
20
-107.6665050000000008
11
147.1163339999999948
21
-107.7903319999999923
0
LINE
8
BLACK
6
CONTINUOUS
10
147.1163339999999948
20
-107.7903319999999923
11
147.1003699999999981
21
-107.9217999999999904
0
LINE
8
BLACK
6
CONTINUOUS
10
147.1003699999999981
20
-107.9217999999999904
11
147.1163339999999948
21
-108.0532679999999885
0
LINE
8
BLACK
6
CONTINUOUS
10
147.1163339999999948
20
-108.0532679999999885
11
147.163297
21
-108.1770949999999942
0
LINE
8
BLACK
6
CONTINUOUS
10
147.163297
20
-108.1770949999999942
11
147.2385299999999972
21
-108.2860839999999882
0
LINE
8
BLACK
6
CONTINUOUS
10
147.2385299999999972
20
-108.2860839999999882
11
147.3376609999999971
21
-108.3739009999999894
0
LINE
8
BLACK
6
CONTINUOUS
10
147.3376609999999971
20
-108.3739009999999894
11
147.4549269999999979
21
-108.4354409999999973
0
LINE
8
BLACK
6
CONTINUOUS
10
147.4549269999999979
20
-108.4354409999999973
11
147.5835139999999797
21
-108.4671279999999882
0
LINE
8
BLACK
6
CONTINUOUS
10
147.5835139999999797
20
-108.4671279999999882
11
147.6497310000000027
21
-108.4671249999999958
0
LINE
8
BLACK
6
CONTINUOUS
10
147.6497310000000027
20
-108.4671249999999958
11
147.6497320000000002
21
-108.4671249999999958
0
LINE
8
BLACK
6
CONTINUOUS
10
147.6497320000000002
20
-108.4671249999999958
11
147.6497339999999951
21
-108.4671249999999958
0
LINE
8
BLACK
6
CONTINUOUS
10
147.6497339999999951
20
-108.4671249999999958
11
167.4935339999999826
21
-108.4671309999999949
0
LINE
8
BLACK
6
CONTINUOUS
10
167.4935339999999826
20
-108.4671309999999949
11
167.4935349999999801
21
-108.4671309999999949
0
LINE
8
BLACK
6
CONTINUOUS
10
167.4935349999999801
20
-108.4671309999999949
11
167.7911459999999977
21
-108.4854189999999932
0
LINE
8
BLACK
6
CONTINUOUS
10
167.7911459999999977
20
-108.4854189999999932
11
168.0842810000000043
21
-108.5400009999999895
0
LINE
8
BLACK
6
CONTINUOUS
10
168.0842810000000043
20
-108.5400009999999895
11
168.3685299999999927
21
-108.6300540000000012
0
LINE
8
BLACK
6
CONTINUOUS
10
168.3685299999999927
20
-108.6300540000000012
11
168.6396179999999845
21
-108.7542259999999885
0
LINE
8
BLACK
6
CONTINUOUS
10
168.6396179999999845
20
-108.7542259999999885
11
168.8934669999999869
21
-108.9106469999999973
0
LINE
8
BLACK
6
CONTINUOUS
10
168.8934669999999869
20
-108.9106469999999973
11
169.126260000000002
21
-109.0969659999999948
0
LINE
8
BLACK
6
CONTINUOUS
10
169.126260000000002
20
-109.0969659999999948
11
169.334495000000004
21
-109.310379999999995
0
LINE
8
BLACK
6
CONTINUOUS
10
169.334495000000004
20
-109.310379999999995
11
169.5150390000000016
21
-109.547678999999988
0
LINE
8
BLACK
6
CONTINUOUS
10
169.5150390000000016
20
-109.547678999999988
11
169.6651779999999974
21
-109.8052929999999918
0
LINE
8
BLACK
6
CONTINUOUS
10
169.6651779999999974
20
-109.8052929999999918
11
169.7826539999999795
21
-110.0793489999999935
0
LINE
8
BLACK
6
CONTINUOUS
10
169.7826539999999795
20
-110.0793489999999935
11
169.8656990000000064
21
-110.3657249999999976
0
LINE
8
BLACK
6
CONTINUOUS
10
169.8656990000000064
20
-110.3657249999999976
11
169.9130639999999914
21
-110.660111999999998
0
LINE
8
BLACK
6
CONTINUOUS
10
169.9130639999999914
20
-110.660111999999998
11
169.924036000000001
21
-110.958083000000002
0
LINE
8
BLACK
6
CONTINUOUS
10
169.924036000000001
20
-110.958083000000002
11
169.8984519999999918
21
-111.2551559999999995
0
LINE
8
BLACK
6
CONTINUOUS
10
169.8984519999999918
20
-111.2551559999999995
11
169.8366949999999918
21
-111.5468630000000019
0
LINE
8
BLACK
6
CONTINUOUS
10
169.8366949999999918
20
-111.5468630000000019
11
169.7396949999999833
21
-111.8288170000000008
0
LINE
8
BLACK
6
CONTINUOUS
10
169.7396949999999833
20
-111.8288170000000008
11
169.6089099999999803
21
-112.0967769999999888
0
LINE
8
BLACK
6
CONTINUOUS
10
169.6089099999999803
20
-112.0967769999999888
11
169.4463079999999877
21
-112.3467129999999941
0
LINE
8
BLACK
6
CONTINUOUS
10
169.4463079999999877
20
-112.3467129999999941
11
169.2543340000000001
21
-112.5748639999999909
0
LINE
8
BLACK
6
CONTINUOUS
10
169.2543340000000001
20
-112.5748639999999909
11
169.0358760000000018
21
-112.7777999999999992
0
LINE
8
BLACK
6
CONTINUOUS
10
169.0358760000000018
20
-112.7777999999999992
11
168.7942189999999982
21
-112.9524689999999936
0
LINE
8
BLACK
6
CONTINUOUS
10
168.7942189999999982
20
-112.9524689999999936
11
168.5329979999999921
21
-113.0962430000000012
0
LINE
8
BLACK
6
CONTINUOUS
10
168.5329979999999921
20
-113.0962430000000012
11
168.2561429999999802
21
-113.2069589999999977
0
LINE
8
BLACK
6
CONTINUOUS
10
168.2561429999999802
20
-113.2069589999999977
11
167.9678169999999966
21
-113.282952999999992
0
LINE
8
BLACK
6
CONTINUOUS
10
167.9678169999999966
20
-113.282952999999992
11
167.6723559999999793
21
-113.3230810000000019
0
LINE
8
BLACK
6
CONTINUOUS
10
167.6723559999999793
20
-113.3230810000000019
11
167.3742059999999867
21
-113.3267409999999984
0
LINE
8
BLACK
6
CONTINUOUS
10
167.3742059999999867
20
-113.3267409999999984
11
167.0778489999999863
21
-113.2938759999999974
0
LINE
8
BLACK
6
CONTINUOUS
10
167.0778489999999863
20
-113.2938759999999974
11
166.787745000000001
21
-113.2249809999999997
0
LINE
8
BLACK
6
CONTINUOUS
10
166.787745000000001
20
-113.2249809999999997
11
166.5082549999999912
21
-113.1210919999999902
0
LINE
8
BLACK
6
CONTINUOUS
10
166.5082549999999912
20
-113.1210919999999902
11
166.2435849999999959
21
-112.9837729999999993
0
LINE
8
BLACK
6
CONTINUOUS
10
166.2435849999999959
20
-112.9837729999999993
11
165.997714000000002
21
-112.8150879999999887
0
LINE
8
BLACK
6
CONTINUOUS
10
165.997714000000002
20
-112.8150879999999887
11
165.7743409999999926
21
-112.6175739999999905
0
LINE
8
BLACK
6
CONTINUOUS
10
165.7743409999999926
20
-112.6175739999999905
11
165.7743810000000053
21
-112.617533999999992
0
LINE
8
BLACK
6
CONTINUOUS
10
165.7743810000000053
20
-112.617533999999992
11
164.9481639999999913
21
-111.7913169999999923
0
LINE
8
BLACK
6
CONTINUOUS
10
164.9481639999999913
20
-111.7913169999999923
11
164.8538529999999867
21
-111.7009769999999946
0
LINE
8
BLACK
6
CONTINUOUS
10
164.8538529999999867
20
-111.7009769999999946
11
164.6427979999999991
21
-111.5450929999999943
0
LINE
8
BLACK
6
CONTINUOUS
10
164.6427979999999991
20
-111.5450929999999943
11
164.4136680000000013
21
-111.4172499999999957
0
LINE
8
BLACK
6
CONTINUOUS
10
164.4136680000000013
20
-111.4172499999999957
11
164.1701689999999871
21
-111.3195149999999956
0
LINE
8
BLACK
6
CONTINUOUS
10
164.1701689999999871
20
-111.3195149999999956
11
163.9162359999999978
21
-111.253467999999998
0
LINE
8
BLACK
6
CONTINUOUS
10
163.9162359999999978
20
-111.253467999999998
11
163.6559749999999838
21
-111.220175999999995
0
LINE
8
BLACK
6
CONTINUOUS
10
163.6559749999999838
20
-111.220175999999995
11
163.5247839999999826
21
-111.2202429999999964
0
LINE
8
BLACK
6
CONTINUOUS
10
163.5247839999999826
20
-111.2202429999999964
11
163.5247799999999927
21
-111.2202410000000015
0
LINE
8
BLACK
6
CONTINUOUS
10
163.5247799999999927
20
-111.2202410000000015
11
163.5247739999999794
21
-111.2202429999999964
0
LINE
8
BLACK
6
CONTINUOUS
10
163.5247739999999794
20
-111.2202429999999964
11
146.4867789999999843
21
-111.2202429999999964
0
LINE
8
BLACK
6
CONTINUOUS
10
146.4867789999999843
20
-111.2202429999999964
11
146.1923490000000072
21
-111.2037059999999968
0
LINE
8
BLACK
6
CONTINUOUS
10
146.1923490000000072
20
-111.2037059999999968
11
145.9016210000000058
21
-111.1543089999999978
0
LINE
8
BLACK
6
CONTINUOUS
10
145.9016210000000058
20
-111.1543089999999978
11
145.6182529999999815
21
-111.0726709999999997
0
LINE
8
BLACK
6
CONTINUOUS
10
145.6182529999999815
20
-111.0726709999999997
11
145.3458059999999819
21
-110.9598209999999909
0
LINE
8
BLACK
6
CONTINUOUS
10
145.3458059999999819
20
-110.9598209999999909
11
145.0877069999999947
21
-110.8171759999999892
0
LINE
8
BLACK
6
CONTINUOUS
10
145.0877069999999947
20
-110.8171759999999892
11
144.8472019999999816
21
-110.6465319999999934
0
LINE
8
BLACK
6
CONTINUOUS
10
144.8472019999999816
20
-110.6465319999999934
11
144.6273139999999842
21
-110.4500329999999906
0
LINE
8
BLACK
6
CONTINUOUS
10
144.6273139999999842
20
-110.4500329999999906
11
144.6273229999999899
21
-110.4500239999999991
0
LINE
8
BLACK
6
CONTINUOUS
10
144.6273229999999899
20
-110.4500239999999991
11
142.294731999999982
21
-108.1174319999999938
0
LINE
8
BLACK
6
CONTINUOUS
10
142.294731999999982
20
-108.1174319999999938
11
142.2947299999999871
21
-108.1174309999999963
0
LINE
8
BLACK
6
CONTINUOUS
10
142.2947299999999871
20
-108.1174309999999963
11
142.2947299999999871
21
-108.1174299999999988
0
LINE
8
BLACK
6
CONTINUOUS
10
142.2947299999999871
20
-108.1174299999999988
11
142.2946570000000008
21
-108.1173209999999898
0
LINE
8
BLACK
6
CONTINUOUS
10
142.2946570000000008
20
-108.1173209999999898
11
142.1942929999999876
21
-108.0169589999999999
0
LINE
8
BLACK
6
CONTINUOUS
10
142.1942929999999876
20
-108.0169589999999999
11
141.9721509999999967
21
-107.8398099999999999
0
LINE
8
BLACK
6
CONTINUOUS
10
141.9721509999999967
20
-107.8398099999999999
11
141.7315710000000024
21
-107.6886469999999889
0
LINE
8
BLACK
6
CONTINUOUS
10
141.7315710000000024
20
-107.6886469999999889
11
141.4755799999999795
21
-107.565370999999999
0
LINE
8
BLACK
6
CONTINUOUS
10
141.4755799999999795
20
-107.565370999999999
11
141.2073949999999911
21
-107.4715319999999963
0
LINE
8
BLACK
6
CONTINUOUS
10
141.2073949999999911
20
-107.4715319999999963
11
140.9303899999999885
21
-107.4083089999999885
0
LINE
8
BLACK
6
CONTINUOUS
10
140.9303899999999885
20
-107.4083089999999885
11
140.6480479999999886
21
-107.3764989999999955
0
LINE
8
BLACK
6
CONTINUOUS
10
140.6480479999999886
20
-107.3764989999999955
11
140.5059839999999838
21
-107.376499999999993
0
LINE
8
BLACK
6
CONTINUOUS
10
140.5059839999999838
20
-107.376499999999993
11
140.4765950000000032
21
-107.3669510000000002
0
LINE
8
BLACK
6
CONTINUOUS
10
140.4765950000000032
20
-107.3669510000000002
11
140.4653689999999813
21
-107.3515000000000015
0
LINE
8
BLACK
6
CONTINUOUS
10
140.4653689999999813
20
-107.3515000000000015
11
97.6840969999999942
21
-107.3515000000000015
0
LINE
8
BLACK
6
CONTINUOUS
10
97.6840969999999942
20
-107.3515000000000015
11
97.6728739999999931
21
-107.3669479999999936
0
LINE
8
BLACK
6
CONTINUOUS
10
97.6728739999999931
20
-107.3669479999999936
11
97.6434840000000008
21
-107.3764970000000005
0
LINE
8
BLACK
6
CONTINUOUS
10
97.6434840000000008
20
-107.3764970000000005
11
97.6434840000000008
21
-107.3765020000000021
0
LINE
8
BLACK
6
CONTINUOUS
10
97.6434840000000008
20
-107.3765020000000021
11
97.5014209999999935
21
-107.3765029999999996
0
LINE
8
BLACK
6
CONTINUOUS
10
97.5014209999999935
20
-107.3765029999999996
11
97.2190820000000002
21
-107.4083159999999992
0
LINE
8
BLACK
6
CONTINUOUS
10
97.2190820000000002
20
-107.4083159999999992
11
96.9420789999999926
21
-107.471541000000002
0
LINE
8
BLACK
6
CONTINUOUS
10
96.9420789999999926
20
-107.471541000000002
11
96.6738969999999966
21
-107.5653829999999971
0
LINE
8
BLACK
6
CONTINUOUS
10
96.6738969999999966
20
-107.5653829999999971
11
96.4179089999999945
21
-107.6886609999999962
0
LINE
8
BLACK
6
CONTINUOUS
10
96.4179089999999945
20
-107.6886609999999962
11
96.1773319999999927
21
-107.8398249999999905
0
LINE
8
BLACK
6
CONTINUOUS
10
96.1773319999999927
20
-107.8398249999999905
11
95.9551929999999942
21
-108.0169739999999905
0
LINE
8
BLACK
6
CONTINUOUS
10
95.9551929999999942
20
-108.0169739999999905
11
95.854738999999995
21
-108.1174279999999897
0
LINE
8
BLACK
6
CONTINUOUS
10
95.854738999999995
20
-108.1174279999999897
11
95.8547379999999976
21
-108.1174269999999922
0
LINE
8
BLACK
6
CONTINUOUS
10
95.8547379999999976
20
-108.1174269999999922
11
93.5221459999999922
21
-110.450018
0
LINE
8
BLACK
6
CONTINUOUS
10
93.5221459999999922
20
-110.450018
11
93.5221449999999948
21
-110.4500209999999925
0
LINE
8
BLACK
6
CONTINUOUS
10
93.5221449999999948
20
-110.4500209999999925
11
93.5221439999999973
21
-110.450019999999995
0
LINE
8
BLACK
6
CONTINUOUS
10
93.5221439999999973
20
-110.450019999999995
11
93.5221409999999906
21
-110.4500219999999899
0
LINE
8
BLACK
6
CONTINUOUS
10
93.5221409999999906
20
-110.4500219999999899
11
93.3022569999999973
21
-110.6465159999999912
0
LINE
8
BLACK
6
CONTINUOUS
10
93.3022569999999973
20
-110.6465159999999912
11
93.0617519999999985
21
-110.8171569999999946
0
LINE
8
BLACK
6
CONTINUOUS
10
93.0617519999999985
20
-110.8171569999999946
11
92.8036539999999945
21
-110.9597979999999922
0
LINE
8
BLACK
6
CONTINUOUS
10
92.8036539999999945
20
-110.9597979999999922
11
92.5312089999999898
21
-111.0726439999999968
0
LINE
8
BLACK
6
CONTINUOUS
10
92.5312089999999898
20
-111.0726439999999968
11
92.2478419999999915
21
-111.1542779999999908
0
LINE
8
BLACK
6
CONTINUOUS
10
92.2478419999999915
20
-111.1542779999999908
11
91.9571159999999992
21
-111.2036719999999974
0
LINE
8
BLACK
6
CONTINUOUS
10
91.9571159999999992
20
-111.2036719999999974
11
91.6629339999999928
21
-111.2201909999999998
0
LINE
8
BLACK
6
CONTINUOUS
10
91.6629339999999928
20
-111.2201909999999998
11
91.6626890000000003
21
-111.2202399999999898
0
LINE
8
BLACK
6
CONTINUOUS
10
91.6626890000000003
20
-111.2202399999999898
11
74.624693999999991
21
-111.2202399999999898
0
LINE
8
BLACK
6
CONTINUOUS
10
74.624693999999991
20
-111.2202399999999898
11
74.6246869999999944
21
-111.2202379999999948
0
LINE
8
BLACK
6
CONTINUOUS
10
74.6246869999999944
20
-111.2202379999999948
11
74.624684000000002
21
-111.2202399999999898
0
LINE
8
BLACK
6
CONTINUOUS
10
74.624684000000002
20
-111.2202399999999898
11
74.624684000000002
21
-111.2202379999999948
0
LINE
8
BLACK
6
CONTINUOUS
10
74.624684000000002
20
-111.2202379999999948
11
74.6246029999999934
21
-111.2202209999999951
0
LINE
8
BLACK
6
CONTINUOUS
10
74.6246029999999934
20
-111.2202209999999951
11
74.4934930000000008
21
-111.2201570000000004
0
LINE
8
BLACK
6
CONTINUOUS
10
74.4934930000000008
20
-111.2201570000000004
11
74.233232000000001
21
-111.2534529999999933
0
LINE
8
BLACK
6
CONTINUOUS
10
74.233232000000001
20
-111.2534529999999933
11
73.9792989999999975
21
-111.3195039999999949
0
LINE
8
BLACK
6
CONTINUOUS
10
73.9792989999999975
20
-111.3195039999999949
11
73.7357999999999976
21
-111.4172420000000017
0
LINE
8
BLACK
6
CONTINUOUS
10
73.7357999999999976
20
-111.4172420000000017
11
73.5066709999999972
21
-111.5450879999999927
0
LINE
8
BLACK
6
CONTINUOUS
10
73.5066709999999972
20
-111.5450879999999927
11
73.2956169999999929
21
-111.7009749999999997
0
LINE
8
BLACK
6
CONTINUOUS
10
73.2956169999999929
20
-111.7009749999999997
11
73.2012100000000032
21
-111.7914069999999924
0
LINE
8
BLACK
6
CONTINUOUS
10
73.2012100000000032
20
-111.7914069999999924
11
72.3750869999999935
21
-112.6175309999999996
0
LINE
8
BLACK
6
CONTINUOUS
10
72.3750869999999935
20
-112.6175309999999996
11
72.1517159999999933
21
-112.8150440000000003
0
LINE
8
BLACK
6
CONTINUOUS
10
72.1517159999999933
20
-112.8150440000000003
11
71.9058469999999943
21
-112.9837289999999967
0
LINE
8
BLACK
6
CONTINUOUS
10
71.9058469999999943
20
-112.9837289999999967
11
71.6411789999999939
21
-113.1210480000000018
0
LINE
8
BLACK
6
CONTINUOUS
10
71.6411789999999939
20
-113.1210480000000018
11
71.3616909999999933
21
-113.2249359999999996
0
LINE
8
BLACK
6
CONTINUOUS
10
71.3616909999999933
20
-113.2249359999999996
11
71.071589000000003
21
-113.2938309999999973
0
LINE
8
BLACK
6
CONTINUOUS
10
71.071589000000003
20
-113.2938309999999973
11
70.7752339999999975
21
-113.3266959999999983
0
LINE
8
BLACK
6
CONTINUOUS
10
70.7752339999999975
20
-113.3266959999999983
11
70.4770859999999999
21
-113.3230360000000019
0
LINE
8
BLACK
6
CONTINUOUS
10
70.4770859999999999
20
-113.3230360000000019
11
70.1816269999999918
21
-113.2829079999999919
0
LINE
8
BLACK
6
CONTINUOUS
10
70.1816269999999918
20
-113.2829079999999919
11
69.8933030000000031
21
-113.2069149999999951
0
LINE
8
BLACK
6
CONTINUOUS
10
69.8933030000000031
20
-113.2069149999999951
11
69.6164490000000029
21
-113.0961989999999986
0
LINE
8
BLACK
6
CONTINUOUS
10
69.6164490000000029
20
-113.0961989999999986
11
69.3552299999999917
21
-112.952424999999991
0
LINE
8
BLACK
6
CONTINUOUS
10
69.3552299999999917
20
-112.952424999999991
11
69.1135759999999948
21
-112.777756999999994
0
LINE
8
BLACK
6
CONTINUOUS
10
69.1135759999999948
20
-112.777756999999994
11
68.895118999999994
21
-112.5748219999999975
0
LINE
8
BLACK
6
CONTINUOUS
10
68.895118999999994
20
-112.5748219999999975
11
68.7031470000000013
21
-112.3466710000000006
0
LINE
8
BLACK
6
CONTINUOUS
10
68.7031470000000013
20
-112.3466710000000006
11
68.5405470000000037
21
-112.0967369999999903
0
LINE
8
BLACK
6
CONTINUOUS
10
68.5405470000000037
20
-112.0967369999999903
11
68.4097639999999956
21
-111.8287779999999998
0
LINE
8
BLACK
6
CONTINUOUS
10
68.4097639999999956
20
-111.8287779999999998
11
68.3127659999999963
21
-111.5468259999999958
0
LINE
8
BLACK
6
CONTINUOUS
10
68.3127659999999963
20
-111.5468259999999958
11
68.2510109999999912
21
-111.2551199999999909
0
LINE
8
BLACK
6
CONTINUOUS
10
68.2510109999999912
20
-111.2551199999999909
11
68.2254279999999937
21
-110.9580479999999909
0
LINE
8
BLACK
6
CONTINUOUS
10
68.2254279999999937
20
-110.9580479999999909
11
68.2364029999999957
21
-110.6600789999999961
0
LINE
8
BLACK
6
CONTINUOUS
10
68.2364029999999957
20
-110.6600789999999961
11
68.2837689999999924
21
-110.3656939999999906
0
LINE
8
BLACK
6
CONTINUOUS
10
68.2837689999999924
20
-110.3656939999999906
11
68.366816
21
-110.0793219999999906
0
LINE
8
BLACK
6
CONTINUOUS
10
68.366816
20
-110.0793219999999906
11
68.4842919999999964
21
-109.8052679999999981
0
LINE
8
BLACK
6
CONTINUOUS
10
68.4842919999999964
20
-109.8052679999999981
11
68.6344320000000039
21
-109.5476559999999893
0
LINE
8
BLACK
6
CONTINUOUS
10
68.6344320000000039
20
-109.5476559999999893
11
68.8149779999999964
21
-109.3103610000000003
0
LINE
8
BLACK
6
CONTINUOUS
10
68.8149779999999964
20
-109.3103610000000003
11
69.0232129999999984
21
-109.0969499999999925
0
LINE
8
BLACK
6
CONTINUOUS
10
69.0232129999999984
20
-109.0969499999999925
11
69.2560059999999993
21
-108.9106349999999992
0
LINE
8
BLACK
6
CONTINUOUS
10
69.2560059999999993
20
-108.9106349999999992
11
69.5098550000000017
21
-108.754216999999997
0
LINE
8
BLACK
6
CONTINUOUS
10
69.5098550000000017
20
-108.754216999999997
11
69.780941999999996
21
-108.6300489999999996
0
LINE
8
BLACK
6
CONTINUOUS
10
69.780941999999996
20
-108.6300489999999996
11
70.0651900000000012
21
-108.5399989999999946
0
LINE
8
BLACK
6
CONTINUOUS
10
70.0651900000000012
20
-108.5399989999999946
11
70.3583239999999961
21
-108.4854209999999881
0
LINE
8
BLACK
6
CONTINUOUS
10
70.3583239999999961
20
-108.4854209999999881
11
70.6558749999999947
21
-108.4671389999999889
0
LINE
8
BLACK
6
CONTINUOUS
10
70.6558749999999947
20
-108.4671389999999889
11
70.655934000000002
21
-108.4671279999999882
0
LINE
8
BLACK
6
CONTINUOUS
10
70.655934000000002
20
-108.4671279999999882
11
90.4997299999999996
21
-108.4671219999999892
0
LINE
8
BLACK
6
CONTINUOUS
10
90.4997299999999996
20
-108.4671219999999892
11
90.499730999999997
21
-108.4671219999999892
0
LINE
8
BLACK
6
CONTINUOUS
10
90.499730999999997
20
-108.4671219999999892
11
90.499730999999997
21
-108.4671000000000021
0
LINE
8
BLACK
6
CONTINUOUS
10
90.499730999999997
20
-108.4671000000000021
11
90.5659399999999977
21
-108.467095999999998
0
LINE
8
BLACK
6
CONTINUOUS
10
90.5659399999999977
20
-108.467095999999998
11
90.6945089999999965
21
-108.4354009999999988
0
LINE
8
BLACK
6
CONTINUOUS
10
90.6945089999999965
20
-108.4354009999999988
11
90.8117570000000001
21
-108.3738579999999985
0
LINE
8
BLACK
6
CONTINUOUS
10
90.8117570000000001
20
-108.3738579999999985
11
90.9108700000000027
21
-108.2860459999999989
0
LINE
8
BLACK
6
CONTINUOUS
10
90.9108700000000027
20
-108.2860459999999989
11
90.9860899999999901
21
-108.1770659999999964
0
LINE
8
BLACK
6
CONTINUOUS
10
90.9860899999999901
20
-108.1770659999999964
11
91.0330439999999896
21
-108.053252999999998
0
LINE
8
BLACK
6
CONTINUOUS
10
91.0330439999999896
20
-108.053252999999998
11
91.049004999999994
21
-107.9217999999999904
0
LINE
8
BLACK
6
CONTINUOUS
10
91.049004999999994
20
-107.9217999999999904
11
91.0330439999999896
21
-107.790346999999997
0
LINE
8
BLACK
6
CONTINUOUS
10
91.0330439999999896
20
-107.790346999999997
11
90.9860899999999901
21
-107.6665339999999986
0
LINE
8
BLACK
6
CONTINUOUS
10
90.9860899999999901
20
-107.6665339999999986
11
90.9108700000000027
21
-107.5575539999999961
0
LINE
8
BLACK
6
CONTINUOUS
10
90.9108700000000027
20
-107.5575539999999961
11
90.8117570000000001
21
-107.4697419999999966
0
LINE
8
BLACK
6
CONTINUOUS
10
90.8117570000000001
20
-107.4697419999999966
11
90.6945089999999965
21
-107.4081989999999962
0
LINE
8
BLACK
6
CONTINUOUS
10
90.6945089999999965
20
-107.4081989999999962
11
90.5659399999999977
21
-107.3765039999999971
0
LINE
8
BLACK
6
CONTINUOUS
10
90.5659399999999977
20
-107.3765039999999971
11
90.499730999999997
21
-107.376499999999993
0
LINE
8
BLACK
6
CONTINUOUS
10
90.499730999999997
20
-107.376499999999993
11
90.4703420000000023
21
-107.3669489999999911
0
LINE
8
BLACK
6
CONTINUOUS
10
90.4703420000000023
20
-107.3669489999999911
11
90.4591179999999895
21
-107.3514989999999898
0
LINE
8
BLACK
6
CONTINUOUS
10
90.4591179999999895
20
-107.3514989999999898
11
59.5840989999999948
21
-107.3512969999999882
0
LINE
8
BLACK
6
CONTINUOUS
10
59.5840989999999948
20
-107.3512969999999882
11
59.5728739999999988
21
-107.3667480000000012
0
LINE
8
BLACK
6
CONTINUOUS
10
59.5728739999999988
20
-107.3667480000000012
11
59.5434839999999994
21
-107.3762969999999939
0
LINE
8
BLACK
6
CONTINUOUS
10
59.5434839999999994
20
-107.3762969999999939
11
59.5434839999999994
21
-107.3763019999999955
0
LINE
8
BLACK
6
CONTINUOUS
10
59.5434839999999994
20
-107.3763019999999955
11
59.4014209999999991
21
-107.3763029999999929
0
LINE
8
BLACK
6
CONTINUOUS
10
59.4014209999999991
20
-107.3763029999999929
11
59.1190819999999988
21
-107.4081159999999926
0
LINE
8
BLACK
6
CONTINUOUS
10
59.1190819999999988
20
-107.4081159999999926
11
58.8420789999999982
21
-107.4713409999999953
0
LINE
8
BLACK
6
CONTINUOUS
10
58.8420789999999982
20
-107.4713409999999953
11
58.5738969999999952
21
-107.5651829999999904
0
LINE
8
BLACK
6
CONTINUOUS
10
58.5738969999999952
20
-107.5651829999999904
11
58.3179090000000002
21
-107.6884609999999896
0
LINE
8
BLACK
6
CONTINUOUS
10
58.3179090000000002
20
-107.6884609999999896
11
58.0773319999999984
21
-107.8396249999999981
0
LINE
8
BLACK
6
CONTINUOUS
10
58.0773319999999984
20
-107.8396249999999981
11
57.8551929999999999
21
-108.0167739999999981
0
LINE
8
BLACK
6
CONTINUOUS
10
57.8551929999999999
20
-108.0167739999999981
11
57.7547390000000007
21
-108.1172279999999972
0
LINE
8
BLACK
6
CONTINUOUS
10
57.7547390000000007
20
-108.1172279999999972
11
57.7547379999999961
21
-108.1172269999999997
0
LINE
8
BLACK
6
CONTINUOUS
10
57.7547379999999961
20
-108.1172269999999997
11
55.4221459999999979
21
-110.4498179999999934
0
LINE
8
BLACK
6
CONTINUOUS
10
55.4221459999999979
20
-110.4498179999999934
11
55.4221450000000004
21
-110.449821
0
LINE
8
BLACK
6
CONTINUOUS
10
55.4221450000000004
20
-110.449821
11
55.4221439999999959
21
-110.4498199999999883
0
LINE
8
BLACK
6
CONTINUOUS
10
55.4221439999999959
20
-110.4498199999999883
11
55.4221409999999963
21
-110.4498219999999975
0
LINE
8
BLACK
6
CONTINUOUS
10
55.4221409999999963
20
-110.4498219999999975
11
55.2022569999999959
21
-110.6463159999999988
0
LINE
8
BLACK
6
CONTINUOUS
10
55.2022569999999959
20
-110.6463159999999988
11
54.9617519999999971
21
-110.8169569999999879
0
LINE
8
BLACK
6
CONTINUOUS
10
54.9617519999999971
20
-110.8169569999999879
11
54.7036540000000002
21
-110.9595979999999997
0
LINE
8
BLACK
6
CONTINUOUS
10
54.7036540000000002
20
-110.9595979999999997
11
54.4312089999999955
21
-111.0724439999999902
0
LINE
8
BLACK
6
CONTINUOUS
10
54.4312089999999955
20
-111.0724439999999902
11
54.1478419999999971
21
-111.1540779999999984
0
LINE
8
BLACK
6
CONTINUOUS
10
54.1478419999999971
20
-111.1540779999999984
11
53.8571159999999978
21
-111.2034719999999908
0
LINE
8
BLACK
6
CONTINUOUS
10
53.8571159999999978
20
-111.2034719999999908
11
53.5629339999999985
21
-111.2199909999999932
0
LINE
8
BLACK
6
CONTINUOUS
10
53.5629339999999985
20
-111.2199909999999932
11
53.5626889999999989
21
-111.2200399999999973
0
LINE
8
BLACK
6
CONTINUOUS
10
53.5626889999999989
20
-111.2200399999999973
11
36.5246939999999967
21
-111.2200399999999973
0
LINE
8
BLACK
6
CONTINUOUS
10
36.5246939999999967
20
-111.2200399999999973
11
36.5246870000000001
21
-111.2200379999999882
0
LINE
8
BLACK
6
CONTINUOUS
10
36.5246870000000001
20
-111.2200379999999882
11
36.5246840000000006
21
-111.2200399999999973
0
LINE
8
BLACK
6
CONTINUOUS
10
36.5246840000000006
20
-111.2200399999999973
11
36.5246840000000006
21
-111.2200379999999882
0
LINE
8
BLACK
6
CONTINUOUS
10
36.5246840000000006
20
-111.2200379999999882
11
36.524602999999999
21
-111.2200209999999885
0
LINE
8
BLACK
6
CONTINUOUS
10
36.524602999999999
20
-111.2200209999999885
11
36.3934929999999994
21
-111.2199569999999937
0
LINE
8
BLACK
6
CONTINUOUS
10
36.3934929999999994
20
-111.2199569999999937
11
36.1332319999999996
21
-111.2532530000000008
0
LINE
8
BLACK
6
CONTINUOUS
10
36.1332319999999996
20
-111.2532530000000008
11
35.8792989999999961
21
-111.3193039999999883
0
LINE
8
BLACK
6
CONTINUOUS
10
35.8792989999999961
20
-111.3193039999999883
11
35.6357999999999961
21
-111.417041999999995
0
LINE
8
BLACK
6
CONTINUOUS
10
35.6357999999999961
20
-111.417041999999995
11
35.4066709999999958
21
-111.5448880000000003
0
LINE
8
BLACK
6
CONTINUOUS
10
35.4066709999999958
20
-111.5448880000000003
11
35.1956169999999986
21
-111.700774999999993
0
LINE
8
BLACK
6
CONTINUOUS
10
35.1956169999999986
20
-111.700774999999993
11
35.1012100000000018
21
-111.791207
0
LINE
8
BLACK
6
CONTINUOUS
10
35.1012100000000018
20
-111.791207
11
34.2750869999999992
21
-112.617330999999993
0
LINE
8
BLACK
6
CONTINUOUS
10
34.2750869999999992
20
-112.617330999999993
11
34.051715999999999
21
-112.8148439999999937
0
LINE
8
BLACK
6
CONTINUOUS
10
34.051715999999999
20
-112.8148439999999937
11
33.805847
21
-112.9835289999999901
0
LINE
8
BLACK
6
CONTINUOUS
10
33.805847
20
-112.9835289999999901
11
33.5411789999999996
21
-113.1208479999999952
0
LINE
8
BLACK
6
CONTINUOUS
10
33.5411789999999996
20
-113.1208479999999952
11
33.261690999999999
21
-113.2247359999999929
0
LINE
8
BLACK
6
CONTINUOUS
10
33.261690999999999
20
-113.2247359999999929
11
32.9715890000000016
21
-113.2936309999999906
0
LINE
8
BLACK
6
CONTINUOUS
10
32.9715890000000016
20
-113.2936309999999906
11
32.6752339999999961
21
-113.3264959999999917
0
LINE
8
BLACK
6
CONTINUOUS
10
32.6752339999999961
20
-113.3264959999999917
11
32.3770859999999985
21
-113.3228359999999952
0
LINE
8
BLACK
6
CONTINUOUS
10
32.3770859999999985
20
-113.3228359999999952
11
32.0816269999999975
21
-113.2827079999999995
0
LINE
8
BLACK
6
CONTINUOUS
10
32.0816269999999975
20
-113.2827079999999995
11
31.7933029999999981
21
-113.2067149999999884
0
LINE
8
BLACK
6
CONTINUOUS
10
31.7933029999999981
20
-113.2067149999999884
11
31.5164489999999979
21
-113.095998999999992
0
LINE
8
BLACK
6
CONTINUOUS
10
31.5164489999999979
20
-113.095998999999992
11
31.2552299999999974
21
-112.9522249999999985
0
LINE
8
BLACK
6
CONTINUOUS
10
31.2552299999999974
20
-112.9522249999999985
11
31.0135759999999969
21
-112.7775570000000016
0
LINE
8
BLACK
6
CONTINUOUS
10
31.0135759999999969
20
-112.7775570000000016
11
30.7951189999999997
21
-112.5746219999999909
0
LINE
8
BLACK
6
CONTINUOUS
10
30.7951189999999997
20
-112.5746219999999909
11
30.6031469999999999
21
-112.346470999999994
0
LINE
8
BLACK
6
CONTINUOUS
10
30.6031469999999999
20
-112.346470999999994
11
30.4405469999999987
21
-112.0965369999999979
0
LINE
8
BLACK
6
CONTINUOUS
10
30.4405469999999987
20
-112.0965369999999979
11
30.3097639999999977
21
-111.8285779999999932
0
LINE
8
BLACK
6
CONTINUOUS
10
30.3097639999999977
20
-111.8285779999999932
11
30.2127659999999985
21
-111.5466259999999892
0
LINE
8
BLACK
6
CONTINUOUS
10
30.2127659999999985
20
-111.5466259999999892
11
30.1510109999999969
21
-111.2549199999999985
0
LINE
8
BLACK
6
CONTINUOUS
10
30.1510109999999969
20
-111.2549199999999985
11
30.1254279999999994
21
-110.9578479999999985
0
LINE
8
BLACK
6
CONTINUOUS
10
30.1254279999999994
20
-110.9578479999999985
11
30.1364029999999978
21
-110.6598789999999894
0
LINE
8
BLACK
6
CONTINUOUS
10
30.1364029999999978
20
-110.6598789999999894
11
30.1837689999999981
21
-110.3654939999999982
0
LINE
8
BLACK
6
CONTINUOUS
10
30.1837689999999981
20
-110.3654939999999982
11
30.2668159999999986
21
-110.0791219999999981
0
LINE
8
BLACK
6
CONTINUOUS
10
30.2668159999999986
20
-110.0791219999999981
11
30.3842919999999985
21
-109.8050679999999915
0
LINE
8
BLACK
6
CONTINUOUS
10
30.3842919999999985
20
-109.8050679999999915
11
30.5344319999999989
21
-109.5474559999999968
0
LINE
8
BLACK
6
CONTINUOUS
10
30.5344319999999989
20
-109.5474559999999968
11
30.7149779999999986
21
-109.3101609999999937
0
LINE
8
BLACK
6
CONTINUOUS
10
30.7149779999999986
20
-109.3101609999999937
11
30.923212999999997
21
-109.0967500000000001
0
LINE
8
BLACK
6
CONTINUOUS
10
30.923212999999997
20
-109.0967500000000001
11
31.1560059999999979
21
-108.9104349999999926
0
LINE
8
BLACK
6
CONTINUOUS
10
31.1560059999999979
20
-108.9104349999999926
11
31.4098550000000003
21
-108.7540169999999904
0
LINE
8
BLACK
6
CONTINUOUS
10
31.4098550000000003
20
-108.7540169999999904
11
31.6809419999999982
21
-108.629848999999993
0
LINE
8
BLACK
6
CONTINUOUS
10
31.6809419999999982
20
-108.629848999999993
11
31.9651899999999998
21
-108.5397990000000021
0
LINE
8
BLACK
6
CONTINUOUS
10
31.9651899999999998
20
-108.5397990000000021
11
32.2583240000000018
21
-108.4852209999999957
0
LINE
8
BLACK
6
CONTINUOUS
10
32.2583240000000018
20
-108.4852209999999957
11
32.5558750000000003
21
-108.4669389999999964
0
LINE
8
BLACK
6
CONTINUOUS
10
32.5558750000000003
20
-108.4669389999999964
11
32.5559340000000006
21
-108.4669279999999958
0
LINE
8
BLACK
6
CONTINUOUS
10
32.5559340000000006
20
-108.4669279999999958
11
52.3997299999999981
21
-108.4669219999999967
0
LINE
8
BLACK
6
CONTINUOUS
10
52.3997299999999981
20
-108.4669219999999967
11
52.3997309999999956
21
-108.4669219999999967
0
LINE
8
BLACK
6
CONTINUOUS
10
52.3997309999999956
20
-108.4669219999999967
11
52.3997309999999956
21
-108.4668999999999954
0
LINE
8
BLACK
6
CONTINUOUS
10
52.3997309999999956
20
-108.4668999999999954
11
52.4659399999999962
21
-108.4668959999999913
0
LINE
8
BLACK
6
CONTINUOUS
10
52.4659399999999962
20
-108.4668959999999913
11
52.5945089999999951
21
-108.4352009999999922
0
LINE
8
BLACK
6
CONTINUOUS
10
52.5945089999999951
20
-108.4352009999999922
11
52.7117569999999986
21
-108.3736579999999918
0
LINE
8
BLACK
6
CONTINUOUS
10
52.7117569999999986
20
-108.3736579999999918
11
52.8108699999999942
21
-108.2858459999999923
0
LINE
8
BLACK
6
CONTINUOUS
10
52.8108699999999942
20
-108.2858459999999923
11
52.8860899999999958
21
-108.1768659999999898
0
LINE
8
BLACK
6
CONTINUOUS
10
52.8860899999999958
20
-108.1768659999999898
11
52.9330439999999953
21
-108.0530529999999914
0
LINE
8
BLACK
6
CONTINUOUS
10
52.9330439999999953
20
-108.0530529999999914
11
52.9490049999999997
21
-107.921599999999998
0
LINE
8
BLACK
6
CONTINUOUS
10
52.9490049999999997
20
-107.921599999999998
11
52.9330439999999953
21
-107.7901469999999904
0
LINE
8
BLACK
6
CONTINUOUS
10
52.9330439999999953
20
-107.7901469999999904
11
52.8860899999999958
21
-107.666333999999992
0
LINE
8
BLACK
6
CONTINUOUS
10
52.8860899999999958
20
-107.666333999999992
11
52.8108699999999942
21
-107.5573539999999895
0
LINE
8
BLACK
6
CONTINUOUS
10
52.8108699999999942
20
-107.5573539999999895
11
52.7117569999999986
21
-107.4695419999999899
0
LINE
8
BLACK
6
CONTINUOUS
10
52.7117569999999986
20
-107.4695419999999899
11
52.5945089999999951
21
-107.4079989999999896
0
LINE
8
BLACK
6
CONTINUOUS
10
52.5945089999999951
20
-107.4079989999999896
11
52.4659399999999962
21
-107.3763039999999904
0
LINE
8
BLACK
6
CONTINUOUS
10
52.4659399999999962
20
-107.3763039999999904
11
52.3997309999999956
21
-107.3763000000000005
0
LINE
8
BLACK
6
CONTINUOUS
10
52.3997309999999956
20
-107.3763000000000005
11
52.3703420000000008
21
-107.3667489999999987
0
LINE
8
BLACK
6
CONTINUOUS
10
52.3703420000000008
20
-107.3667489999999987
11
52.3591189999999997
21
-107.3512999999999948
0
LINE
8
BLACK
6
CONTINUOUS
10
52.3591189999999997
20
-107.3512999999999948
11
26.8232179999999971
21
-107.3514789999999977
0
LINE
8
BLACK
6
CONTINUOUS
10
26.8232179999999971
20
-107.3514789999999977
11
26.5070149999999991
21
-107.3349089999999961
0
LINE
8
BLACK
6
CONTINUOUS
10
26.5070149999999991
20
-107.3349089999999961
11
26.1942759999999986
21
-107.2853769999999969
0
LINE
8
BLACK
6
CONTINUOUS
10
26.1942759999999986
20
-107.2853769999999969
11
25.8884279999999976
21
-107.2034249999999957
0
LINE
8
BLACK
6
CONTINUOUS
10
25.8884279999999976
20
-107.2034249999999957
11
25.5928219999999982
21
-107.0899519999999967
0
LINE
8
BLACK
6
CONTINUOUS
10
25.5928219999999982
20
-107.0899519999999967
11
25.3106969999999976
21
-106.9462010000000021
0
LINE
8
BLACK
6
CONTINUOUS
10
25.3106969999999976
20
-106.9462010000000021
11
25.0451429999999995
21
-106.7737459999999885
0
LINE
8
BLACK
6
CONTINUOUS
10
25.0451429999999995
20
-106.7737459999999885
11
24.7990719999999989
21
-106.5744779999999992
0
LINE
8
BLACK
6
CONTINUOUS
10
24.7990719999999989
20
-106.5744779999999992
11
24.5751779999999975
21
-106.3505789999999962
0
LINE
8
BLACK
6
CONTINUOUS
10
24.5751779999999975
20
-106.3505789999999962
11
24.3759149999999991
21
-106.104502999999994
0
LINE
8
BLACK
6
CONTINUOUS
10
24.3759149999999991
20
-106.104502999999994
11
24.2034659999999988
21
-105.8389459999999929
0
LINE
8
BLACK
6
CONTINUOUS
10
24.2034659999999988
20
-105.8389459999999929
11
24.0597209999999997
21
-105.5568169999999952
0
LINE
8
BLACK
6
CONTINUOUS
10
24.0597209999999997
20
-105.5568169999999952
11
23.9462539999999997
21
-105.2612089999999938
0
LINE
8
BLACK
6
CONTINUOUS
10
23.9462539999999997
20
-105.2612089999999938
11
23.8643089999999987
21
-104.9553590000000014
0
LINE
8
BLACK
6
CONTINUOUS
10
23.8643089999999987
20
-104.9553590000000014
11
23.8147839999999995
21
-104.6426189999999963
0
LINE
8
BLACK
6
CONTINUOUS
10
23.8147839999999995
20
-104.6426189999999963
11
23.7982289999999992
21
-104.3265779999999978
0
LINE
8
BLACK
6
CONTINUOUS
10
23.7982289999999992
20
-104.3265779999999978
11
23.7981969999999983
21
-104.3264149999999972
0
LINE
8
BLACK
6
CONTINUOUS
10
23.7981969999999983
20
-104.3264149999999972
11
23.799671
21
-34.1264359999999982
0
LINE
8
BLACK
6
CONTINUOUS
10
23.799671
20
-34.1264359999999982
11
23.8162479999999981
21
-33.8102419999999952
0
LINE
8
BLACK
6
CONTINUOUS
10
23.8162479999999981
20
-33.8102419999999952
11
23.8657859999999999
21
-33.4975129999999979
0
LINE
8
BLACK
6
CONTINUOUS
10
23.8657859999999999
20
-33.4975129999999979
11
23.9477410000000006
21
-33.1916749999999965
0
LINE
8
BLACK
6
CONTINUOUS
10
23.9477410000000006
20
-33.1916749999999965
11
24.0612150000000007
21
-32.8960790000000003
0
LINE
8
BLACK
6
CONTINUOUS
10
24.0612150000000007
20
-32.8960790000000003
11
24.2049649999999978
21
-32.6139639999999957
0
LINE
8
BLACK
6
CONTINUOUS
10
24.2049649999999978
20
-32.6139639999999957
11
24.3774169999999977
21
-32.3484189999999998
0
LINE
8
BLACK
6
CONTINUOUS
10
24.3774169999999977
20
-32.3484189999999998
11
24.5766809999999971
21
-32.1023549999999958
0
LINE
8
BLACK
6
CONTINUOUS
10
24.5766809999999971
20
-32.1023549999999958
11
24.800573
21
-31.878466999999997
0
LINE
8
BLACK
6
CONTINUOUS
10
24.800573
20
-31.878466999999997
11
25.0466409999999975
21
-31.6792090000000002
0
LINE
8
BLACK
6
CONTINUOUS
10
25.0466409999999975
20
-31.6792090000000002
11
25.312189
21
-31.5067629999999994
0
LINE
8
BLACK
6
CONTINUOUS
10
25.312189
20
-31.5067629999999994
11
25.5943079999999981
21
-31.3630189999999978
0
LINE
8
BLACK
6
CONTINUOUS
10
25.5943079999999981
20
-31.3630189999999978
11
25.8899069999999973
21
-31.2495510000000003
0
LINE
8
BLACK
6
CONTINUOUS
10
25.8899069999999973
20
-31.2495510000000003
11
26.1957459999999998
21
-31.1676029999999997
0
LINE
8
BLACK
6
CONTINUOUS
10
26.1957459999999998
20
-31.1676029999999997
11
26.5084769999999992
21
-31.118071999999998
0
LINE
8
BLACK
6
CONTINUOUS
10
26.5084769999999992
20
-31.118071999999998
11
26.8246639999999985
21
-31.101500999999999
0
LINE
8
BLACK
6
CONTINUOUS
10
26.8246639999999985
20
-31.101500999999999
11
26.8246709999999986
21
-31.1014999999999979
0
LINE
8
BLACK
6
CONTINUOUS
10
26.8246709999999986
20
-31.1014999999999979
11
52.3591189999999997
21
-31.1014969999999984
0
LINE
8
BLACK
6
CONTINUOUS
10
52.3591189999999997
20
-31.1014969999999984
11
52.3703420000000008
21
-31.0860479999999981
0
LINE
8
BLACK
6
CONTINUOUS
10
52.3703420000000008
20
-31.0860479999999981
11
52.3997309999999956
21
-31.0764969999999998
0
LINE
8
BLACK
6
CONTINUOUS
10
52.3997309999999956
20
-31.0764969999999998
11
52.3997309999999956
21
-31.0765250000000002
0
LINE
8
BLACK
6
CONTINUOUS
10
52.3997309999999956
20
-31.0765250000000002
11
52.4659429999999958
21
-31.0765209999999996
0
LINE
8
BLACK
6
CONTINUOUS
10
52.4659429999999958
20
-31.0765209999999996
11
52.5945180000000008
21
-31.0448239999999984
0
LINE
8
BLACK
6
CONTINUOUS
10
52.5945180000000008
20
-31.0448239999999984
11
52.7117709999999988
21
-30.9832789999999996
0
LINE
8
BLACK
6
CONTINUOUS
10
52.7117709999999988
20
-30.9832789999999996
11
52.810888999999996
21
-30.8954619999999984
0
LINE
8
BLACK
6
CONTINUOUS
10
52.810888999999996
20
-30.8954619999999984
11
52.8861119999999971
21
-30.7864779999999989
0
LINE
8
BLACK
6
CONTINUOUS
10
52.8861119999999971
20
-30.7864779999999989
11
52.9330689999999962
21
-30.6626589999999979
0
LINE
8
BLACK
6
CONTINUOUS
10
52.9330689999999962
20
-30.6626589999999979
11
52.9490300000000005
21
-30.5311999999999983
0
LINE
8
BLACK
6
CONTINUOUS
10
52.9490300000000005
20
-30.5311999999999983
11
52.9330689999999962
21
-30.3997409999999988
0
LINE
8
BLACK
6
CONTINUOUS
10
52.9330689999999962
20
-30.3997409999999988
11
52.8861119999999971
21
-30.2759219999999978
0
LINE
8
BLACK
6
CONTINUOUS
10
52.8861119999999971
20
-30.2759219999999978
11
52.810888999999996
21
-30.1669379999999983
0
LINE
8
BLACK
6
CONTINUOUS
10
52.810888999999996
20
-30.1669379999999983
11
52.7117709999999988
21
-30.0791209999999971
0
LINE
8
BLACK
6
CONTINUOUS
10
52.7117709999999988
20
-30.0791209999999971
11
52.5945180000000008
21
-30.0175759999999983
0
LINE
8
BLACK
6
CONTINUOUS
10
52.5945180000000008
20
-30.0175759999999983
11
52.4659429999999958
21
-29.9858789999999971
0
LINE
8
BLACK
6
CONTINUOUS
10
52.4659429999999958
20
-29.9858789999999971
11
52.3997309999999956
21
-29.9858750000000001
0
LINE
8
BLACK
6
CONTINUOUS
10
52.3997309999999956
20
-29.9858750000000001
11
52.3997299999999981
21
-29.985873999999999
0
LINE
8
BLACK
6
CONTINUOUS
10
52.3997299999999981
20
-29.985873999999999
11
32.5559340000000006
21
-29.9858689999999974
0
LINE
8
BLACK
6
CONTINUOUS
10
32.5559340000000006
20
-29.9858689999999974
11
32.2583229999999972
21
-29.9675849999999997
0
LINE
8
BLACK
6
CONTINUOUS
10
32.2583229999999972
20
-29.9675849999999997
11
31.9651879999999977
21
-29.9130079999999978
0
LINE
8
BLACK
6
CONTINUOUS
10
31.9651879999999977
20
-29.9130079999999978
11
31.6809389999999986
21
-29.8229589999999973
0
LINE
8
BLACK
6
CONTINUOUS
10
31.6809389999999986
20
-29.8229589999999973
11
31.4098499999999987
21
-29.6987919999999974
0
LINE
8
BLACK
6
CONTINUOUS
10
31.4098499999999987
20
-29.6987919999999974
11
31.1559989999999978
21
-29.5423739999999988
0
LINE
8
BLACK
6
CONTINUOUS
10
31.1559989999999978
20
-29.5423739999999988
11
30.9232049999999994
21
-29.3560589999999983
0
LINE
8
BLACK
6
CONTINUOUS
10
30.9232049999999994
20
-29.3560589999999983
11
30.714969
21
-29.1426479999999977
0
LINE
8
BLACK
6
CONTINUOUS
10
30.714969
20
-29.1426479999999977
11
30.5344219999999993
21
-28.905351999999997
0
LINE
8
BLACK
6
CONTINUOUS
10
30.5344219999999993
20
-28.905351999999997
11
30.3842800000000004
21
-28.6477389999999978
0
LINE
8
BLACK
6
CONTINUOUS
10
30.3842800000000004
20
-28.6477389999999978
11
30.2668029999999995
21
-28.3736849999999983
0
LINE
8
BLACK
6
CONTINUOUS
10
30.2668029999999995
20
-28.3736849999999983
11
30.1837559999999989
21
-28.0873119999999972
0
LINE
8
BLACK
6
CONTINUOUS
10
30.1837559999999989
20
-28.0873119999999972
11
30.1363880000000002
21
-27.7929259999999978
0
LINE
8
BLACK
6
CONTINUOUS
10
30.1363880000000002
20
-27.7929259999999978
11
30.1254129999999982
21
-27.4949559999999984
0
LINE
8
BLACK
6
CONTINUOUS
10
30.1254129999999982
20
-27.4949559999999984
11
30.1509949999999982
21
-27.1978829999999974
0
LINE
8
BLACK
6
CONTINUOUS
10
30.1509949999999982
20
-27.1978829999999974
11
30.2127499999999998
21
-26.9061759999999985
0
LINE
8
BLACK
6
CONTINUOUS
10
30.2127499999999998
20
-26.9061759999999985
11
30.309747999999999
21
-26.6242219999999996
0
LINE
8
BLACK
6
CONTINUOUS
10
30.309747999999999
20
-26.6242219999999996
11
30.440531
21
-26.3562619999999974
0
LINE
8
BLACK
6
CONTINUOUS
10
30.440531
20
-26.3562619999999974
11
30.6031319999999987
21
-26.1063270000000003
0
LINE
8
BLACK
6
CONTINUOUS
10
30.6031319999999987
20
-26.1063270000000003
11
30.7951049999999995
21
-25.8781759999999998
0
LINE
8
BLACK
6
CONTINUOUS
10
30.7951049999999995
20
-25.8781759999999998
11
31.0135620000000003
21
-25.6752389999999977
0
LINE
8
BLACK
6
CONTINUOUS
10
31.0135620000000003
20
-25.6752389999999977
11
31.2552179999999993
21
-25.5005709999999972
0
LINE
8
BLACK
6
CONTINUOUS
10
31.2552179999999993
20
-25.5005709999999972
11
31.5164369999999998
21
-25.3567970000000003
0
LINE
8
BLACK
6
CONTINUOUS
10
31.5164369999999998
20
-25.3567970000000003
11
31.7932919999999974
21
-25.2460799999999992
0
LINE
8
BLACK
6
CONTINUOUS
10
31.7932919999999974
20
-25.2460799999999992
11
32.0816170000000014
21
-25.1700869999999988
0
LINE
8
BLACK
6
CONTINUOUS
10
32.0816170000000014
20
-25.1700869999999988
11
32.3770769999999999
21
-25.1299589999999995
0
LINE
8
BLACK
6
CONTINUOUS
10
32.3770769999999999
20
-25.1299589999999995
11
32.6752269999999996
21
-25.1263000000000005
0
LINE
8
BLACK
6
CONTINUOUS
10
32.6752269999999996
20
-25.1263000000000005
11
32.9715819999999979
21
-25.159164999999998
0
LINE
8
BLACK
6
CONTINUOUS
10
32.9715819999999979
20
-25.159164999999998
11
33.2616859999999974
21
-25.2280599999999993
0
LINE
8
BLACK
6
CONTINUOUS
10
33.2616859999999974
20
-25.2280599999999993
11
33.541173999999998
21
-25.3319489999999981
0
LINE
8
BLACK
6
CONTINUOUS
10
33.541173999999998
20
-25.3319489999999981
11
33.8058429999999959
21
-25.4692690000000006
0
LINE
8
BLACK
6
CONTINUOUS
10
33.8058429999999959
20
-25.4692690000000006
11
34.0517129999999995
21
-25.6379549999999981
0
LINE
8
BLACK
6
CONTINUOUS
10
34.0517129999999995
20
-25.6379549999999981
11
34.2750599999999963
21
-25.8354479999999995
0
LINE
8
BLACK
6
CONTINUOUS
10
34.2750599999999963
20
-25.8354479999999995
11
34.2750869999999992
21
-25.8354660000000003
0
LINE
8
BLACK
6
CONTINUOUS
10
34.2750869999999992
20
-25.8354660000000003
11
35.1008849999999981
21
-26.6612639999999992
0
LINE
8
BLACK
6
CONTINUOUS
10
35.1008849999999981
20
-26.6612639999999992
11
35.1008920000000018
21
-26.6612580000000001
0
LINE
8
BLACK
6
CONTINUOUS
10
35.1008920000000018
20
-26.6612580000000001
11
35.1956289999999967
21
-26.752008
0
LINE
8
BLACK
6
CONTINUOUS
10
35.1956289999999967
20
-26.752008
11
35.4066819999999964
21
-26.9078929999999978
0
LINE
8
BLACK
6
CONTINUOUS
10
35.4066819999999964
20
-26.9078929999999978
11
35.6358079999999973
21
-27.0357379999999985
0
LINE
8
BLACK
6
CONTINUOUS
10
35.6358079999999973
20
-27.0357379999999985
11
35.8793049999999951
21
-27.1334759999999982
0
LINE
8
BLACK
6
CONTINUOUS
10
35.8793049999999951
20
-27.1334759999999982
11
36.1332349999999991
21
-27.1995259999999988
0
LINE
8
BLACK
6
CONTINUOUS
10
36.1332349999999991
20
-27.1995259999999988
11
36.3934939999999969
21
-27.2328219999999988
0
LINE
8
BLACK
6
CONTINUOUS
10
36.3934939999999969
20
-27.2328219999999988
11
36.5246840000000006
21
-27.2327569999999994
0
LINE
8
BLACK
6
CONTINUOUS
10
36.5246840000000006
20
-27.2327569999999994
11
36.5246870000000001
21
-27.2327580000000005
0
LINE
8
BLACK
6
CONTINUOUS
10
36.5246870000000001
20
-27.2327580000000005
11
36.5246939999999967
21
-27.2327569999999994
0
LINE
8
BLACK
6
CONTINUOUS
10
36.5246939999999967
20
-27.2327569999999994
11
53.5626889999999989
21
-27.2327569999999994
0
LINE
8
BLACK
6
CONTINUOUS
10
53.5626889999999989
20
-27.2327569999999994
11
53.8571199999999948
21
-27.2492899999999985
0
LINE
8
BLACK
6
CONTINUOUS
10
53.8571199999999948
20
-27.2492899999999985
11
54.1478490000000008
21
-27.298684999999999
0
LINE
8
BLACK
6
CONTINUOUS
10
54.1478490000000008
20
-27.298684999999999
11
54.4312199999999962
21
-27.3803190000000001
0
LINE
8
BLACK
6
CONTINUOUS
10
54.4312199999999962
20
-27.3803190000000001
11
54.7036689999999979
21
-27.4931669999999997
0
LINE
8
BLACK
6
CONTINUOUS
10
54.7036689999999979
20
-27.4931669999999997
11
54.9617709999999988
21
-27.6358099999999993
0
LINE
8
BLACK
6
CONTINUOUS
10
54.9617709999999988
20
-27.6358099999999993
11
55.2022789999999972
21
-27.8064529999999976
0
LINE
8
BLACK
6
CONTINUOUS
10
55.2022789999999972
20
-27.8064529999999976
11
55.4221689999999967
21
-28.0029509999999995
0
LINE
8
BLACK
6
CONTINUOUS
10
55.4221689999999967
20
-28.0029509999999995
11
55.4221450000000004
21
-28.0029760000000003
0
LINE
8
BLACK
6
CONTINUOUS
10
55.4221450000000004
20
-28.0029760000000003
11
55.4221459999999979
21
-28.0029779999999988
0
LINE
8
BLACK
6
CONTINUOUS
10
55.4221459999999979
20
-28.0029779999999988
11
57.7547390000000007
21
-30.335569999999997
0
LINE
8
BLACK
6
CONTINUOUS
10
57.7547390000000007
20
-30.335569999999997
11
57.7547489999999968
21
-30.3355849999999982
0
LINE
8
BLACK
6
CONTINUOUS
10
57.7547489999999968
20
-30.3355849999999982
11
57.8551900000000003
21
-30.4360259999999982
0
LINE
8
BLACK
6
CONTINUOUS
10
57.8551900000000003
20
-30.4360259999999982
11
58.0773289999999989
21
-30.6131759999999993
0
LINE
8
BLACK
6
CONTINUOUS
10
58.0773289999999989
20
-30.6131759999999993
11
58.3179060000000007
21
-30.7643399999999971
0
LINE
8
BLACK
6
CONTINUOUS
10
58.3179060000000007
20
-30.7643399999999971
11
58.5738959999999977
21
-30.8876189999999973
0
LINE
8
BLACK
6
CONTINUOUS
10
58.5738959999999977
20
-30.8876189999999973
11
58.8420780000000008
21
-30.9814609999999995
0
LINE
8
BLACK
6
CONTINUOUS
10
58.8420780000000008
20
-30.9814609999999995
11
59.1190809999999942
21
-31.0446859999999987
0
LINE
8
BLACK
6
CONTINUOUS
10
59.1190809999999942
20
-31.0446859999999987
11
59.4014209999999991
21
-31.0764989999999983
0
LINE
8
BLACK
6
CONTINUOUS
10
59.4014209999999991
20
-31.0764989999999983
11
59.5434839999999994
21
-31.0764999999999993
0
LINE
8
BLACK
6
CONTINUOUS
10
59.5434839999999994
20
-31.0764999999999993
11
59.5728739999999988
21
-31.0860489999999992
0
LINE
8
BLACK
6
CONTINUOUS
10
59.5728739999999988
20
-31.0860489999999992
11
59.5840989999999948
21
-31.1014989999999969
0
LINE
8
BLACK
6
CONTINUOUS
10
59.5840989999999948
20
-31.1014989999999969
11
90.4591190000000012
21
-31.1014969999999984
0
LINE
8
BLACK
6
CONTINUOUS
10
90.4591190000000012
20
-31.1014969999999984
11
90.4703420000000023
21
-31.0860479999999981
0
LINE
8
BLACK
6
CONTINUOUS
10
90.4703420000000023
20
-31.0860479999999981
11
90.499730999999997
21
-31.0764969999999998
0
LINE
8
BLACK
6
CONTINUOUS
10
90.499730999999997
20
-31.0764969999999998
11
90.499730999999997
21
-31.0765250000000002
0
LINE
8
BLACK
6
CONTINUOUS
10
90.499730999999997
20
-31.0765250000000002
11
90.5659429999999901
21
-31.0765209999999996
0
LINE
8
BLACK
6
CONTINUOUS
10
90.5659429999999901
20
-31.0765209999999996
11
90.6945180000000022
21
-31.0448239999999984
0
LINE
8
BLACK
6
CONTINUOUS
10
90.6945180000000022
20
-31.0448239999999984
11
90.8117709999999931
21
-30.9832789999999996
0
LINE
8
BLACK
6
CONTINUOUS
10
90.8117709999999931
20
-30.9832789999999996
11
90.9108889999999974
21
-30.8954619999999984
0
LINE
8
BLACK
6
CONTINUOUS
10
90.9108889999999974
20
-30.8954619999999984
11
90.9861119999999914
21
-30.7864779999999989
0
LINE
8
BLACK
6
CONTINUOUS
10
90.9861119999999914
20
-30.7864779999999989
11
91.0330689999999976
21
-30.6626589999999979
0
LINE
8
BLACK
6
CONTINUOUS
10
91.0330689999999976
20
-30.6626589999999979
11
91.0490300000000019
21
-30.5311999999999983
0
LINE
8
BLACK
6
CONTINUOUS
10
91.0490300000000019
20
-30.5311999999999983
11
91.0330689999999976
21
-30.3997409999999988
0
LINE
8
BLACK
6
CONTINUOUS
10
91.0330689999999976
20
-30.3997409999999988
11
90.9861119999999914
21
-30.2759219999999978
0
LINE
8
BLACK
6
CONTINUOUS
10
90.9861119999999914
20
-30.2759219999999978
11
90.9108889999999974
21
-30.1669379999999983
0
LINE
8
BLACK
6
CONTINUOUS
10
90.9108889999999974
20
-30.1669379999999983
11
90.8117709999999931
21
-30.0791209999999971
0
LINE
8
BLACK
6
CONTINUOUS
10
90.8117709999999931
20
-30.0791209999999971
11
90.6945180000000022
21
-30.0175759999999983
0
LINE
8
BLACK
6
CONTINUOUS
10
90.6945180000000022
20
-30.0175759999999983
11
90.5659429999999901
21
-29.9858789999999971
0
LINE
8
BLACK
6
CONTINUOUS
10
90.5659429999999901
20
-29.9858789999999971
11
90.499730999999997
21
-29.9858750000000001
0
LINE
8
BLACK
6
CONTINUOUS
10
90.499730999999997
20
-29.9858750000000001
11
90.4997299999999996
21
-29.985873999999999
0
LINE
8
BLACK
6
CONTINUOUS
10
90.4997299999999996
20
-29.985873999999999
11
70.655934000000002
21
-29.9858689999999974
0
LINE
8
BLACK
6
CONTINUOUS
10
70.655934000000002
20
-29.9858689999999974
11
70.3583229999999986
21
-29.9675849999999997
0
LINE
8
BLACK
6
CONTINUOUS
10
70.3583229999999986
20
-29.9675849999999997
11
70.065187999999992
21
-29.9130079999999978
0
LINE
8
BLACK
6
CONTINUOUS
10
70.065187999999992
20
-29.9130079999999978
11
69.7809390000000036
21
-29.8229589999999973
0
LINE
8
BLACK
6
CONTINUOUS
10
69.7809390000000036
20
-29.8229589999999973
11
69.5098500000000001
21
-29.6987919999999974
0
LINE
8
BLACK
6
CONTINUOUS
10
69.5098500000000001
20
-29.6987919999999974
11
69.2559990000000028
21
-29.5423739999999988
0
LINE
8
BLACK
6
CONTINUOUS
10
69.2559990000000028
20
-29.5423739999999988
11
69.0232049999999902
21
-29.3560589999999983
0
LINE
8
BLACK
6
CONTINUOUS
10
69.0232049999999902
20
-29.3560589999999983
11
68.8149689999999907
21
-29.1426479999999977
0
LINE
8
BLACK
6
CONTINUOUS
10
68.8149689999999907
20
-29.1426479999999977
11
68.6344220000000007
21
-28.905351999999997
0
LINE
8
BLACK
6
CONTINUOUS
10
68.6344220000000007
20
-28.905351999999997
11
68.4842799999999983
21
-28.6477389999999978
0
LINE
8
BLACK
6
CONTINUOUS
10
68.4842799999999983
20
-28.6477389999999978
11
68.3668029999999902
21
-28.3736849999999983
0
LINE
8
BLACK
6
CONTINUOUS
10
68.3668029999999902
20
-28.3736849999999983
11
68.2837559999999968
21
-28.0873119999999972
0
LINE
8
BLACK
6
CONTINUOUS
10
68.2837559999999968
20
-28.0873119999999972
11
68.2363879999999909
21
-27.7929259999999978
0
LINE
8
BLACK
6
CONTINUOUS
10
68.2363879999999909
20
-27.7929259999999978
11
68.2254130000000032
21
-27.4949559999999984
0
LINE
8
BLACK
6
CONTINUOUS
10
68.2254130000000032
20
-27.4949559999999984
11
68.2509950000000032
21
-27.1978829999999974
0
LINE
8
BLACK
6
CONTINUOUS
10
68.2509950000000032
20
-27.1978829999999974
11
68.3127499999999941
21
-26.9061759999999985
0
LINE
8
BLACK
6
CONTINUOUS
10
68.3127499999999941
20
-26.9061759999999985
11
68.4097479999999933
21
-26.6242219999999996
0
LINE
8
BLACK
6
CONTINUOUS
10
68.4097479999999933
20
-26.6242219999999996
11
68.5405310000000014
21
-26.3562619999999974
0
LINE
8
BLACK
6
CONTINUOUS
10
68.5405310000000014
20
-26.3562619999999974
11
68.7031319999999965
21
-26.1063270000000003
0
LINE
8
BLACK
6
CONTINUOUS
10
68.7031319999999965
20
-26.1063270000000003
11
68.8951050000000009
21
-25.8781759999999998
0
LINE
8
BLACK
6
CONTINUOUS
10
68.8951050000000009
20
-25.8781759999999998
11
69.1135620000000017
21
-25.6752389999999977
0
LINE
8
BLACK
6
CONTINUOUS
10
69.1135620000000017
20
-25.6752389999999977
11
69.3552179999999936
21
-25.5005709999999972
0
LINE
8
BLACK
6
CONTINUOUS
10
69.3552179999999936
20
-25.5005709999999972
11
69.6164369999999906
21
-25.3567970000000003
0
LINE
8
BLACK
6
CONTINUOUS
10
69.6164369999999906
20
-25.3567970000000003
11
69.8932920000000024
21
-25.2460799999999992
0
LINE
8
BLACK
6
CONTINUOUS
10
69.8932920000000024
20
-25.2460799999999992
11
70.1816170000000028
21
-25.1700869999999988
0
LINE
8
BLACK
6
CONTINUOUS
10
70.1816170000000028
20
-25.1700869999999988
11
70.4770769999999942
21
-25.1299589999999995
0
LINE
8
BLACK
6
CONTINUOUS
10
70.4770769999999942
20
-25.1299589999999995
11
70.775227000000001
21
-25.1263000000000005
0
LINE
8
BLACK
6
CONTINUOUS
10
70.775227000000001
20
-25.1263000000000005
11
71.0715819999999923
21
-25.159164999999998
0
LINE
8
BLACK
6
CONTINUOUS
10
70.2729970000000037
20
-25.2503639999999976
11
69.9849490000000003
21
-25.3172069999999998
0
LINE
8
BLACK
6
CONTINUOUS
10
69.9849490000000003
20
-25.3172069999999998
11
69.7076539999999909
21
-25.4199059999999974
0
LINE
8
BLACK
6
CONTINUOUS
10
69.7076539999999909
20
-25.4199059999999974
11
69.4455549999999988
21
-25.5568150000000003
0
LINE
8
BLACK
6
CONTINUOUS
10
69.4455549999999988
20
-25.5568150000000003
11
69.2028540000000021
21
-25.7257399999999983
0
LINE
8
BLACK
6
CONTINUOUS
10
69.2028540000000021
20
-25.7257399999999983
11
68.98343899999999
21
-25.9239739999999976
0
LINE
8
BLACK
6
CONTINUOUS
10
68.98343899999999
20
-25.9239739999999976
11
68.7908259999999956
21
-26.1483409999999985
0
LINE
8
BLACK
6
CONTINUOUS
10
68.7908259999999956
20
-26.1483409999999985
11
68.6281039999999933
21
-26.3952439999999982
0
LINE
8
BLACK
6
CONTINUOUS
10
68.6281039999999933
20
-26.3952439999999982
11
68.497878
21
-26.6607269999999978
0
LINE
8
BLACK
6
CONTINUOUS
10
68.497878
20
-26.6607269999999978
11
68.4022369999999995
21
-26.940534999999997
0
LINE
8
BLACK
6
CONTINUOUS
10
68.4022369999999995
20
-26.940534999999997
11
68.3427130000000034
21
-27.2301839999999977
0
LINE
8
BLACK
6
CONTINUOUS
10
68.3427130000000034
20
-27.2301839999999977
11
68.320258999999993
21
-27.5250319999999995
0
LINE
8
BLACK
6
CONTINUOUS
10
68.320258999999993
20
-27.5250319999999995
11
68.3352369999999922
21
-27.8203549999999993
0
LINE
8
BLACK
6
CONTINUOUS
10
68.3352369999999922
20
-27.8203549999999993
11
68.3874050000000011
21
-28.1114189999999979
0
LINE
8
BLACK
6
CONTINUOUS
10
68.3874050000000011
20
-28.1114189999999979
11
68.4759269999999987
21
-28.3935599999999972
0
LINE
8
BLACK
6
CONTINUOUS
10
68.4759269999999987
20
-28.3935599999999972
11
68.5993859999999955
21
-28.6622559999999993
0
LINE
8
BLACK
6
CONTINUOUS
10
68.5993859999999955
20
-28.6622559999999993
11
68.7558020000000027
21
-28.9132019999999983
0
LINE
8
BLACK
6
CONTINUOUS
10
68.7558020000000027
20
-28.9132019999999983
11
68.9426689999999951
21
-29.1423759999999987
0
LINE
8
BLACK
6
CONTINUOUS
10
68.9426689999999951
20
-29.1423759999999987
11
69.1569920000000025
21
-29.3461040000000004
0
LINE
8
BLACK
6
CONTINUOUS
10
69.1569920000000025
20
-29.3461040000000004
11
69.3953360000000004
21
-29.5211229999999993
0
LINE
8
BLACK
6
CONTINUOUS
10
69.3953360000000004
20
-29.5211229999999993
11
69.6538829999999933
21
-29.6646279999999969
0
LINE
8
BLACK
6
CONTINUOUS
10
69.6538829999999933
20
-29.6646279999999969
11
69.9284869999999898
21
-29.7743179999999974
0
LINE
8
BLACK
6
CONTINUOUS
10
69.9284869999999898
20
-29.7743179999999974
11
70.2147499999999951
21
-29.8484359999999995
0
LINE
8
BLACK
6
CONTINUOUS
10
70.2147499999999951
20
-29.8484359999999995
11
70.5080829999999992
21
-29.8857939999999971
0
LINE
8
BLACK
6
CONTINUOUS
10
70.5080829999999992
20
-29.8857939999999971
11
70.655934000000002
21
-29.8858689999999996
0
LINE
8
BLACK
6
CONTINUOUS
10
70.655934000000002
20
-29.8858689999999996
11
90.4997339999999895
21
-29.8858749999999986
0
LINE
8
BLACK
6
CONTINUOUS
10
90.4997339999999895
20
-29.8858749999999986
11
90.4997350000000012
21
-29.8858749999999986
0
LINE
8
BLACK
6
CONTINUOUS
10
90.4997350000000012
20
-29.8858749999999986
11
90.4997369999999961
21
-29.8858749999999986
0
LINE
8
BLACK
6
CONTINUOUS
10
90.4997369999999961
20
-29.8858749999999986
11
90.6433289999999943
21
-29.9020619999999973
0
LINE
8
BLACK
6
CONTINUOUS
10
90.6433289999999943
20
-29.9020619999999973
11
90.7797199999999975
21
-29.9497939999999971
0
LINE
8
BLACK
6
CONTINUOUS
10
90.7797199999999975
20
-29.9497939999999971
11
90.9020699999999948
21
-30.0266779999999969
0
LINE
8
BLACK
6
CONTINUOUS
10
90.9020699999999948
20
-30.0266779999999969
11
91.0042449999999974
21
-30.1288589999999985
0
LINE
8
BLACK
6
CONTINUOUS
10
91.0042449999999974
20
-30.1288589999999985
11
91.0811219999999935
21
-30.2512129999999999
0
LINE
8
BLACK
6
CONTINUOUS
10
91.0811219999999935
20
-30.2512129999999999
11
91.1288469999999933
21
-30.3876069999999991
0
LINE
8
BLACK
6
CONTINUOUS
10
91.1288469999999933
20
-30.3876069999999991
11
91.1450249999999897
21
-30.5311999999999983
0
LINE
8
BLACK
6
CONTINUOUS
10
91.1450249999999897
20
-30.5311999999999983
11
91.1288469999999933
21
-30.6747929999999975
0
LINE
8
BLACK
6
CONTINUOUS
10
91.1288469999999933
20
-30.6747929999999975
11
91.0811219999999935
21
-30.8111870000000003
0
LINE
8
BLACK
6
CONTINUOUS
10
91.0811219999999935
20
-30.8111870000000003
11
91.0042449999999974
21
-30.9335409999999982
0
LINE
8
BLACK
6
CONTINUOUS
10
91.0042449999999974
20
-30.9335409999999982
11
90.9020699999999948
21
-31.0357219999999998
0
LINE
8
BLACK
6
CONTINUOUS
10
90.9020699999999948
20
-31.0357219999999998
11
90.7797199999999975
21
-31.1126059999999995
0
LINE
8
BLACK
6
CONTINUOUS
10
90.7797199999999975
20
-31.1126059999999995
11
90.6433289999999943
21
-31.1603379999999994
0
LINE
8
BLACK
6
CONTINUOUS
10
90.6433289999999943
20
-31.1603379999999994
11
90.4997369999999961
21
-31.176524999999998
0
LINE
8
BLACK
6
CONTINUOUS
10
90.4997369999999961
20
-31.176524999999998
11
90.4997369999999961
21
-31.1764969999999977
0
LINE
8
BLACK
6
CONTINUOUS
10
90.4997369999999961
20
-31.1764969999999977
11
90.4703469999999896
21
-31.1669499999999999
0
LINE
8
BLACK
6
CONTINUOUS
10
90.4703469999999896
20
-31.1669499999999999
11
90.4591179999999895
21
-31.1514969999999991
0
LINE
8
BLACK
6
CONTINUOUS
10
90.4591179999999895
20
-31.1514969999999991
11
59.5840989999999948
21
-31.1514989999999976
0
LINE
8
BLACK
6
CONTINUOUS
10
59.5840989999999948
20
-31.1514989999999976
11
59.5728729999999942
21
-31.1669509999999974
0
LINE
8
BLACK
6
CONTINUOUS
10
59.5728729999999942
20
-31.1669509999999974
11
59.5434839999999994
21
-31.1764999999999972
0
LINE
8
BLACK
6
CONTINUOUS
10
59.5434839999999994
20
-31.1764999999999972
11
59.2490539999999939
21
-31.1599639999999987
0
LINE
8
BLACK
6
CONTINUOUS
10
59.2490539999999939
20
-31.1599639999999987
11
58.958326999999997
21
-31.1105659999999986
0
LINE
8
BLACK
6
CONTINUOUS
10
58.958326999999997
20
-31.1105659999999986
11
58.6749589999999941
21
-31.028927999999997
0
LINE
8
BLACK
6
CONTINUOUS
10
58.6749589999999941
20
-31.028927999999997
11
58.402512999999999
21
-30.9160760000000003
0
LINE
8
BLACK
6
CONTINUOUS
10
58.402512999999999
20
-30.9160760000000003
11
58.1444149999999951
21
-30.7734299999999976
0
LINE
8
BLACK
6
CONTINUOUS
10
58.1444149999999951
20
-30.7734299999999976
11
57.9039110000000008
21
-30.6027839999999998
0
LINE
8
BLACK
6
CONTINUOUS
10
57.9039110000000008
20
-30.6027839999999998
11
57.6840249999999983
21
-30.4062829999999984
0
LINE
8
BLACK
6
CONTINUOUS
10
57.6840249999999983
20
-30.4062829999999984
11
57.6840270000000004
21
-30.4062799999999989
0
LINE
8
BLACK
6
CONTINUOUS
10
57.6840270000000004
20
-30.4062799999999989
11
55.3514369999999971
21
-28.0736889999999981
0
LINE
8
BLACK
6
CONTINUOUS
10
55.3514369999999971
20
-28.0736889999999981
11
55.3514349999999951
21
-28.0736879999999971
0
LINE
8
BLACK
6
CONTINUOUS
10
55.3514349999999951
20
-28.0736879999999971
11
55.3514349999999951
21
-28.0736869999999996
0
LINE
8
BLACK
6
CONTINUOUS
10
55.3514349999999951
20
-28.0736869999999996
11
55.3513359999999963
21
-28.0735390000000002
0
LINE
8
BLACK
6
CONTINUOUS
10
55.3513359999999963
20
-28.0735390000000002
11
55.2510039999999947
21
-27.9732109999999992
0
LINE
8
BLACK
6
CONTINUOUS
10
55.2510039999999947
20
-27.9732109999999992
11
55.0288599999999946
21
-27.7960639999999977
0
LINE
8
BLACK
6
CONTINUOUS
10
55.0288599999999946
20
-27.7960639999999977
11
54.7882789999999957
21
-27.6449019999999983
0
LINE
8
BLACK
6
CONTINUOUS
10
54.7882789999999957
20
-27.6449019999999983
11
54.5322859999999991
21
-27.5216269999999987
0
LINE
8
BLACK
6
CONTINUOUS
10
54.5322859999999991
20
-27.5216269999999987
11
54.2641009999999966
21
-27.4277889999999971
0
LINE
8
BLACK
6
CONTINUOUS
10
54.2641009999999966
20
-27.4277889999999971
11
53.9870960000000011
21
-27.3645669999999974
0
LINE
8
BLACK
6
CONTINUOUS
10
53.9870960000000011
20
-27.3645669999999974
11
53.7047529999999966
21
-27.3327559999999998
0
LINE
8
BLACK
6
CONTINUOUS
10
53.7047529999999966
20
-27.3327559999999998
11
53.5626889999999989
21
-27.3327569999999973
0
LINE
8
BLACK
6
CONTINUOUS
10
53.5626889999999989
20
-27.3327569999999973
11
36.5246939999999967
21
-27.3327569999999973
0
LINE
8
BLACK
6
CONTINUOUS
10
36.5246939999999967
20
-27.3327569999999973
11
36.5246870000000001
21
-27.3327549999999988
0
LINE
8
BLACK
6
CONTINUOUS
10
36.5246870000000001
20
-27.3327549999999988
11
36.5246840000000006
21
-27.3327569999999973
0
LINE
8
BLACK
6
CONTINUOUS
10
36.5246840000000006
20
-27.3327569999999973
11
36.2896579999999958
21
-27.3199269999999999
0
LINE
8
BLACK
6
CONTINUOUS
10
36.2896579999999958
20
-27.3199269999999999
11
36.057424999999995
21
-27.2815929999999973
0
LINE
8
BLACK
6
CONTINUOUS
10
36.057424999999995
20
-27.2815929999999973
11
35.8307439999999957
21
-27.2182099999999991
0
LINE
8
BLACK
6
CONTINUOUS
10
35.8307439999999957
20
-27.2182099999999991
11
35.6123079999999987
21
-27.1305319999999988
0
LINE
8
BLACK
6
CONTINUOUS
10
35.6123079999999987
20
-27.1305319999999988
11
35.404713000000001
21
-27.0195989999999995
0
LINE
8
BLACK
6
CONTINUOUS
10
35.404713000000001
20
-27.0195989999999995
11
35.2104250000000008
21
-26.8867309999999975
0
LINE
8
BLACK
6
CONTINUOUS
10
35.2104250000000008
20
-26.8867309999999975
11
35.0317530000000019
21
-26.7335059999999984
0
LINE
8
BLACK
6
CONTINUOUS
10
35.0317530000000019
20
-26.7335059999999984
11
35.0317399999999992
21
-26.7335199999999986
0
LINE
8
BLACK
6
CONTINUOUS
10
35.0317399999999992
20
-26.7335199999999986
11
35.0315359999999956
21
-26.7331419999999973
0
LINE
8
BLACK
6
CONTINUOUS
10
35.0315359999999956
20
-26.7331419999999973
11
35.0309529999999967
21
-26.7327519999999978
0
LINE
8
BLACK
6
CONTINUOUS
10
35.0309529999999967
20
-26.7327519999999978
11
34.2043770000000009
21
-25.9061759999999985
0
LINE
8
BLACK
6
CONTINUOUS
10
34.2043770000000009
20
-25.9061759999999985
11
34.2043729999999968
21
-25.9061789999999981
0
LINE
8
BLACK
6
CONTINUOUS
10
34.2043729999999968
20
-25.9061789999999981
11
34.0997739999999965
21
-25.8016860000000001
0
LINE
8
BLACK
6
CONTINUOUS
10
34.0997739999999965
20
-25.8016860000000001
11
33.8659400000000019
21
-25.6206849999999982
0
LINE
8
BLACK
6
CONTINUOUS
10
33.8659400000000019
20
-25.6206849999999982
11
33.6111119999999985
21
-25.4706759999999974
0
LINE
8
BLACK
6
CONTINUOUS
10
33.6111119999999985
20
-25.4706759999999974
11
33.3393749999999969
21
-25.3540639999999975
0
LINE
8
BLACK
6
CONTINUOUS
10
33.3393749999999969
20
-25.3540639999999975
11
33.0550819999999987
21
-25.2727170000000001
0
LINE
8
BLACK
6
CONTINUOUS
10
33.0550819999999987
20
-25.2727170000000001
11
32.7627899999999954
21
-25.2279400000000003
0
LINE
8
BLACK
6
CONTINUOUS
10
32.7627899999999954
20
-25.2279400000000003
11
32.4671820000000011
21
-25.2204489999999986
0
LINE
8
BLACK
6
CONTINUOUS
10
32.4671820000000011
20
-25.2204489999999986
11
32.1729969999999952
21
-25.2503639999999976
0
LINE
8
BLACK
6
CONTINUOUS
10
32.1729969999999952
20
-25.2503639999999976
11
31.8849489999999989
21
-25.3172069999999998
0
LINE
8
BLACK
6
CONTINUOUS
10
31.8849489999999989
20
-25.3172069999999998
11
31.6076540000000001
21
-25.4199059999999974
0
LINE
8
BLACK
6
CONTINUOUS
10
31.6076540000000001
20
-25.4199059999999974
11
31.3455549999999974
21
-25.5568150000000003
0
LINE
8
BLACK
6
CONTINUOUS
10
31.3455549999999974
20
-25.5568150000000003
11
31.1028539999999971
21
-25.7257399999999983
0
LINE
8
BLACK
6
CONTINUOUS
10
31.1028539999999971
20
-25.7257399999999983
11
30.8834389999999992
21
-25.9239739999999976
0
LINE
8
BLACK
6
CONTINUOUS
10
30.8834389999999992
20
-25.9239739999999976
11
30.6908259999999977
21
-26.1483409999999985
0
LINE
8
BLACK
6
CONTINUOUS
10
30.6908259999999977
20
-26.1483409999999985
11
30.528103999999999
21
-26.3952439999999982
0
LINE
8
BLACK
6
CONTINUOUS
10
30.528103999999999
20
-26.3952439999999982
11
30.3978779999999986
21
-26.6607269999999978
0
LINE
8
BLACK
6
CONTINUOUS
10
30.3978779999999986
20
-26.6607269999999978
11
30.3022369999999981
21
-26.940534999999997
0
LINE
8
BLACK
6
CONTINUOUS
10
30.3022369999999981
20
-26.940534999999997
11
30.2427129999999984
21
-27.2301839999999977
0
LINE
8
BLACK
6
CONTINUOUS
10
30.2427129999999984
20
-27.2301839999999977
11
30.2202589999999987
21
-27.5250319999999995
0
LINE
8
BLACK
6
CONTINUOUS
10
30.2202589999999987
20
-27.5250319999999995
11
30.2352369999999979
21
-27.8203549999999993
0
LINE
8
BLACK
6
CONTINUOUS
10
30.2352369999999979
20
-27.8203549999999993
11
30.2874049999999997
21
-28.1114189999999979
0
LINE
8
BLACK
6
CONTINUOUS
10
30.2874049999999997
20
-28.1114189999999979
11
30.3759269999999972
21
-28.3935599999999972
0
LINE
8
BLACK
6
CONTINUOUS
10
30.3759269999999972
20
-28.3935599999999972
11
30.4993859999999977
21
-28.6622559999999993
0
LINE
8
BLACK
6
CONTINUOUS
10
30.4993859999999977
20
-28.6622559999999993
11
30.6558019999999978
21
-28.9132019999999983
0
LINE
8
BLACK
6
CONTINUOUS
10
30.6558019999999978
20
-28.9132019999999983
11
30.8426689999999972
21
-29.1423759999999987
0
LINE
8
BLACK
6
CONTINUOUS
10
30.8426689999999972
20
-29.1423759999999987
11
31.0569919999999975
21
-29.3461040000000004
0
LINE
8
BLACK
6
CONTINUOUS
10
31.0569919999999975
20
-29.3461040000000004
11
31.2953359999999989
21
-29.5211229999999993
0
LINE
8
BLACK
6
CONTINUOUS
10
31.2953359999999989
20
-29.5211229999999993
11
31.553882999999999
21
-29.6646279999999969
0
LINE
8
BLACK
6
CONTINUOUS
10
31.553882999999999
20
-29.6646279999999969
11
31.8284869999999991
21
-29.7743179999999974
0
LINE
8
BLACK
6
CONTINUOUS
10
31.8284869999999991
20
-29.7743179999999974
11
32.1147500000000008
21
-29.8484359999999995
0
LINE
8
BLACK
6
CONTINUOUS
10
32.1147500000000008
20
-29.8484359999999995
11
32.4080829999999978
21
-29.8857939999999971
0
LINE
8
BLACK
6
CONTINUOUS
10
32.4080829999999978
20
-29.8857939999999971
11
32.5559340000000006
21
-29.8858689999999996
0
LINE
8
BLACK
6
CONTINUOUS
10
32.5559340000000006
20
-29.8858689999999996
11
52.3997339999999951
21
-29.8858749999999986
0
LINE
8
BLACK
6
CONTINUOUS
10
52.3997339999999951
20
-29.8858749999999986
11
52.3997349999999997
21
-29.8858749999999986
0
LINE
8
BLACK
6
CONTINUOUS
10
52.3997349999999997
20
-29.8858749999999986
11
52.3997369999999947
21
-29.8858749999999986
0
LINE
8
BLACK
6
CONTINUOUS
10
52.3997369999999947
20
-29.8858749999999986
11
52.543329
21
-29.9020619999999973
0
LINE
8
BLACK
6
CONTINUOUS
10
52.543329
20
-29.9020619999999973
11
52.6797199999999961
21
-29.9497939999999971
0
LINE
8
BLACK
6
CONTINUOUS
10
52.6797199999999961
20
-29.9497939999999971
11
52.8020700000000005
21
-30.0266779999999969
0
LINE
8
BLACK
6
CONTINUOUS
10
52.8020700000000005
20
-30.0266779999999969
11
52.904244999999996
21
-30.1288589999999985
0
LINE
8
BLACK
6
CONTINUOUS
10
52.904244999999996
20
-30.1288589999999985
11
52.9811219999999992
21
-30.2512129999999999
0
LINE
8
BLACK
6
CONTINUOUS
10
52.9811219999999992
20
-30.2512129999999999
11
53.028846999999999
21
-30.3876069999999991
0
LINE
8
BLACK
6
CONTINUOUS
10
53.028846999999999
20
-30.3876069999999991
11
53.0450249999999954
21
-30.5311999999999983
0
LINE
8
BLACK
6
CONTINUOUS
10
53.0450249999999954
20
-30.5311999999999983
11
53.028846999999999
21
-30.6747929999999975
0
LINE
8
BLACK
6
CONTINUOUS
10
53.028846999999999
20
-30.6747929999999975
11
52.9811219999999992
21
-30.8111870000000003
0
LINE
8
BLACK
6
CONTINUOUS
10
52.9811219999999992
20
-30.8111870000000003
11
52.904244999999996
21
-30.9335409999999982
0
LINE
8
BLACK
6
CONTINUOUS
10
52.904244999999996
20
-30.9335409999999982
11
52.8020700000000005
21
-31.0357219999999998
0
LINE
8
BLACK
6
CONTINUOUS
10
52.8020700000000005
20
-31.0357219999999998
11
52.6797199999999961
21
-31.1126059999999995
0
LINE
8
BLACK
6
CONTINUOUS
10
52.6797199999999961
20
-31.1126059999999995
11
52.543329
21
-31.1603379999999994
0
LINE
8
BLACK
6
CONTINUOUS
10
52.543329
20
-31.1603379999999994
11
52.3997369999999947
21
-31.176524999999998
0
LINE
8
BLACK
6
CONTINUOUS
10
52.3997369999999947
20
-31.176524999999998
11
52.3997369999999947
21
-31.1764969999999977
0
LINE
8
BLACK
6
CONTINUOUS
10
52.3997369999999947
20
-31.1764969999999977
11
52.3703469999999953
21
-31.1669499999999999
0
LINE
8
BLACK
6
CONTINUOUS
10
52.3703469999999953
20
-31.1669499999999999
11
52.3591179999999952
21
-31.1514969999999991
0
LINE
8
BLACK
6
CONTINUOUS
10
52.3591179999999952
20
-31.1514969999999991
11
26.8246709999999986
21
-31.1514999999999986
0
LINE
8
BLACK
6
CONTINUOUS
10
26.8246709999999986
20
-31.1514999999999986
11
26.8246709999999986
21
-31.1515009999999997
0
LINE
8
BLACK
6
CONTINUOUS
10
26.8246709999999986
20
-31.1515009999999997
11
26.6687599999999989
21
-31.1515009999999997
0
LINE
8
BLACK
6
CONTINUOUS
10
26.6687599999999989
20
-31.1515009999999997
11
26.3586460000000002
21
-31.1840939999999982
0
LINE
8
BLACK
6
CONTINUOUS
10
26.3586460000000002
20
-31.1840939999999982
11
26.0536379999999994
21
-31.2489249999999998
0
LINE
8
BLACK
6
CONTINUOUS
10
26.0536379999999994
20
-31.2489249999999998
11
25.7570769999999989
21
-31.3452819999999974
0
LINE
8
BLACK
6
CONTINUOUS
10
25.7570769999999989
20
-31.3452819999999974
11
25.472211999999999
21
-31.4721099999999971
0
LINE
8
BLACK
6
CONTINUOUS
10
25.472211999999999
20
-31.4721099999999971
11
25.2021649999999973
21
-31.6280189999999983
0
LINE
8
BLACK
6
CONTINUOUS
10
25.2021649999999973
20
-31.6280189999999983
11
24.9498940000000005
21
-31.8113010000000003
0
LINE
8
BLACK
6
CONTINUOUS
10
24.9498940000000005
20
-31.8113010000000003
11
24.7181630000000006
21
-32.0199479999999994
0
LINE
8
BLACK
6
CONTINUOUS
10
24.7181630000000006
20
-32.0199479999999994
11
24.5095109999999998
21
-32.2516749999999988
0
LINE
8
BLACK
6
CONTINUOUS
10
24.5095109999999998
20
-32.2516749999999988
11
24.3262229999999988
21
-32.503941999999995
0
LINE
8
BLACK
6
CONTINUOUS
10
24.3262229999999988
20
-32.503941999999995
11
24.1703089999999996
21
-32.7739860000000007
0
LINE
8
BLACK
6
CONTINUOUS
10
24.1703089999999996
20
-32.7739860000000007
11
24.0434749999999973
21
-33.0588470000000001
0
LINE
8
BLACK
6
CONTINUOUS
10
24.0434749999999973
20
-33.0588470000000001
11
23.9471109999999996
21
-33.355405999999995
0
LINE
8
BLACK
6
CONTINUOUS
10
23.9471109999999996
20
-33.355405999999995
11
23.8822739999999989
21
-33.6604129999999984
0
LINE
8
BLACK
6
CONTINUOUS
10
23.8822739999999989
20
-33.6604129999999984
11
23.8496740000000003
21
-33.9705259999999996
0
LINE
8
BLACK
6
CONTINUOUS
10
23.8496740000000003
20
-33.9705259999999996
11
23.8496709999999972
21
-34.1264359999999982
0
LINE
8
BLACK
6
CONTINUOUS
10
23.8496709999999972
20
-34.1264359999999982
11
23.8496709999999972
21
-34.1264380000000003
0
LINE
8
BLACK
6
CONTINUOUS
10
23.8496709999999972
20
-34.1264380000000003
11
23.848196999999999
21
-104.3264169999999922
0
LINE
8
BLACK
6
CONTINUOUS
10
23.848196999999999
20
-104.3264169999999922
11
23.8482209999999988
21
-104.3264169999999922
0
LINE
8
BLACK
6
CONTINUOUS
10
23.8482209999999988
20
-104.3264169999999922
11
23.8482169999999982
21
-104.4823319999999995
0
LINE
8
BLACK
6
CONTINUOUS
10
23.8482169999999982
20
-104.4823319999999995
11
23.8808039999999977
21
-104.7924560000000014
0
LINE
8
BLACK
6
CONTINUOUS
10
23.8808039999999977
20
-104.7924560000000014
11
23.9456299999999978
21
-105.0974739999999912
0
LINE
8
BLACK
6
CONTINUOUS
10
23.9456299999999978
20
-105.0974739999999912
11
24.0419850000000004
21
-105.3940449999999913
0
LINE
8
BLACK
6
CONTINUOUS
10
24.0419850000000004
20
-105.3940449999999913
11
24.1688119999999991
21
-105.6789189999999934
0
LINE
8
BLACK
6
CONTINUOUS
10
24.1688119999999991
20
-105.6789189999999934
11
24.3247229999999988
21
-105.9489749999999901
0
LINE
8
BLACK
6
CONTINUOUS
10
24.3247229999999988
20
-105.9489749999999901
11
24.5080089999999977
21
-106.2012539999999916
0
LINE
8
BLACK
6
CONTINUOUS
10
24.5080089999999977
20
-106.2012539999999916
11
24.7166619999999995
21
-106.4329919999999987
0
LINE
8
BLACK
6
CONTINUOUS
10
24.7166619999999995
20
-106.4329919999999987
11
24.9483949999999979
21
-106.6416499999999985
0
LINE
8
BLACK
6
CONTINUOUS
10
24.9483949999999979
20
-106.6416499999999985
11
25.2006699999999988
21
-106.8249409999999955
0
LINE
8
BLACK
6
CONTINUOUS
10
25.2006699999999988
20
-106.8249409999999955
11
25.4707229999999996
21
-106.9808579999999978
0
LINE
8
BLACK
6
CONTINUOUS
10
25.4707229999999996
20
-106.9808579999999978
11
25.7555939999999985
21
-107.1076920000000001
0
LINE
8
BLACK
6
CONTINUOUS
10
25.7555939999999985
20
-107.1076920000000001
11
26.0521630000000002
21
-107.2040530000000018
0
LINE
8
BLACK
6
CONTINUOUS
10
26.0521630000000002
20
-107.2040530000000018
11
26.3571799999999996
21
-107.2688859999999949
0
LINE
8
BLACK
6
CONTINUOUS
10
26.3571799999999996
20
-107.2688859999999949
11
26.6673019999999994
21
-107.301479999999998
0
LINE
8
BLACK
6
CONTINUOUS
10
26.6673019999999994
20
-107.301479999999998
11
26.8232179999999971
21
-107.3014790000000005
0
LINE
8
BLACK
6
CONTINUOUS
10
26.8232179999999971
20
-107.3014790000000005
11
52.3591179999999952
21
-107.3012999999999977
0
LINE
8
BLACK
6
CONTINUOUS
10
52.3591179999999952
20
-107.3012999999999977
11
52.3703469999999953
21
-107.2858469999999897
0
LINE
8
BLACK
6
CONTINUOUS
10
52.3703469999999953
20
-107.2858469999999897
11
52.3997369999999947
21
-107.276299999999992
0
LINE
8
BLACK
6
CONTINUOUS
10
52.3997369999999947
20
-107.276299999999992
11
52.5433239999999984
21
-107.2924859999999967
0
LINE
8
BLACK
6
CONTINUOUS
10
52.5433239999999984
20
-107.2924859999999967
11
52.6797089999999955
21
-107.3402159999999981
0
LINE
8
BLACK
6
CONTINUOUS
10
52.6797089999999955
20
-107.3402159999999981
11
52.8020539999999983
21
-107.4170969999999983
0
LINE
8
BLACK
6
CONTINUOUS
10
52.8020539999999983
20
-107.4170969999999983
11
52.9042259999999942
21
-107.5192739999999958
0
LINE
8
BLACK
6
CONTINUOUS
10
52.9042259999999942
20
-107.5192739999999958
11
52.9810999999999979
21
-107.6416239999999931
0
LINE
8
BLACK
6
CONTINUOUS
10
52.9810999999999979
20
-107.6416239999999931
11
53.0288219999999981
21
-107.7780119999999897
0
LINE
8
BLACK
6
CONTINUOUS
10
53.0288219999999981
20
-107.7780119999999897
11
53.0449999999999946
21
-107.921599999999998
0
LINE
8
BLACK
6
CONTINUOUS
10
53.0449999999999946
20
-107.921599999999998
11
53.0288219999999981
21
-108.065187999999992
0
LINE
8
BLACK
6
CONTINUOUS
10
53.0288219999999981
20
-108.065187999999992
11
52.9810999999999979
21
-108.2015759999999887
0
LINE
8
BLACK
6
CONTINUOUS
10
52.9810999999999979
20
-108.2015759999999887
11
52.9042259999999942
21
-108.3239260000000002
0
LINE
8
BLACK
6
CONTINUOUS
10
52.9042259999999942
20
-108.3239260000000002
11
52.8020539999999983
21
-108.4261029999999977
0
LINE
8
BLACK
6
CONTINUOUS
10
52.8020539999999983
20
-108.4261029999999977
11
52.6797089999999955
21
-108.5029839999999979
0
LINE
8
BLACK
6
CONTINUOUS
10
52.6797089999999955
20
-108.5029839999999979
11
52.5433239999999984
21
-108.5507139999999993
0
LINE
8
BLACK
6
CONTINUOUS
10
52.5433239999999984
20
-108.5507139999999993
11
52.3999850000000009
21
-108.5668719999999894
0
LINE
8
BLACK
6
CONTINUOUS
10
52.3999850000000009
20
-108.5668719999999894
11
52.3997369999999947
21
-108.5669209999999936
0
LINE
8
BLACK
6
CONTINUOUS
10
52.3997369999999947
20
-108.5669209999999936
11
52.3997369999999947
21
-108.566921999999991
0
LINE
8
BLACK
6
CONTINUOUS
10
52.3997369999999947
20
-108.566921999999991
11
52.3997349999999997
21
-108.5669209999999936
0
LINE
8
BLACK
6
CONTINUOUS
10
52.3997349999999997
20
-108.5669209999999936
11
52.3997339999999951
21
-108.566921999999991
0
LINE
8
BLACK
6
CONTINUOUS
10
52.3997339999999951
20
-108.566921999999991
11
32.5559340000000006
21
-108.5669279999999901
0
LINE
8
BLACK
6
CONTINUOUS
10
32.5559340000000006
20
-108.5669279999999901
11
32.5559340000000006
21
-108.5669359999999983
0
LINE
8
BLACK
6
CONTINUOUS
10
32.5559340000000006
20
-108.5669359999999983
11
32.4080839999999952
21
-108.5670109999999937
0
LINE
8
BLACK
6
CONTINUOUS
10
32.4080839999999952
20
-108.5670109999999937
11
32.1147519999999957
21
-108.6043699999999887
0
LINE
8
BLACK
6
CONTINUOUS
10
32.1147519999999957
20
-108.6043699999999887
11
31.8284909999999996
21
-108.678488999999999
0
LINE
8
BLACK
6
CONTINUOUS
10
31.8284909999999996
20
-108.678488999999999
11
31.5538869999999996
21
-108.788179999999997
0
LINE
8
BLACK
6
CONTINUOUS
10
31.5538869999999996
20
-108.788179999999997
11
31.295341999999998
21
-108.9316850000000017
0
LINE
8
BLACK
6
CONTINUOUS
10
31.295341999999998
20
-108.9316850000000017
11
31.0569989999999976
21
-109.1067039999999935
0
LINE
8
BLACK
6
CONTINUOUS
10
31.0569989999999976
20
-109.1067039999999935
11
30.8426779999999994
21
-109.3104329999999891
0
LINE
8
BLACK
6
CONTINUOUS
10
30.8426779999999994
20
-109.3104329999999891
11
30.6558119999999974
21
-109.539605999999992
0
LINE
8
BLACK
6
CONTINUOUS
10
30.6558119999999974
20
-109.539605999999992
11
30.4993969999999983
21
-109.7905509999999936
0
LINE
8
BLACK
6
CONTINUOUS
10
30.4993969999999983
20
-109.7905509999999936
11
30.3759399999999999
21
-110.0592469999999992
0
LINE
8
BLACK
6
CONTINUOUS
10
30.3759399999999999
20
-110.0592469999999992
11
30.2874179999999988
21
-110.3413869999999974
0
LINE
8
BLACK
6
CONTINUOUS
10
30.2874179999999988
20
-110.3413869999999974
11
30.2352509999999981
21
-110.6324499999999915
0
LINE
8
BLACK
6
CONTINUOUS
10
30.2352509999999981
20
-110.6324499999999915
11
30.2202739999999999
21
-110.9277719999999903
0
LINE
8
BLACK
6
CONTINUOUS
10
30.2202739999999999
20
-110.9277719999999903
11
30.2427279999999996
21
-111.2226189999999946
0
LINE
8
BLACK
6
CONTINUOUS
10
30.2427279999999996
20
-111.2226189999999946
11
30.3022530000000003
21
-111.5122669999999943
0
LINE
8
BLACK
6
CONTINUOUS
10
30.3022530000000003
20
-111.5122669999999943
11
30.3978939999999973
21
-111.7920739999999995
0
LINE
8
BLACK
6
CONTINUOUS
10
30.3978939999999973
20
-111.7920739999999995
11
30.5281190000000002
21
-112.0575549999999936
0
LINE
8
BLACK
6
CONTINUOUS
10
30.5281190000000002
20
-112.0575549999999936
11
30.6908409999999989
21
-112.3044569999999993
0
LINE
8
BLACK
6
CONTINUOUS
10
30.6908409999999989
20
-112.3044569999999993
11
30.8834529999999994
21
-112.5288229999999885
0
LINE
8
BLACK
6
CONTINUOUS
10
30.8834529999999994
20
-112.5288229999999885
11
31.1028669999999998
21
-112.7270559999999904
0
LINE
8
BLACK
6
CONTINUOUS
10
31.1028669999999998
20
-112.7270559999999904
11
31.3455680000000001
21
-112.8959809999999919
0
LINE
8
BLACK
6
CONTINUOUS
10
31.3455680000000001
20
-112.8959809999999919
11
31.6076649999999972
21
-113.0328889999999973
0
LINE
8
BLACK
6
CONTINUOUS
10
31.6076649999999972
20
-113.0328889999999973
11
31.8849599999999995
21
-113.1355879999999985
0
LINE
8
BLACK
6
CONTINUOUS
10
31.8849599999999995
20
-113.1355879999999985
11
32.1730069999999984
21
-113.20243099999999
0
LINE
8
BLACK
6
CONTINUOUS
10
32.1730069999999984
20
-113.20243099999999
11
32.4671909999999997
21
-113.2323459999999926
0
LINE
8
BLACK
6
CONTINUOUS
10
32.4671909999999997
20
-113.2323459999999926
11
32.7627969999999991
21
-113.2248559999999884
0
LINE
8
BLACK
6
CONTINUOUS
10
32.7627969999999991
20
-113.2248559999999884
11
33.0550879999999978
21
-113.1800779999999946
0
LINE
8
BLACK
6
CONTINUOUS
10
33.0550879999999978
20
-113.1800779999999946
11
33.3393799999999985
21
-113.0987319999999983
0
LINE
8
BLACK
6
CONTINUOUS
10
33.3393799999999985
20
-113.0987319999999983
11
33.6111170000000001
21
-112.9821209999999923
0
LINE
8
BLACK
6
CONTINUOUS
10
33.6111170000000001
20
-112.9821209999999923
11
33.8659439999999989
21
-112.83211399999999
0
LINE
8
BLACK
6
CONTINUOUS
10
33.8659439999999989
20
-112.83211399999999
11
34.099776999999996
21
-112.6511129999999952
0
LINE
8
BLACK
6
CONTINUOUS
10
34.099776999999996
20
-112.6511129999999952
11
34.2043759999999963
21
-112.5466199999999901
0
LINE
8
BLACK
6
CONTINUOUS
10
34.2043759999999963
20
-112.5466199999999901
11
34.2043770000000009
21
-112.5466210000000018
0
LINE
8
BLACK
6
CONTINUOUS
10
34.2043770000000009
20
-112.5466210000000018
11
35.0309529999999967
21
-111.7200449999999989
0
LINE
8
BLACK
6
CONTINUOUS
10
35.0309529999999967
20
-111.7200449999999989
11
35.0315359999999956
21
-111.7196539999999914
0
LINE
8
BLACK
6
CONTINUOUS
10
35.0315359999999956
20
-111.7196539999999914
11
35.0317399999999992
21
-111.7192769999999911
0
LINE
8
BLACK
6
CONTINUOUS
10
35.0317399999999992
20
-111.7192769999999911
11
35.2104140000000001
21
-111.5660510000000016
0
LINE
8
BLACK
6
CONTINUOUS
10
35.2104140000000001
20
-111.5660510000000016
11
35.4047039999999953
21
-111.433181999999988
0
LINE
8
BLACK
6
CONTINUOUS
10
35.4047039999999953
20
-111.433181999999988
11
35.6122999999999976
21
-111.3222489999999993
0
LINE
8
BLACK
6
CONTINUOUS
10
35.6122999999999976
20
-111.3222489999999993
11
35.8307379999999966
21
-111.2345699999999908
0
LINE
8
BLACK
6
CONTINUOUS
10
35.8307379999999966
20
-111.2345699999999908
11
36.0574209999999979
21
-111.1711869999999891
0
LINE
8
BLACK
6
CONTINUOUS
10
36.0574209999999979
20
-111.1711869999999891
11
36.2896560000000008
21
-111.1328519999999997
0
LINE
8
BLACK
6
CONTINUOUS
10
36.2896560000000008
20
-111.1328519999999997
11
36.5246840000000006
21
-111.1200219999999916
0
LINE
8
BLACK
6
CONTINUOUS
10
36.5246840000000006
20
-111.1200219999999916
11
36.5246840000000006
21
-111.1200399999999888
0
LINE
8
BLACK
6
CONTINUOUS
10
36.5246840000000006
20
-111.1200399999999888
11
36.5246870000000001
21
-111.1200410000000005
0
LINE
8
BLACK
6
CONTINUOUS
10
36.5246870000000001
20
-111.1200410000000005
11
36.5246939999999967
21
-111.1200399999999888
0
LINE
8
BLACK
6
CONTINUOUS
10
36.5246939999999967
20
-111.1200399999999888
11
53.5626889999999989
21
-111.1200399999999888
0
LINE
8
BLACK
6
CONTINUOUS
10
53.5626889999999989
20
-111.1200399999999888
11
53.5626889999999989
21
-111.1200049999999919
0
LINE
8
BLACK
6
CONTINUOUS
10
53.5626889999999989
20
-111.1200049999999919
11
53.7047509999999946
21
-111.1200059999999894
0
LINE
8
BLACK
6
CONTINUOUS
10
53.7047509999999946
20
-111.1200059999999894
11
53.9870899999999949
21
-111.0881959999999964
0
LINE
8
BLACK
6
CONTINUOUS
10
53.9870899999999949
20
-111.0881959999999964
11
54.2640910000000005
21
-111.0249749999999977
0
LINE
8
BLACK
6
CONTINUOUS
10
54.2640910000000005
20
-111.0249749999999977
11
54.5322729999999964
21
-110.9311369999999926
0
LINE
8
BLACK
6
CONTINUOUS
10
54.5322729999999964
20
-110.9311369999999926
11
54.788261999999996
21
-110.807863999999995
0
LINE
8
BLACK
6
CONTINUOUS
10
54.788261999999996
20
-110.807863999999995
11
55.0288389999999978
21
-110.6567039999999906
0
LINE
8
BLACK
6
CONTINUOUS
10
55.0288389999999978
20
-110.6567039999999906
11
55.2509799999999984
21
-110.4795599999999922
0
LINE
8
BLACK
6
CONTINUOUS
10
55.2509799999999984
20
-110.4795599999999922
11
55.3514349999999951
21
-110.379107999999988
0
LINE
8
BLACK
6
CONTINUOUS
10
55.3514349999999951
20
-110.379107999999988
11
55.3514349999999951
21
-110.3791089999999997
0
LINE
8
BLACK
6
CONTINUOUS
10
55.3514349999999951
20
-110.3791089999999997
11
55.3514369999999971
21
-110.3791069999999905
0
LINE
8
BLACK
6
CONTINUOUS
10
55.3514369999999971
20
-110.3791069999999905
11
57.6840279999999979
21
-108.0465159999999969
0
LINE
8
BLACK
6
CONTINUOUS
10
57.6840279999999979
20
-108.0465159999999969
11
57.6840319999999949
21
-108.0465129999999903
0
LINE
8
BLACK
6
CONTINUOUS
10
57.6840319999999949
20
-108.0465129999999903
11
57.9039140000000003
21
-107.850016999999994
0
LINE
8
BLACK
6
CONTINUOUS
10
57.9039140000000003
20
-107.850016999999994
11
58.1444169999999971
21
-107.6793709999999891
0
LINE
8
BLACK
6
CONTINUOUS
10
58.1444169999999971
20
-107.6793709999999891
11
58.402514999999994
21
-107.5367249999999899
0
LINE
8
BLACK
6
CONTINUOUS
10
58.402514999999994
20
-107.5367249999999899
11
58.6749599999999987
21
-107.4238739999999979
0
LINE
8
BLACK
6
CONTINUOUS
10
58.6749599999999987
20
-107.4238739999999979
11
58.9583279999999945
21
-107.3422359999999998
0
LINE
8
BLACK
6
CONTINUOUS
10
58.9583279999999945
20
-107.3422359999999998
11
59.2490539999999939
21
-107.2928379999999891
0
LINE
8
BLACK
6
CONTINUOUS
10
59.2490539999999939
20
-107.2928379999999891
11
59.5434839999999994
21
-107.2763020000000012
0
LINE
8
BLACK
6
CONTINUOUS
10
59.5434839999999994
20
-107.2763020000000012
11
59.5434839999999994
21
-107.2762969999999996
0
LINE
8
BLACK
6
CONTINUOUS
10
59.5434839999999994
20
-107.2762969999999996
11
59.5728729999999942
21
-107.2858459999999923
0
LINE
8
BLACK
6
CONTINUOUS
10
59.5728729999999942
20
-107.2858459999999923
11
59.5840989999999948
21
-107.301296999999991
0
LINE
8
BLACK
6
CONTINUOUS
10
59.5840989999999948
20
-107.301296999999991
11
90.4591179999999895
21
-107.3014989999999926
0
LINE
8
BLACK
6
CONTINUOUS
10
90.4591179999999895
20
-107.3014989999999926
11
90.4703469999999896
21
-107.2860469999999964
0
LINE
8
BLACK
6
CONTINUOUS
10
90.4703469999999896
20
-107.2860469999999964
11
90.4997369999999961
21
-107.2764999999999986
0
LINE
8
BLACK
6
CONTINUOUS
10
90.4997369999999961
20
-107.2764999999999986
11
90.6433239999999927
21
-107.2926859999999891
0
LINE
8
BLACK
6
CONTINUOUS
10
90.6433239999999927
20
-107.2926859999999891
11
90.7797089999999969
21
-107.3404159999999905
0
LINE
8
BLACK
6
CONTINUOUS
10
90.7797089999999969
20
-107.3404159999999905
11
90.9020539999999926
21
-107.4172969999999907
0
LINE
8
BLACK
6
CONTINUOUS
10
90.9020539999999926
20
-107.4172969999999907
11
91.0042260000000027
21
-107.5194739999999882
0
LINE
8
BLACK
6
CONTINUOUS
10
91.0042260000000027
20
-107.5194739999999882
11
91.0810999999999922
21
-107.6418239999999997
0
LINE
8
BLACK
6
CONTINUOUS
10
91.0810999999999922
20
-107.6418239999999997
11
91.1288219999999995
21
-107.7782119999999964
0
LINE
8
BLACK
6
CONTINUOUS
10
91.1288219999999995
20
-107.7782119999999964
11
91.144999999999996
21
-107.9217999999999904
0
LINE
8
BLACK
6
CONTINUOUS
10
91.144999999999996
20
-107.9217999999999904
11
91.1288219999999995
21
-108.0653879999999987
0
LINE
8
BLACK
6
CONTINUOUS
10
91.1288219999999995
20
-108.0653879999999987
11
91.0810999999999922
21
-108.2017759999999953
0
LINE
8
BLACK
6
CONTINUOUS
10
91.0810999999999922
20
-108.2017759999999953
11
91.0042260000000027
21
-108.3241259999999926
0
LINE
8
BLACK
6
CONTINUOUS
10
91.0042260000000027
20
-108.3241259999999926
11
90.9020539999999926
21
-108.4263029999999901
0
LINE
8
BLACK
6
CONTINUOUS
10
90.9020539999999926
20
-108.4263029999999901
11
90.7797089999999969
21
-108.5031839999999903
0
LINE
8
BLACK
6
CONTINUOUS
10
90.7797089999999969
20
-108.5031839999999903
11
90.6433239999999927
21
-108.5509139999999917
0
LINE
8
BLACK
6
CONTINUOUS
10
90.6433239999999927
20
-108.5509139999999917
11
90.4999849999999952
21
-108.567071999999996
0
LINE
8
BLACK
6
CONTINUOUS
10
90.4999849999999952
20
-108.567071999999996
11
90.4997369999999961
21
-108.5671210000000002
0
LINE
8
BLACK
6
CONTINUOUS
10
90.4997369999999961
20
-108.5671210000000002
11
90.4997369999999961
21
-108.5671219999999977
0
LINE
8
BLACK
6
CONTINUOUS
10
90.4997369999999961
20
-108.5671219999999977
11
90.4997350000000012
21
-108.5671210000000002
0
LINE
8
BLACK
6
CONTINUOUS
10
90.4997350000000012
20
-108.5671210000000002
11
90.4997339999999895
21
-108.5671219999999977
0
LINE
8
BLACK
6
CONTINUOUS
10
90.4997339999999895
20
-108.5671219999999977
11
70.655934000000002
21
-108.5671279999999967
0
LINE
8
BLACK
6
CONTINUOUS
10
70.655934000000002
20
-108.5671279999999967
11
70.655934000000002
21
-108.5671359999999908
0
LINE
8
BLACK
6
CONTINUOUS
10
70.655934000000002
20
-108.5671359999999908
11
70.5080839999999966
21
-108.5672110000000004
0
LINE
8
BLACK
6
CONTINUOUS
10
70.5080839999999966
20
-108.5672110000000004
11
70.2147519999999901
21
-108.6045699999999954
0
LINE
8
BLACK
6
CONTINUOUS
10
70.2147519999999901
20
-108.6045699999999954
11
69.928490999999994
21
-108.6786889999999914
0
LINE
8
BLACK
6
CONTINUOUS
10
69.928490999999994
20
-108.6786889999999914
11
69.6538869999999974
21
-108.7883799999999894
0
LINE
8
BLACK
6
CONTINUOUS
10
69.6538869999999974
20
-108.7883799999999894
11
69.3953419999999994
21
-108.9318849999999941
0
LINE
8
BLACK
6
CONTINUOUS
10
69.3953419999999994
20
-108.9318849999999941
11
69.156998999999999
21
-109.1069040000000001
0
LINE
8
BLACK
6
CONTINUOUS
10
69.156998999999999
20
-109.1069040000000001
11
68.9426780000000008
21
-109.3106329999999957
0
LINE
8
BLACK
6
CONTINUOUS
10
68.9426780000000008
20
-109.3106329999999957
11
68.7558119999999917
21
-109.5398059999999987
0
LINE
8
BLACK
6
CONTINUOUS
10
68.7558119999999917
20
-109.5398059999999987
11
68.5993969999999962
21
-109.7907510000000002
0
LINE
8
BLACK
6
CONTINUOUS
10
68.5993969999999962
20
-109.7907510000000002
11
68.4759399999999943
21
-110.0594469999999916
0
LINE
8
BLACK
6
CONTINUOUS
10
68.4759399999999943
20
-110.0594469999999916
11
68.3874179999999967
21
-110.3415869999999899
0
LINE
8
BLACK
6
CONTINUOUS
10
68.3874179999999967
20
-110.3415869999999899
11
68.3352509999999995
21
-110.6326499999999982
0
LINE
8
BLACK
6
CONTINUOUS
10
68.3352509999999995
20
-110.6326499999999982
11
68.3202739999999977
21
-110.9279719999999969
0
LINE
8
BLACK
6
CONTINUOUS
10
68.3202739999999977
20
-110.9279719999999969
11
68.3427279999999939
21
-111.2228190000000012
0
LINE
8
BLACK
6
CONTINUOUS
10
68.3427279999999939
20
-111.2228190000000012
11
68.4022530000000017
21
-111.5124670000000009
0
LINE
8
BLACK
6
CONTINUOUS
10
68.4022530000000017
20
-111.5124670000000009
11
68.4978940000000023
21
-111.7922739999999919
0
LINE
8
BLACK
6
CONTINUOUS
10
68.4978940000000023
20
-111.7922739999999919
11
68.6281189999999981
21
-112.0577550000000002
0
LINE
8
BLACK
6
CONTINUOUS
10
68.6281189999999981
20
-112.0577550000000002
11
68.7908410000000003
21
-112.3046569999999917
0
LINE
8
BLACK
6
CONTINUOUS
10
68.7908410000000003
20
-112.3046569999999917
11
68.9834529999999972
21
-112.5290229999999951
0
LINE
8
BLACK
6
CONTINUOUS
10
68.9834529999999972
20
-112.5290229999999951
11
69.2028669999999977
21
-112.727255999999997
0
LINE
8
BLACK
6
CONTINUOUS
10
69.2028669999999977
20
-112.727255999999997
11
69.4455679999999944
21
-112.8961809999999986
0
LINE
8
BLACK
6
CONTINUOUS
10
69.4455679999999944
20
-112.8961809999999986
11
69.7076649999999916
21
-113.0330889999999897
0
LINE
8
BLACK
6
CONTINUOUS
10
69.7076649999999916
20
-113.0330889999999897
11
69.9849600000000009
21
-113.1357879999999909
0
LINE
8
BLACK
6
CONTINUOUS
10
69.9849600000000009
20
-113.1357879999999909
11
70.2730069999999927
21
-113.2026309999999967
0
LINE
8
BLACK
6
CONTINUOUS
10
70.2730069999999927
20
-113.2026309999999967
11
70.567190999999994
21
-113.2325459999999993
0
LINE
8
BLACK
6
CONTINUOUS
10
70.567190999999994
20
-113.2325459999999993
11
70.8627970000000005
21
-113.225055999999995
0
LINE
8
BLACK
6
CONTINUOUS
10
70.8627970000000005
20
-113.225055999999995
11
71.1550879999999921
21
-113.1802780000000013
0
LINE
8
BLACK
6
CONTINUOUS
10
71.1550879999999921
20
-113.1802780000000013
11
71.4393799999999999
21
-113.0989319999999907
0
LINE
8
BLACK
6
CONTINUOUS
10
71.4393799999999999
20
-113.0989319999999907
11
71.7111170000000016
21
-112.9823209999999989
0
LINE
8
BLACK
6
CONTINUOUS
10
71.7111170000000016
20
-112.9823209999999989
11
71.9659439999999933
21
-112.8323139999999967
0
LINE
8
BLACK
6
CONTINUOUS
10
71.9659439999999933
20
-112.8323139999999967
11
72.1997769999999974
21
-112.6513130000000018
0
LINE
8
BLACK
6
CONTINUOUS
10
72.1997769999999974
20
-112.6513130000000018
11
72.3043759999999907
21
-112.5468199999999968
0
LINE
8
BLACK
6
CONTINUOUS
10
72.3043759999999907
20
-112.5468199999999968
11
72.3043770000000023
21
-112.5468209999999942
0
LINE
8
BLACK
6
CONTINUOUS
10
72.3043770000000023
20
-112.5468209999999942
11
73.130952999999991
21
-111.7202449999999914
0
LINE
8
BLACK
6
CONTINUOUS
10
73.130952999999991
20
-111.7202449999999914
11
73.131535999999997
21
-111.719853999999998
0
LINE
8
BLACK
6
CONTINUOUS
10
73.131535999999997
20
-111.719853999999998
11
73.1317399999999935
21
-111.7194769999999977
0
LINE
8
BLACK
6
CONTINUOUS
10
73.1317399999999935
20
-111.7194769999999977
11
73.3104139999999944
21
-111.5662509999999941
0
LINE
8
BLACK
6
CONTINUOUS
10
73.3104139999999944
20
-111.5662509999999941
11
73.5047039999999896
21
-111.4333819999999946
0
LINE
8
BLACK
6
CONTINUOUS
10
73.5047039999999896
20
-111.4333819999999946
11
73.712299999999999
21
-111.3224489999999918
0
LINE
8
BLACK
6
CONTINUOUS
10
73.712299999999999
20
-111.3224489999999918
11
73.930737999999991
21
-111.2347699999999975
0
LINE
8
BLACK
6
CONTINUOUS
10
73.930737999999991
20
-111.2347699999999975
11
74.1574209999999994
21
-111.1713869999999957
0
LINE
8
BLACK
6
CONTINUOUS
10
74.1574209999999994
20
-111.1713869999999957
11
74.3896560000000022
21
-111.1330519999999922
0
LINE
8
BLACK
6
CONTINUOUS
10
74.3896560000000022
20
-111.1330519999999922
11
74.624684000000002
21
-111.1202219999999983
0
LINE
8
BLACK
6
CONTINUOUS
10
74.624684000000002
20
-111.1202219999999983
11
74.624684000000002
21
-111.1202399999999955
0
LINE
8
BLACK
6
CONTINUOUS
10
74.624684000000002
20
-111.1202399999999955
11
74.6246869999999944
21
-111.1202409999999929
0
LINE
8
BLACK
6
CONTINUOUS
10
74.6246869999999944
20
-111.1202409999999929
11
74.624693999999991
21
-111.1202399999999955
0
LINE
8
BLACK
6
CONTINUOUS
10
74.624693999999991
20
-111.1202399999999955
11
91.6626890000000003
21
-111.1202399999999955
0
LINE
8
BLACK
6
CONTINUOUS
10
91.6626890000000003
20
-111.1202399999999955
11
91.6626890000000003
21
-111.1202049999999986
0
LINE
8
BLACK
6
CONTINUOUS
10
91.6626890000000003
20
-111.1202049999999986
11
91.804750999999996
21
-111.120205999999996
0
LINE
8
BLACK
6
CONTINUOUS
10
91.804750999999996
20
-111.120205999999996
11
92.0870899999999892
21
-111.0883959999999888
0
LINE
8
BLACK
6
CONTINUOUS
10
92.0870899999999892
20
-111.0883959999999888
11
92.3640910000000019
21
-111.0251749999999902
0
LINE
8
BLACK
6
CONTINUOUS
10
92.3640910000000019
20
-111.0251749999999902
11
92.6322729999999979
21
-110.9313369999999992
0
LINE
8
BLACK
6
CONTINUOUS
10
92.6322729999999979
20
-110.9313369999999992
11
92.8882619999999974
21
-110.8080640000000017
0
LINE
8
BLACK
6
CONTINUOUS
10
92.8882619999999974
20
-110.8080640000000017
11
93.1288389999999993
21
-110.6569039999999973
0
LINE
8
BLACK
6
CONTINUOUS
10
93.1288389999999993
20
-110.6569039999999973
11
93.3509799999999927
21
-110.4797599999999989
0
LINE
8
BLACK
6
CONTINUOUS
10
93.3509799999999927
20
-110.4797599999999989
11
93.4514349999999894
21
-110.3793079999999946
0
LINE
8
BLACK
6
CONTINUOUS
10
93.4514349999999894
20
-110.3793079999999946
11
93.4514349999999894
21
-110.3793089999999921
0
LINE
8
BLACK
6
CONTINUOUS
10
93.4514349999999894
20
-110.3793089999999921
11
93.4514369999999985
21
-110.3793069999999972
0
LINE
8
BLACK
6
CONTINUOUS
10
93.4514369999999985
20
-110.3793069999999972
11
95.7840279999999922
21
-108.0467159999999893
0
LINE
8
BLACK
6
CONTINUOUS
10
95.7840279999999922
20
-108.0467159999999893
11
95.7840319999999963
21
-108.0467129999999969
0
LINE
8
BLACK
6
CONTINUOUS
10
95.7840319999999963
20
-108.0467129999999969
11
96.0039139999999946
21
-107.8502170000000007
0
LINE
8
BLACK
6
CONTINUOUS
10
96.0039139999999946
20
-107.8502170000000007
11
96.2444169999999986
21
-107.6795709999999957
0
LINE
8
BLACK
6
CONTINUOUS
10
96.2444169999999986
20
-107.6795709999999957
11
96.5025150000000025
21
-107.5369249999999965
0
LINE
8
BLACK
6
CONTINUOUS
10
96.5025150000000025
20
-107.5369249999999965
11
96.774959999999993
21
-107.4240739999999903
0
LINE
8
BLACK
6
CONTINUOUS
10
96.774959999999993
20
-107.4240739999999903
11
97.0583279999999888
21
-107.3424359999999922
0
LINE
8
BLACK
6
CONTINUOUS
10
97.0583279999999888
20
-107.3424359999999922
11
97.3490539999999953
21
-107.2930379999999957
0
LINE
8
BLACK
6
CONTINUOUS
10
97.3490539999999953
20
-107.2930379999999957
11
97.6434840000000008
21
-107.2765019999999936
0
LINE
8
BLACK
6
CONTINUOUS
10
97.6434840000000008
20
-107.2765019999999936
11
97.6434840000000008
21
-107.276496999999992
0
LINE
8
BLACK
6
CONTINUOUS
10
97.6434840000000008
20
-107.276496999999992
11
97.6728729999999956
21
-107.2860459999999989
0
LINE
8
BLACK
6
CONTINUOUS
10
97.6728729999999956
20
-107.2860459999999989
11
97.6841009999999983
21
-107.3014999999999901
0
LINE
8
BLACK
6
CONTINUOUS
10
97.6841009999999983
20
-107.3014999999999901
11
140.4653689999999813
21
-107.3014999999999901
0
LINE
8
BLACK
6
CONTINUOUS
10
140.4653689999999813
20
-107.3014999999999901
11
140.4765940000000057
21
-107.2860489999999913
0
LINE
8
BLACK
6
CONTINUOUS
10
140.4765940000000057
20
-107.2860489999999913
11
140.5059839999999838
21
-107.2764999999999986
0
LINE
8
BLACK
6
CONTINUOUS
10
140.5059839999999838
20
-107.2764999999999986
11
140.8004149999999868
21
-107.2930329999999941
0
LINE
8
BLACK
6
CONTINUOUS
10
140.8004149999999868
20
-107.2930329999999941
11
141.0911439999999857
21
-107.3424279999999982
0
LINE
8
BLACK
6
CONTINUOUS
10
141.0911439999999857
20
-107.3424279999999982
11
141.3745140000000049
21
-107.4240629999999896
0
LINE
8
BLACK
6
CONTINUOUS
10
141.3745140000000049
20
-107.4240629999999896
11
141.6469629999999995
21
-107.5369120000000009
0
LINE
8
BLACK
6
CONTINUOUS
10
141.6469629999999995
20
-107.5369120000000009
11
141.9050629999999842
21
-107.6795559999999909
0
LINE
8
BLACK
6
CONTINUOUS
10
141.9050629999999842
20
-107.6795559999999909
11
142.1455699999999922
21
-107.8502009999999984
0
LINE
8
BLACK
6
CONTINUOUS
10
142.1455699999999922
20
-107.8502009999999984
11
142.3654579999999896
21
-108.0467009999999988
0
LINE
8
BLACK
6
CONTINUOUS
10
142.3654579999999896
20
-108.0467009999999988
11
142.3654400000000066
21
-108.046718999999996
0
LINE
8
BLACK
6
CONTINUOUS
10
142.3654400000000066
20
-108.046718999999996
11
142.3654410000000041
21
-108.0467209999999909
0
LINE
8
BLACK
6
CONTINUOUS
10
142.3654410000000041
20
-108.0467209999999909
11
144.6980340000000069
21
-110.3793129999999962
0
LINE
8
BLACK
6
CONTINUOUS
10
144.6980340000000069
20
-110.3793129999999962
11
144.6980700000000013
21
-110.379367000000002
0
LINE
8
BLACK
6
CONTINUOUS
10
144.6980700000000013
20
-110.379367000000002
11
144.7984789999999862
21
-110.4797739999999919
0
LINE
8
BLACK
6
CONTINUOUS
10
144.7984789999999862
20
-110.4797739999999919
11
145.0206210000000056
21
-110.6569219999999945
0
LINE
8
BLACK
6
CONTINUOUS
10
145.0206210000000056
20
-110.6569219999999945
11
145.2611990000000048
21
-110.8080849999999913
0
LINE
8
BLACK
6
CONTINUOUS
10
145.2611990000000048
20
-110.8080849999999913
11
145.5171890000000019
21
-110.9313629999999904
0
LINE
8
BLACK
6
CONTINUOUS
10
145.5171890000000019
20
-110.9313629999999904
11
145.7853719999999953
21
-111.025203999999988
0
LINE
8
BLACK
6
CONTINUOUS
10
145.7853719999999953
20
-111.025203999999988
11
146.062375000000003
21
-111.0884279999999933
0
LINE
8
BLACK
6
CONTINUOUS
10
146.062375000000003
20
-111.0884279999999933
11
146.3447160000000054
21
-111.1202419999999904
0
LINE
8
BLACK
6
CONTINUOUS
10
146.3447160000000054
20
-111.1202419999999904
11
146.4867789999999843
21
-111.1202429999999879
0
LINE
8
BLACK
6
CONTINUOUS
10
146.4867789999999843
20
-111.1202429999999879
11
163.5247739999999794
21
-111.1202429999999879
0
LINE
8
BLACK
6
CONTINUOUS
10
163.5247739999999794
20
-111.1202429999999879
11
163.5247799999999927
21
-111.1202439999999996
0
LINE
8
BLACK
6
CONTINUOUS
10
163.5247799999999927
20
-111.1202439999999996
11
163.5247839999999826
21
-111.1202429999999879
0
LINE
8
BLACK
6
CONTINUOUS
10
163.5247839999999826
20
-111.1202429999999879
11
163.7598109999999849
21
-111.1330699999999894
0
LINE
8
BLACK
6
CONTINUOUS
10
163.7598109999999849
20
-111.1330699999999894
11
163.9920459999999878
21
-111.1714009999999888
0
LINE
8
BLACK
6
CONTINUOUS
10
163.9920459999999878
20
-111.1714009999999888
11
164.2187289999999962
21
-111.2347809999999981
0
LINE
8
BLACK
6
CONTINUOUS
10
164.2187289999999962
20
-111.2347809999999981
11
164.4371669999999881
21
-111.322457
0
LINE
8
BLACK
6
CONTINUOUS
10
164.4371669999999881
20
-111.322457
11
164.6447639999999808
21
-111.4333869999999962
0
LINE
8
BLACK
6
CONTINUOUS
10
164.6447639999999808
20
-111.4333869999999962
11
164.8390550000000019
21
-111.566252999999989
0
LINE
8
BLACK
6
CONTINUOUS
10
164.8390550000000019
20
-111.566252999999989
11
165.0177300000000002
21
-111.7194769999999977
0
LINE
8
BLACK
6
CONTINUOUS
10
165.0177300000000002
20
-111.7194769999999977
11
165.0177280000000053
21
-111.7194789999999927
0
LINE
8
BLACK
6
CONTINUOUS
10
165.0177280000000053
20
-111.7194789999999927
11
165.0179310000000044
21
-111.7198579999999879
0
LINE
8
BLACK
6
CONTINUOUS
10
165.0179310000000044
20
-111.7198579999999879
11
165.0185149999999794
21
-111.720247999999998
0
LINE
8
BLACK
6
CONTINUOUS
10
165.0185149999999794
20
-111.720247999999998
11
165.8450909999999965
21
-112.5468240000000009
0
LINE
8
BLACK
6
CONTINUOUS
10
165.8450909999999965
20
-112.5468240000000009
11
165.8452489999999955
21
-112.5470609999999994
0
LINE
8
BLACK
6
CONTINUOUS
10
165.8452489999999955
20
-112.5470609999999994
11
165.9496509999999887
21
-112.6513569999999902
0
LINE
8
BLACK
6
CONTINUOUS
10
165.9496509999999887
20
-112.6513569999999902
11
166.1834869999999853
21
-112.8323579999999993
0
LINE
8
BLACK
6
CONTINUOUS
10
166.1834869999999853
20
-112.8323579999999993
11
166.4383159999999862
21
-112.982365999999999
0
LINE
8
BLACK
6
CONTINUOUS
10
166.4383159999999862
20
-112.982365999999999
11
166.7100549999999828
21
-113.0989769999999908
0
LINE
8
BLACK
6
CONTINUOUS
10
166.7100549999999828
20
-113.0989769999999908
11
166.9943489999999997
21
-113.1803230000000013
0
LINE
8
BLACK
6
CONTINUOUS
10
166.9943489999999997
20
-113.1803230000000013
11
167.2866420000000005
21
-113.2251009999999951
0
LINE
8
BLACK
6
CONTINUOUS
10
167.2866420000000005
20
-113.2251009999999951
11
167.5822509999999852
21
-113.2325909999999993
0
LINE
8
BLACK
6
CONTINUOUS
10
167.5822509999999852
20
-113.2325909999999993
11
167.876435999999984
21
-113.2026759999999967
0
LINE
8
BLACK
6
CONTINUOUS
10
167.876435999999984
20
-113.2026759999999967
11
168.1644859999999824
21
-113.135832999999991
0
LINE
8
BLACK
6
CONTINUOUS
10
168.1644859999999824
20
-113.135832999999991
11
168.4417819999999892
21
-113.0331339999999898
0
LINE
8
BLACK
6
CONTINUOUS
10
168.4417819999999892
20
-113.0331339999999898
11
168.703881999999993
21
-112.8962239999999895
0
LINE
8
BLACK
6
CONTINUOUS
10
168.703881999999993
20
-112.8962239999999895
11
168.9465840000000014
21
-112.7272989999999879
0
LINE
8
BLACK
6
CONTINUOUS
10
168.9465840000000014
20
-112.7272989999999879
11
169.1659999999999968
21
-112.5290649999999886
0
LINE
8
BLACK
6
CONTINUOUS
10
169.1659999999999968
20
-112.5290649999999886
11
169.3586139999999887
21
-112.3046980000000019
0
LINE
8
BLACK
6
CONTINUOUS
10
169.3586139999999887
20
-112.3046980000000019
11
169.5213379999999859
21
-112.0577949999999987
0
LINE
8
BLACK
6
CONTINUOUS
10
169.5213379999999859
20
-112.0577949999999987
11
169.6515650000000051
21
-111.7923119999999955
0
LINE
8
BLACK
6
CONTINUOUS
10
169.6515650000000051
20
-111.7923119999999955
11
169.747208999999998
21
-111.5125039999999927
0
LINE
8
BLACK
6
CONTINUOUS
10
169.747208999999998
20
-111.5125039999999927
11
169.8067350000000033
21
-111.2228539999999981
0
LINE
8
BLACK
6
CONTINUOUS
10
169.8067350000000033
20
-111.2228539999999981
11
169.8291899999999828
21
-110.9280049999999989
0
LINE
8
BLACK
6
CONTINUOUS
10
169.8291899999999828
20
-110.9280049999999989
11
169.8142149999999901
21
-110.6326809999999909
0
LINE
8
BLACK
6
CONTINUOUS
10
169.8142149999999901
20
-110.6326809999999909
11
169.7620499999999879
21
-110.3416160000000019
0
LINE
8
BLACK
6
CONTINUOUS
10
169.7620499999999879
20
-110.3416160000000019
11
169.673529000000002
21
-110.059472999999997
0
LINE
8
BLACK
6
CONTINUOUS
10
169.673529000000002
20
-110.059472999999997
11
169.5500729999999976
21
-109.7907749999999965
0
LINE
8
BLACK
6
CONTINUOUS
10
169.5500729999999976
20
-109.7907749999999965
11
169.3936589999999853
21
-109.5398269999999883
0
LINE
8
BLACK
6
CONTINUOUS
10
169.3936589999999853
20
-109.5398269999999883
11
169.2067940000000021
21
-109.3106499999999954
0
LINE
8
BLACK
6
CONTINUOUS
10
169.2067940000000021
20
-109.3106499999999954
11
168.9924729999999897
21
-109.1069179999999932
0
LINE
8
BLACK
6
CONTINUOUS
10
168.9924729999999897
20
-109.1069179999999932
11
168.7541300000000035
21
-108.9318959999999947
0
LINE
8
BLACK
6
CONTINUOUS
10
168.7541300000000035
20
-108.9318959999999947
11
168.4955850000000055
21
-108.7883879999999976
0
LINE
8
BLACK
6
CONTINUOUS
10
168.4955850000000055
20
-108.7883879999999976
11
168.2209799999999973
21
-108.6786929999999955
0
LINE
8
BLACK
6
CONTINUOUS
10
168.2209799999999973
20
-108.6786929999999955
11
167.9347180000000037
21
-108.6045709999999929
0
LINE
8
BLACK
6
CONTINUOUS
10
167.9347180000000037
20
-108.6045709999999929
11
167.6413849999999854
21
-108.5672079999999937
0
LINE
8
BLACK
6
CONTINUOUS
10
167.6413849999999854
20
-108.5672079999999937
11
167.4935329999999851
21
-108.5671309999999892
0
LINE
8
BLACK
6
CONTINUOUS
10
167.4935329999999851
20
-108.5671309999999892
11
167.4935319999999876
21
-108.5671299999999917
0
LINE
8
BLACK
6
CONTINUOUS
10
167.4935319999999876
20
-108.5671299999999917
11
147.6497339999999951
21
-108.5671249999999901
0
LINE
8
BLACK
6
CONTINUOUS
10
147.6497339999999951
20
-108.5671249999999901
11
147.6497300000000052
21
-108.5671239999999926
0
LINE
8
BLACK
6
CONTINUOUS
10
147.6497300000000052
20
-108.5671239999999926
11
147.5061319999999796
21
-108.5509519999999952
0
LINE
8
BLACK
6
CONTINUOUS
10
147.5061319999999796
20
-108.5509519999999952
11
147.3697279999999807
21
-108.5032289999999904
0
LINE
8
BLACK
6
CONTINUOUS
10
147.3697279999999807
20
-108.5032289999999904
11
147.2473630000000071
21
-108.4263490000000019
0
LINE
8
BLACK
6
CONTINUOUS
10
147.2473630000000071
20
-108.4263490000000019
11
147.1451739999999972
21
-108.3241659999999911
0
LINE
8
BLACK
6
CONTINUOUS
10
147.1451739999999972
20
-108.3241659999999911
11
147.068286999999998
21
-108.2018059999999906
0
LINE
8
BLACK
6
CONTINUOUS
10
147.068286999999998
20
-108.2018059999999906
11
147.0205559999999991
21
-108.0654029999999892
0
LINE
8
BLACK
6
CONTINUOUS
10
147.0205559999999991
20
-108.0654029999999892
11
147.0043749999999818
21
-107.9217999999999904
0
LINE
8
BLACK
6
CONTINUOUS
10
147.0043749999999818
20
-107.9217999999999904
11
147.0205559999999991
21
-107.7781969999999916
0
LINE
8
BLACK
6
CONTINUOUS
10
147.0205559999999991
20
-107.7781969999999916
11
147.068286999999998
21
-107.6417939999999902
0
LINE
8
BLACK
6
CONTINUOUS
10
147.068286999999998
20
-107.6417939999999902
11
147.1451739999999972
21
-107.5194339999999897
0
LINE
8
BLACK
6
CONTINUOUS
10
147.1451739999999972
20
-107.5194339999999897
11
147.2473630000000071
21
-107.4172509999999932
0
LINE
8
BLACK
6
CONTINUOUS
10
147.2473630000000071
20
-107.4172509999999932
11
147.3697279999999807
21
-107.3403709999999904
0
LINE
8
BLACK
6
CONTINUOUS
10
147.3697279999999807
20
-107.3403709999999904
11
147.5061319999999796
21
-107.2926479999999998
0
LINE
8
BLACK
6
CONTINUOUS
10
147.5061319999999796
20
-107.2926479999999998
11
147.6497369999999876
21
-107.2764749999999907
0
LINE
8
BLACK
6
CONTINUOUS
10
147.6497369999999876
20
-107.2764749999999907
11
147.6497369999999876
21
-107.2765029999999911
0
LINE
8
BLACK
6
CONTINUOUS
10
147.6497369999999876
20
-107.2765029999999911
11
147.6791259999999966
21
-107.2860539999999929
0
LINE
8
BLACK
6
CONTINUOUS
10
147.6791259999999966
20
-107.2860539999999929
11
147.6903289999999913
21
-107.3014759999999939
0
LINE
8
BLACK
6
CONTINUOUS
10
147.6903289999999913
20
-107.3014759999999939
11
178.5653679999999781
21
-107.3014989999999926
0
LINE
8
BLACK
6
CONTINUOUS
10
178.5653679999999781
20
-107.3014989999999926
11
178.5765940000000001
21
-107.2860489999999913
0
LINE
8
BLACK
6
CONTINUOUS
10
178.5765940000000001
20
-107.2860489999999913
11
178.6059839999999781
21
-107.2764999999999986
0
LINE
8
BLACK
6
CONTINUOUS
10
178.6059839999999781
20
-107.2764999999999986
11
178.9004149999999811
21
-107.2930329999999941
0
LINE
8
BLACK
6
CONTINUOUS
10
178.9004149999999811
20
-107.2930329999999941
11
179.19114399999998
21
-107.3424279999999982
0
LINE
8
BLACK
6
CONTINUOUS
10
179.19114399999998
20
-107.3424279999999982
11
179.4745139999999992
21
-107.4240629999999896
0
LINE
8
BLACK
6
CONTINUOUS
10
179.4745139999999992
20
-107.4240629999999896
11
179.7469629999999938
21
-107.5369120000000009
0
LINE
8
BLACK
6
CONTINUOUS
10
179.7469629999999938
20
-107.5369120000000009
11
180.0050629999999785
21
-107.6795559999999909
0
LINE
8
BLACK
6
CONTINUOUS
10
180.0050629999999785
20
-107.6795559999999909
11
180.2455699999999865
21
-107.8502009999999984
0
LINE
8
BLACK
6
CONTINUOUS
10
180.2455699999999865
20
-107.8502009999999984
11
180.4654579999999839
21
-108.0467009999999988
0
LINE
8
BLACK
6
CONTINUOUS
10
180.4654579999999839
20
-108.0467009999999988
11
180.465440000000001
21
-108.046718999999996
0
LINE
8
BLACK
6
CONTINUOUS
10
180.465440000000001
20
-108.046718999999996
11
180.4654409999999984
21
-108.0467209999999909
0
LINE
8
BLACK
6
CONTINUOUS
10
180.4654409999999984
20
-108.0467209999999909
11
182.7980340000000012
21
-110.3793129999999962
0
LINE
8
BLACK
6
CONTINUOUS
10
182.7980340000000012
20
-110.3793129999999962
11
182.7980699999999956
21
-110.379367000000002
0
LINE
8
BLACK
6
CONTINUOUS
10
182.7980699999999956
20
-110.379367000000002
11
182.8984789999999805
21
-110.4797739999999919
0
LINE
8
BLACK
6
CONTINUOUS
10
182.8984789999999805
20
-110.4797739999999919
11
183.1206209999999999
21
-110.6569219999999945
0
LINE
8
BLACK
6
CONTINUOUS
10
183.1206209999999999
20
-110.6569219999999945
11
183.3611989999999992
21
-110.8080849999999913
0
LINE
8
BLACK
6
CONTINUOUS
10
183.3611989999999992
20
-110.8080849999999913
11
183.6171889999999962
21
-110.9313629999999904
0
LINE
8
BLACK
6
CONTINUOUS
10
183.6171889999999962
20
-110.9313629999999904
11
183.8853719999999896
21
-111.025203999999988
0
LINE
8
BLACK
6
CONTINUOUS
10
183.8853719999999896
20
-111.025203999999988
11
184.1623749999999973
21
-111.0884279999999933
0
LINE
8
BLACK
6
CONTINUOUS
10
184.1623749999999973
20
-111.0884279999999933
11
184.4447159999999997
21
-111.1202419999999904
0
LINE
8
BLACK
6
CONTINUOUS
10
184.4447159999999997
20
-111.1202419999999904
11
184.5867789999999786
21
-111.1202429999999879
0
LINE
8
BLACK
6
CONTINUOUS
10
184.5867789999999786
20
-111.1202429999999879
11
201.6247740000000022
21
-111.1202429999999879
0
LINE
8
BLACK
6
CONTINUOUS
10
201.6247740000000022
20
-111.1202429999999879
11
201.624779999999987
21
-111.1202439999999996
0
LINE
8
BLACK
6
CONTINUOUS
10
201.624779999999987
20
-111.1202439999999996
11
201.6247839999999769
21
-111.1202429999999879
0
LINE
8
BLACK
6
CONTINUOUS
10
201.6247839999999769
20
-111.1202429999999879
11
201.8598109999999792
21
-111.1330699999999894
0
LINE
8
BLACK
6
CONTINUOUS
10
201.8598109999999792
20
-111.1330699999999894
11
202.0920459999999821
21
-111.1714009999999888
0
LINE
8
BLACK
6
CONTINUOUS
10
202.0920459999999821
20
-111.1714009999999888
11
202.3187289999999905
21
-111.2347809999999981
0
LINE
8
BLACK
6
CONTINUOUS
10
202.3187289999999905
20
-111.2347809999999981
11
202.5371669999999824
21
-111.322457
0
LINE
8
BLACK
6
CONTINUOUS
10
202.5371669999999824
20
-111.322457
11
202.7447640000000035
21
-111.4333869999999962
0
LINE
8
BLACK
6
CONTINUOUS
10
202.7447640000000035
20
-111.4333869999999962
11
202.9390549999999962
21
-111.566252999999989
0
LINE
8
BLACK
6
CONTINUOUS
10
202.9390549999999962
20
-111.566252999999989
11
203.1177299999999946
21
-111.7194769999999977
0
LINE
8
BLACK
6
CONTINUOUS
10
203.1177299999999946
20
-111.7194769999999977
11
203.1177279999999996
21
-111.7194789999999927
0
LINE
8
BLACK
6
CONTINUOUS
10
203.1177279999999996
20
-111.7194789999999927
11
203.1179309999999987
21
-111.7198579999999879
0
LINE
8
BLACK
6
CONTINUOUS
10
203.1179309999999987
20
-111.7198579999999879
11
203.1185150000000021
21
-111.720247999999998
0
LINE
8
BLACK
6
CONTINUOUS
10
203.1185150000000021
20
-111.720247999999998
11
203.9450909999999908
21
-112.5468240000000009
0
LINE
8
BLACK
6
CONTINUOUS
10
203.9450909999999908
20
-112.5468240000000009
11
203.9452489999999898
21
-112.5470609999999994
0
LINE
8
BLACK
6
CONTINUOUS
10
203.9452489999999898
20
-112.5470609999999994
11
204.049650999999983
21
-112.6513569999999902
0
LINE
8
BLACK
6
CONTINUOUS
10
204.049650999999983
20
-112.6513569999999902
11
204.2834869999999796
21
-112.8323579999999993
0
LINE
8
BLACK
6
CONTINUOUS
10
204.2834869999999796
20
-112.8323579999999993
11
204.5383159999999805
21
-112.982365999999999
0
LINE
8
BLACK
6
CONTINUOUS
10
204.5383159999999805
20
-112.982365999999999
11
204.8100549999999771
21
-113.0989769999999908
0
LINE
8
BLACK
6
CONTINUOUS
10
204.8100549999999771
20
-113.0989769999999908
11
205.094348999999994
21
-113.1803230000000013
0
LINE
8
BLACK
6
CONTINUOUS
10
205.094348999999994
20
-113.1803230000000013
11
205.3866419999999948
21
-113.2251009999999951
0
LINE
8
BLACK
6
CONTINUOUS
10
205.3866419999999948
20
-113.2251009999999951
11
205.6822509999999795
21
-113.2325909999999993
0
LINE
8
BLACK
6
CONTINUOUS
10
205.6822509999999795
20
-113.2325909999999993
11
205.9764359999999783
21
-113.2026759999999967
0
LINE
8
BLACK
6
CONTINUOUS
10
205.9764359999999783
20
-113.2026759999999967
11
206.2644859999999767
21
-113.135832999999991
0
LINE
8
BLACK
6
CONTINUOUS
10
206.2644859999999767
20
-113.135832999999991
11
206.5417819999999836
21
-113.0331339999999898
0
LINE
8
BLACK
6
CONTINUOUS
10
206.5417819999999836
20
-113.0331339999999898
11
206.8038819999999873
21
-112.8962239999999895
0
LINE
8
BLACK
6
CONTINUOUS
10
206.8038819999999873
20
-112.8962239999999895
11
207.0465839999999957
21
-112.7272989999999879
0
LINE
8
BLACK
6
CONTINUOUS
10
207.0465839999999957
20
-112.7272989999999879
11
207.2659999999999911
21
-112.5290649999999886
0
LINE
8
BLACK
6
CONTINUOUS
10
207.2659999999999911
20
-112.5290649999999886
11
207.458613999999983
21
-112.3046980000000019
0
LINE
8
BLACK
6
CONTINUOUS
10
207.458613999999983
20
-112.3046980000000019
11
207.6213379999999802
21
-112.0577949999999987
0
LINE
8
BLACK
6
CONTINUOUS
10
207.6213379999999802
20
-112.0577949999999987
11
207.7515649999999994
21
-111.7923119999999955
0
LINE
8
BLACK
6
CONTINUOUS
10
207.7515649999999994
20
-111.7923119999999955
11
207.8472089999999923
21
-111.5125039999999927
0
LINE
8
BLACK
6
CONTINUOUS
10
207.8472089999999923
20
-111.5125039999999927
11
207.9067349999999976
21
-111.2228539999999981
0
LINE
8
BLACK
6
CONTINUOUS
10
207.9067349999999976
20
-111.2228539999999981
11
207.9291899999999771
21
-110.9280049999999989
0
LINE
8
BLACK
6
CONTINUOUS
10
207.9291899999999771
20
-110.9280049999999989
11
207.9142149999999845
21
-110.6326809999999909
0
LINE
8
BLACK
6
CONTINUOUS
10
207.9142149999999845
20
-110.6326809999999909
11
207.8620499999999822
21
-110.3416160000000019
0
LINE
8
BLACK
6
CONTINUOUS
10
207.8620499999999822
20
-110.3416160000000019
11
207.7735289999999964
21
-110.059472999999997
0
LINE
8
BLACK
6
CONTINUOUS
10
207.7735289999999964
20
-110.059472999999997
11
207.6500729999999919
21
-109.7907749999999965
0
LINE
8
BLACK
6
CONTINUOUS
10
207.6500729999999919
20
-109.7907749999999965
11
207.4936589999999796
21
-109.5398269999999883
0
LINE
8
BLACK
6
CONTINUOUS
10
207.4936589999999796
20
-109.5398269999999883
11
207.3067939999999965
21
-109.3106499999999954
0
LINE
8
BLACK
6
CONTINUOUS
10
207.3067939999999965
20
-109.3106499999999954
11
207.092472999999984
21
-109.1069179999999932
0
LINE
8
BLACK
6
CONTINUOUS
10
207.092472999999984
20
-109.1069179999999932
11
206.8541299999999978
21
-108.9318959999999947
0
LINE
8
BLACK
6
CONTINUOUS
10
206.8541299999999978
20
-108.9318959999999947
11
206.5955849999999998
21
-108.7883879999999976
0
LINE
8
BLACK
6
CONTINUOUS
10
206.5955849999999998
20
-108.7883879999999976
11
206.3209799999999916
21
-108.6786929999999955
0
LINE
8
BLACK
6
CONTINUOUS
10
206.3209799999999916
20
-108.6786929999999955
11
206.034717999999998
21
-108.6045709999999929
0
LINE
8
BLACK
6
CONTINUOUS
10
206.034717999999998
20
-108.6045709999999929
11
205.7413849999999798
21
-108.5672079999999937
0
LINE
8
BLACK
6
CONTINUOUS
10
205.7413849999999798
20
-108.5672079999999937
11
205.5935329999999794
21
-108.5671309999999892
0
LINE
8
BLACK
6
CONTINUOUS
10
205.5935329999999794
20
-108.5671309999999892
11
205.593531999999982
21
-108.5671299999999917
0
LINE
8
BLACK
6
CONTINUOUS
10
205.593531999999982
20
-108.5671299999999917
11
185.7497339999999895
21
-108.5671249999999901
0
LINE
8
BLACK
6
CONTINUOUS
10
185.7497339999999895
20
-108.5671249999999901
11
185.7497299999999996
21
-108.5671239999999926
0
LINE
8
BLACK
6
CONTINUOUS
10
185.7497299999999996
20
-108.5671239999999926
11
185.6061320000000023
21
-108.5509519999999952
0
LINE
8
BLACK
6
CONTINUOUS
10
185.6061320000000023
20
-108.5509519999999952
11
185.4697280000000035
21
-108.5032289999999904
0
LINE
8
BLACK
6
CONTINUOUS
10
185.4697280000000035
20
-108.5032289999999904
11
185.3473630000000014
21
-108.4263490000000019
0
LINE
8
BLACK
6
CONTINUOUS
10
185.3473630000000014
20
-108.4263490000000019
11
185.2451739999999916
21
-108.3241659999999911
0
LINE
8
BLACK
6
CONTINUOUS
10
185.2451739999999916
20
-108.3241659999999911
11
185.1682869999999923
21
-108.2018059999999906
0
LINE
8
BLACK
6
CONTINUOUS
10
185.1682869999999923
20
-108.2018059999999906
11
185.1205559999999934
21
-108.0654029999999892
0
LINE
8
BLACK
6
CONTINUOUS
10
185.1205559999999934
20
-108.0654029999999892
11
185.1043750000000045
21
-107.9217999999999904
0
LINE
8
BLACK
6
CONTINUOUS
10
185.1043750000000045
20
-107.9217999999999904
11
185.1205559999999934
21
-107.7781969999999916
0
LINE
8
BLACK
6
CONTINUOUS
10
185.1205559999999934
20
-107.7781969999999916
11
185.1682869999999923
21
-107.6417939999999902
0
LINE
8
BLACK
6
CONTINUOUS
10
185.1682869999999923
20
-107.6417939999999902
11
185.2451739999999916
21
-107.5194339999999897
0
LINE
8
BLACK
6
CONTINUOUS
10
185.2451739999999916
20
-107.5194339999999897
11
185.3473630000000014
21
-107.4172509999999932
0
LINE
8
BLACK
6
CONTINUOUS
10
185.3473630000000014
20
-107.4172509999999932
11
185.4697280000000035
21
-107.3403709999999904
0
LINE
8
BLACK
6
CONTINUOUS
10
185.4697280000000035
20
-107.3403709999999904
11
185.6061320000000023
21
-107.2926479999999998
0
LINE
8
BLACK
6
CONTINUOUS
10
185.6061320000000023
20
-107.2926479999999998
11
185.7497369999999819
21
-107.2764749999999907
0
LINE
8
BLACK
6
CONTINUOUS
10
185.7497369999999819
20
-107.2764749999999907
11
185.7497369999999819
21
-107.2765029999999911
0
LINE
8
BLACK
6
CONTINUOUS
10
185.7497369999999819
20
-107.2765029999999911
11
185.7791259999999909
21
-107.2860539999999929
0
LINE
8
BLACK
6
CONTINUOUS
10
185.7791259999999909
20
-107.2860539999999929
11
185.790346999999997
21
-107.3014999999999901
0
LINE
8
BLACK
6
CONTINUOUS
10
185.790346999999997
20
-107.3014999999999901
11
211.3258869999999945
21
-107.3014999999999901
0
LINE
8
BLACK
6
CONTINUOUS
10
211.3258869999999945
20
-107.3014999999999901
11
211.3258869999999945
21
-107.3014869999999945
0
LINE
8
BLACK
6
CONTINUOUS
10
211.3258869999999945
20
-107.3014869999999945
11
211.4818019999999876
21
-107.301487999999992
0
LINE
8
BLACK
6
CONTINUOUS
10
211.4818019999999876
20
-107.301487999999992
11
211.7919219999999996
21
-107.2688939999999889
0
LINE
8
BLACK
6
CONTINUOUS
10
211.7919219999999996
20
-107.2688939999999889
11
212.0969369999999969
21
-107.2040609999999958
0
LINE
8
BLACK
6
CONTINUOUS
10
212.0969369999999969
20
-107.2040609999999958
11
212.3935039999999788
21
-107.1077009999999916
0
LINE
8
BLACK
6
CONTINUOUS
10
212.3935039999999788
20
-107.1077009999999916
11
212.6783739999999909
21
-106.9808689999999984
0
LINE
8
BLACK
6
CONTINUOUS
10
212.6783739999999909
20
-106.9808689999999984
11
212.9484249999999861
21
-106.8249529999999936
0
LINE
8
BLACK
6
CONTINUOUS
10
212.9484249999999861
20
-106.8249529999999936
11
213.2006999999999834
21
-106.6416639999999916
0
LINE
8
BLACK
6
CONTINUOUS
10
213.2006999999999834
20
-106.6416639999999916
11
213.4324330000000032
21
-106.4330089999999984
0
LINE
8
BLACK
6
CONTINUOUS
10
213.4324330000000032
20
-106.4330089999999984
11
213.6410850000000039
21
-106.2012730000000005
0
LINE
8
BLACK
6
CONTINUOUS
10
213.6410850000000039
20
-106.2012730000000005
11
213.8243719999999826
21
-105.9489969999999914
0
LINE
8
BLACK
6
CONTINUOUS
10
213.8243719999999826
20
-105.9489969999999914
11
213.9802839999999833
21
-105.6789440000000013
0
LINE
8
BLACK
6
CONTINUOUS
10
213.9802839999999833
20
-105.6789440000000013
11
214.1071129999999982
21
-105.3940729999999917
0
LINE
8
BLACK
6
CONTINUOUS
10
214.1071129999999982
20
-105.3940729999999917
11
214.2034699999999816
21
-105.0975049999999982
0
LINE
8
BLACK
6
CONTINUOUS
10
214.2034699999999816
20
-105.0975049999999982
11
214.2682989999999847
21
-104.7924889999999891
0
LINE
8
BLACK
6
CONTINUOUS
10
214.2682989999999847
20
-104.7924889999999891
11
214.3008899999999812
21
-104.4823679999999939
0
LINE
8
BLACK
6
CONTINUOUS
10
214.3008899999999812
20
-104.4823679999999939
11
214.3008869999999888
21
-104.3264530000000008
0
LINE
8
BLACK
6
CONTINUOUS
10
214.3008869999999888
20
-104.3264530000000008
11
214.2997809999999959
21
-34.1264529999999979
0
LINE
8
BLACK
6
CONTINUOUS
10
214.2997809999999959
20
-34.1264529999999979
11
214.2997989999999788
21
-34.1263569999999987
0
LINE
8
BLACK
6
CONTINUOUS
10
214.2997989999999788
20
-34.1263569999999987
11
214.2997979999999814
21
-33.9705409999999972
0
LINE
8
BLACK
6
CONTINUOUS
10
214.2997979999999814
20
-33.9705409999999972
11
214.2671989999999766
21
-33.6604249999999965
0
LINE
8
BLACK
6
CONTINUOUS
10
214.2671989999999766
20
-33.6604249999999965
11
214.2023619999999937
21
-33.3554159999999982
0
LINE
8
BLACK
6
CONTINUOUS
10
214.2023619999999937
20
-33.3554159999999982
11
214.1059989999999971
21
-33.0588550000000012
0
LINE
8
BLACK
6
CONTINUOUS
10
214.1059989999999971
20
-33.0588550000000012
11
213.9791649999999947
21
-32.7739899999999977
0
LINE
8
BLACK
6
CONTINUOUS
10
213.9791649999999947
20
-32.7739899999999977
11
213.8232490000000041
21
-32.5039450000000016
0
LINE
8
BLACK
6
CONTINUOUS
10
213.8232490000000041
20
-32.5039450000000016
11
213.6399609999999996
21
-32.2516749999999988
0
LINE
8
BLACK
6
CONTINUOUS
10
213.6399609999999996
20
-32.2516749999999988
11
213.4313070000000039
21
-32.0199470000000019
0
LINE
8
BLACK
6
CONTINUOUS
10
213.4313070000000039
20
-32.0199470000000019
11
213.1995739999999842
21
-31.8112979999999972
0
LINE
8
BLACK
6
CONTINUOUS
10
213.1995739999999842
20
-31.8112979999999972
11
212.9473009999999817
21
-31.6280149999999978
0
LINE
8
BLACK
6
CONTINUOUS
10
212.9473009999999817
20
-31.6280149999999978
11
212.6772509999999841
21
-31.4721049999999991
0
LINE
8
BLACK
6
CONTINUOUS
10
212.6772509999999841
20
-31.4721049999999991
11
212.3923839999999927
21
-31.3452769999999994
0
LINE
8
BLACK
6
CONTINUOUS
10
212.3923839999999927
20
-31.3452769999999994
11
212.0958210000000008
21
-31.2489209999999993
0
LINE
8
BLACK
6
CONTINUOUS
10
212.0958210000000008
20
-31.2489209999999993
11
211.7908099999999934
21
-31.1840909999999987
0
LINE
8
BLACK
6
CONTINUOUS
10
211.7908099999999934
20
-31.1840909999999987
11
211.4806930000000023
21
-31.1514989999999976
0
LINE
8
BLACK
6
CONTINUOUS
10
211.4806930000000023
20
-31.1514989999999976
11
211.3247810000000015
21
-31.1514999999999986
0
LINE
8
BLACK
6
CONTINUOUS
10
211.3247810000000015
20
-31.1514999999999986
11
185.790348999999992
21
-31.1514999999999986
0
LINE
8
BLACK
6
CONTINUOUS
10
185.790348999999992
20
-31.1514999999999986
11
185.7791259999999909
21
-31.1669489999999989
0
LINE
8
BLACK
6
CONTINUOUS
10
185.7791259999999909
20
-31.1669489999999989
11
185.7497369999999819
21
-31.1764999999999972
0
LINE
8
BLACK
6
CONTINUOUS
10
185.7497369999999819
20
-31.1764999999999972
11
185.6061379999999872
21
-31.1603279999999998
0
LINE
8
BLACK
6
CONTINUOUS
10
185.6061379999999872
20
-31.1603279999999998
11
185.4697390000000041
21
-31.112606999999997
0
LINE
8
BLACK
6
CONTINUOUS
10
185.4697390000000041
20
-31.112606999999997
11
185.347377999999992
21
-31.0357289999999999
0
LINE
8
BLACK
6
CONTINUOUS
10
185.347377999999992
20
-31.0357289999999999
11
185.2451939999999979
21
-30.9335500000000003
0
LINE
8
BLACK
6
CONTINUOUS
10
185.2451939999999979
20
-30.9335500000000003
11
185.1683089999999936
21
-30.8111949999999979
0
LINE
8
BLACK
6
CONTINUOUS
10
185.1683089999999936
20
-30.8111949999999979
11
185.1205799999999897
21
-30.6747979999999991
0
LINE
8
BLACK
6
CONTINUOUS
10
185.1205799999999897
20
-30.6747979999999991
11
185.1043999999999983
21
-30.5311999999999983
0
LINE
8
BLACK
6
CONTINUOUS
10
185.1043999999999983
20
-30.5311999999999983
11
185.1205799999999897
21
-30.3876019999999976
0
LINE
8
BLACK
6
CONTINUOUS
10
185.1205799999999897
20
-30.3876019999999976
11
185.1683089999999936
21
-30.2512049999999988
0
LINE
8
BLACK
6
CONTINUOUS
10
185.1683089999999936
20
-30.2512049999999988
11
185.2451939999999979
21
-30.1288499999999999
0
LINE
8
BLACK
6
CONTINUOUS
10
185.2451939999999979
20
-30.1288499999999999
11
185.347377999999992
21
-30.0266710000000003
0
LINE
8
BLACK
6
CONTINUOUS
10
185.347377999999992
20
-30.0266710000000003
11
185.4697390000000041
21
-29.9497929999999997
0
LINE
8
BLACK
6
CONTINUOUS
10
185.4697390000000041
20
-29.9497929999999997
11
185.6061379999999872
21
-29.9020719999999969
0
LINE
8
BLACK
6
CONTINUOUS
10
185.6061379999999872
20
-29.9020719999999969
11
185.7494749999999897
21
-29.8859289999999973
0
LINE
8
BLACK
6
CONTINUOUS
10
185.7494749999999897
20
-29.8859289999999973
11
185.7497339999999895
21
-29.8858779999999982
0
LINE
8
BLACK
6
CONTINUOUS
10
185.7497339999999895
20
-29.8858779999999982
11
205.593531999999982
21
-29.8858719999999991
0
LINE
8
BLACK
6
CONTINUOUS
10
205.593531999999982
20
-29.8858719999999991
11
205.5935329999999794
21
-29.8858719999999991
0
LINE
8
BLACK
6
CONTINUOUS
10
205.5935329999999794
20
-29.8858719999999991
11
205.5935329999999794
21
-29.8858099999999993
0
LINE
8
BLACK
6
CONTINUOUS
10
205.5935329999999794
20
-29.8858099999999993
11
205.7413809999999899
21
-29.8857329999999983
0
LINE
8
BLACK
6
CONTINUOUS
10
205.7413809999999899
20
-29.8857329999999983
11
206.0347069999999974
21
-29.8483710000000002
0
LINE
8
BLACK
6
CONTINUOUS
10
206.0347069999999974
20
-29.8483710000000002
11
206.3209619999999802
21
-29.7742509999999996
0
LINE
8
BLACK
6
CONTINUOUS
10
206.3209619999999802
20
-29.7742509999999996
11
206.5955599999999777
21
-29.664558999999997
0
LINE
8
BLACK
6
CONTINUOUS
10
206.5955599999999777
20
-29.664558999999997
11
206.8540979999999934
21
-29.5210539999999995
0
LINE
8
BLACK
6
CONTINUOUS
10
206.8540979999999934
20
-29.5210539999999995
11
207.0924349999999947
21
-29.346035999999998
0
LINE
8
BLACK
6
CONTINUOUS
10
207.0924349999999947
20
-29.346035999999998
11
207.3067509999999913
21
-29.1423089999999974
0
LINE
8
BLACK
6
CONTINUOUS
10
207.3067509999999913
20
-29.1423089999999974
11
207.4936109999999871
21
-28.913138
0
LINE
8
BLACK
6
CONTINUOUS
10
207.4936109999999871
20
-28.913138
11
207.6500209999999811
21
-28.662196999999999
0
LINE
8
BLACK
6
CONTINUOUS
10
207.6500209999999811
20
-28.662196999999999
11
207.7734749999999906
21
-28.3935049999999976
0
LINE
8
BLACK
6
CONTINUOUS
10
207.7734749999999906
20
-28.3935049999999976
11
207.861992999999984
21
-28.1113689999999998
0
LINE
8
BLACK
6
CONTINUOUS
10
207.861992999999984
20
-28.1113689999999998
11
207.9141569999999888
21
-27.8203110000000002
0
LINE
8
BLACK
6
CONTINUOUS
10
207.9141569999999888
20
-27.8203110000000002
11
207.9291309999999839
21
-27.524994999999997
0
LINE
8
BLACK
6
CONTINUOUS
10
207.9291309999999839
20
-27.524994999999997
11
207.9066760000000045
21
-27.2301529999999978
0
LINE
8
BLACK
6
CONTINUOUS
10
207.9066760000000045
20
-27.2301529999999978
11
207.8471509999999967
21
-26.9405109999999972
0
LINE
8
BLACK
6
CONTINUOUS
10
207.8471509999999967
20
-26.9405109999999972
11
207.7515109999999936
21
-26.6607089999999971
0
LINE
8
BLACK
6
CONTINUOUS
10
207.7515109999999936
20
-26.6607089999999971
11
207.6212869999999953
21
-26.3952329999999975
0
LINE
8
BLACK
6
CONTINUOUS
10
207.6212869999999953
20
-26.3952329999999975
11
207.4585659999999905
21
-26.1483360000000005
0
LINE
8
BLACK
6
CONTINUOUS
10
207.4585659999999905
20
-26.1483360000000005
11
207.265956999999986
21
-25.9239749999999987
0
LINE
8
BLACK
6
CONTINUOUS
10
207.265956999999986
20
-25.9239749999999987
11
207.046545999999978
21
-25.7257459999999973
0
LINE
8
BLACK
6
CONTINUOUS
10
207.046545999999978
20
-25.7257459999999973
11
206.8038499999999829
21
-25.5568249999999999
0
LINE
8
BLACK
6
CONTINUOUS
10
206.8038499999999829
20
-25.5568249999999999
11
206.5417569999999898
21
-25.4199199999999976
0
LINE
8
BLACK
6
CONTINUOUS
10
206.5417569999999898
20
-25.4199199999999976
11
206.2644669999999962
21
-25.3172239999999995
0
LINE
8
BLACK
6
CONTINUOUS
10
206.2644669999999962
20
-25.3172239999999995
11
205.9764249999999777
21
-25.2503819999999983
0
LINE
8
BLACK
6
CONTINUOUS
10
205.9764249999999777
20
-25.2503819999999983
11
205.6822469999999896
21
-25.2204680000000003
0
LINE
8
BLACK
6
CONTINUOUS
10
205.6822469999999896
20
-25.2204680000000003
11
205.3866459999999847
21
-25.2279579999999974
0
LINE
8
BLACK
6
CONTINUOUS
10
205.3866459999999847
20
-25.2279579999999974
11
205.0943599999999947
21
-25.2727349999999973
0
LINE
8
BLACK
6
CONTINUOUS
10
205.0943599999999947
20
-25.2727349999999973
11
204.8100729999999885
21
-25.3540789999999987
0
LINE
8
BLACK
6
CONTINUOUS
10
204.8100729999999885
20
-25.3540789999999987
11
204.5383410000000026
21
-25.4706879999999991
0
LINE
8
BLACK
6
CONTINUOUS
10
204.5383410000000026
20
-25.4706879999999991
11
204.2835179999999866
21
-25.6206919999999982
0
LINE
8
BLACK
6
CONTINUOUS
10
204.2835179999999866
20
-25.6206919999999982
11
204.0496890000000008
21
-25.8016889999999997
0
LINE
8
BLACK
6
CONTINUOUS
10
204.0496890000000008
20
-25.8016889999999997
11
203.9450909999999908
21
-25.9061799999999991
0
LINE
8
BLACK
6
CONTINUOUS
10
203.9450909999999908
20
-25.9061799999999991
11
203.9450909999999908
21
-25.9061789999999981
0
LINE
8
BLACK
6
CONTINUOUS
10
203.9450909999999908
20
-25.9061789999999981
11
203.1185150000000021
21
-26.7327549999999974
0
LINE
8
BLACK
6
CONTINUOUS
10
203.1185150000000021
20
-26.7327549999999974
11
203.1179309999999987
21
-26.7331439999999994
0
LINE
8
BLACK
6
CONTINUOUS
10
203.1179309999999987
20
-26.7331439999999994
11
203.1177279999999996
21
-26.7335239999999992
0
LINE
8
BLACK
6
CONTINUOUS
10
203.1177279999999996
20
-26.7335239999999992
11
202.9390530000000012
21
-26.8867469999999997
0
LINE
8
BLACK
6
CONTINUOUS
10
202.9390530000000012
20
-26.8867469999999997
11
202.7447629999999776
21
-27.0196129999999997
0
LINE
8
BLACK
6
CONTINUOUS
10
202.7447629999999776
20
-27.0196129999999997
11
202.5371649999999875
21
-27.1305429999999994
0
LINE
8
BLACK
6
CONTINUOUS
10
202.5371649999999875
20
-27.1305429999999994
11
202.318727999999993
21
-27.2182189999999977
0
LINE
8
BLACK
6
CONTINUOUS
10
202.318727999999993
20
-27.2182189999999977
11
202.0920449999999846
21
-27.2815979999999989
0
LINE
8
BLACK
6
CONTINUOUS
10
202.0920449999999846
20
-27.2815979999999989
11
201.8598099999999818
21
-27.3199289999999984
0
LINE
8
BLACK
6
CONTINUOUS
10
201.8598099999999818
20
-27.3199289999999984
11
201.6247970000000009
21
-27.3327549999999988
0
LINE
8
BLACK
6
CONTINUOUS
10
201.6247970000000009
20
-27.3327549999999988
11
201.6247839999999769
21
-27.3327579999999983
0
LINE
8
BLACK
6
CONTINUOUS
10
201.6247839999999769
20
-27.3327579999999983
11
201.6247839999999769
21
-27.3327600000000004
0
LINE
8
BLACK
6
CONTINUOUS
10
201.6247839999999769
20
-27.3327600000000004
11
201.624779999999987
21
-27.3327579999999983
0
LINE
8
BLACK
6
CONTINUOUS
10
201.624779999999987
20
-27.3327579999999983
11
201.6247740000000022
21
-27.3327600000000004
0
LINE
8
BLACK
6
CONTINUOUS
10
201.6247740000000022
20
-27.3327600000000004
11
184.5867789999999786
21
-27.3327600000000004
0
LINE
8
BLACK
6
CONTINUOUS
10
184.5867789999999786
20
-27.3327600000000004
11
184.5867789999999786
21
-27.3327719999999985
0
LINE
8
BLACK
6
CONTINUOUS
10
184.5867789999999786
20
-27.3327719999999985
11
184.4447169999999971
21
-27.3327729999999995
0
LINE
8
BLACK
6
CONTINUOUS
10
184.4447169999999971
20
-27.3327729999999995
11
184.1623769999999922
21
-27.3645859999999992
0
LINE
8
BLACK
6
CONTINUOUS
10
184.1623769999999922
20
-27.3645859999999992
11
183.885374999999982
21
-27.4278109999999984
0
LINE
8
BLACK
6
CONTINUOUS
10
183.885374999999982
20
-27.4278109999999984
11
183.6171939999999836
21
-27.5216519999999996
0
LINE
8
BLACK
6
CONTINUOUS
10
183.6171939999999836
20
-27.5216519999999996
11
183.361204999999984
21
-27.6449280000000002
0
LINE
8
BLACK
6
CONTINUOUS
10
183.361204999999984
20
-27.6449280000000002
11
183.1206279999999822
21
-27.796090999999997
0
LINE
8
BLACK
6
CONTINUOUS
10
183.1206279999999822
20
-27.796090999999997
11
182.8984879999999862
21
-27.9732389999999995
0
LINE
8
BLACK
6
CONTINUOUS
10
182.8984879999999862
20
-27.9732389999999995
11
182.7980330000000038
21
-28.0736899999999991
0
LINE
8
BLACK
6
CONTINUOUS
10
182.7980330000000038
20
-28.0736899999999991
11
182.7980340000000012
21
-28.0736899999999991
0
LINE
8
BLACK
6
CONTINUOUS
10
182.7980340000000012
20
-28.0736899999999991
11
180.4654409999999984
21
-30.4062809999999999
0
LINE
8
BLACK
6
CONTINUOUS
10
180.4654409999999984
20
-30.4062809999999999
11
180.465440000000001
21
-30.4062839999999994
0
LINE
8
BLACK
6
CONTINUOUS
10
180.465440000000001
20
-30.4062839999999994
11
180.2455539999999985
21
-30.6027819999999977
0
LINE
8
BLACK
6
CONTINUOUS
10
180.2455539999999985
20
-30.6027819999999977
11
180.0050489999999854
21
-30.7734249999999996
0
LINE
8
BLACK
6
CONTINUOUS
10
180.0050489999999854
20
-30.7734249999999996
11
179.7469509999999957
21
-30.9160669999999982
0
LINE
8
BLACK
6
CONTINUOUS
10
179.7469509999999957
20
-30.9160669999999982
11
179.474505999999991
21
-31.0289149999999978
0
LINE
8
BLACK
6
CONTINUOUS
10
179.474505999999991
20
-31.0289149999999978
11
179.1911379999999951
21
-31.1105489999999989
0
LINE
8
BLACK
6
CONTINUOUS
10
179.1911379999999951
20
-31.1105489999999989
11
178.9004119999999887
21
-31.1599429999999984
0
LINE
8
BLACK
6
CONTINUOUS
10
178.9004119999999887
20
-31.1599429999999984
11
178.6059839999999781
21
-31.1764759999999974
0
LINE
8
BLACK
6
CONTINUOUS
10
178.6059839999999781
20
-31.1764759999999974
11
178.6059839999999781
21
-31.1765030000000003
0
LINE
8
BLACK
6
CONTINUOUS
10
178.6059839999999781
20
-31.1765030000000003
11
178.5765940000000001
21
-31.1669539999999969
0
LINE
8
BLACK
6
CONTINUOUS
10
178.5765940000000001
20
-31.1669539999999969
11
178.5653679999999781
21
-31.1515019999999971
0
LINE
8
BLACK
6
CONTINUOUS
10
178.5653679999999781
20
-31.1515019999999971
11
147.6903480000000002
21
-31.1514999999999986
0
LINE
8
BLACK
6
CONTINUOUS
10
147.6903480000000002
20
-31.1514999999999986
11
147.6791259999999966
21
-31.1669489999999989
0
LINE
8
BLACK
6
CONTINUOUS
10
147.6791259999999966
20
-31.1669489999999989
11
147.6497369999999876
21
-31.1764999999999972
0
LINE
8
BLACK
6
CONTINUOUS
10
147.6497369999999876
20
-31.1764999999999972
11
147.5061379999999929
21
-31.1603279999999998
0
LINE
8
BLACK
6
CONTINUOUS
10
147.5061379999999929
20
-31.1603279999999998
11
147.3697389999999814
21
-31.112606999999997
0
LINE
8
BLACK
6
CONTINUOUS
10
147.3697389999999814
20
-31.112606999999997
11
147.2473779999999977
21
-31.0357289999999999
0
LINE
8
BLACK
6
CONTINUOUS
10
147.2473779999999977
20
-31.0357289999999999
11
147.1451940000000036
21
-30.9335500000000003
0
LINE
8
BLACK
6
CONTINUOUS
10
147.1451940000000036
20
-30.9335500000000003
11
147.0683089999999993
21
-30.8111949999999979
0
LINE
8
BLACK
6
CONTINUOUS
10
147.0683089999999993
20
-30.8111949999999979
11
147.0205799999999954
21
-30.6747979999999991
0
LINE
8
BLACK
6
CONTINUOUS
10
147.0205799999999954
20
-30.6747979999999991
11
147.004400000000004
21
-30.5311999999999983
0
LINE
8
BLACK
6
CONTINUOUS
10
147.004400000000004
20
-30.5311999999999983
11
147.0205799999999954
21
-30.3876019999999976
0
LINE
8
BLACK
6
CONTINUOUS
10
147.0205799999999954
20
-30.3876019999999976
11
147.0683089999999993
21
-30.2512049999999988
0
LINE
8
BLACK
6
CONTINUOUS
10
147.0683089999999993
20
-30.2512049999999988
11
147.1451940000000036
21
-30.1288499999999999
0
LINE
8
BLACK
6
CONTINUOUS
10
147.1451940000000036
20
-30.1288499999999999
11
147.2473779999999977
21
-30.0266710000000003
0
LINE
8
BLACK
6
CONTINUOUS
10
147.2473779999999977
20
-30.0266710000000003
11
147.3697389999999814
21
-29.9497929999999997
0
LINE
8
BLACK
6
CONTINUOUS
10
147.3697389999999814
20
-29.9497929999999997
11
147.5061379999999929
21
-29.9020719999999969
0
LINE
8
BLACK
6
CONTINUOUS
10
147.5061379999999929
20
-29.9020719999999969
11
147.6494749999999954
21
-29.8859289999999973
0
LINE
8
BLACK
6
CONTINUOUS
10
147.6494749999999954
20
-29.8859289999999973
11
147.6497339999999951
21
-29.8858779999999982
0
LINE
8
BLACK
6
CONTINUOUS
10
147.6497339999999951
20
-29.8858779999999982
11
167.4935319999999876
21
-29.8858719999999991
0
LINE
8
BLACK
6
CONTINUOUS
10
167.4935319999999876
20
-29.8858719999999991
11
167.4935329999999851
21
-29.8858719999999991
0
LINE
8
BLACK
6
CONTINUOUS
10
167.4935329999999851
20
-29.8858719999999991
11
167.4935329999999851
21
-29.8858099999999993
0
LINE
8
BLACK
6
CONTINUOUS
10
167.4935329999999851
20
-29.8858099999999993
11
167.6413809999999955
21
-29.8857329999999983
0
LINE
8
BLACK
6
CONTINUOUS
10
167.6413809999999955
20
-29.8857329999999983
11
167.9347070000000031
21
-29.8483710000000002
0
LINE
8
BLACK
6
CONTINUOUS
10
167.9347070000000031
20
-29.8483710000000002
11
168.2209619999999859
21
-29.7742509999999996
0
LINE
8
BLACK
6
CONTINUOUS
10
168.2209619999999859
20
-29.7742509999999996
11
168.4955599999999833
21
-29.664558999999997
0
LINE
8
BLACK
6
CONTINUOUS
10
168.4955599999999833
20
-29.664558999999997
11
168.754097999999999
21
-29.5210539999999995
0
LINE
8
BLACK
6
CONTINUOUS
10
168.754097999999999
20
-29.5210539999999995
11
168.9924350000000004
21
-29.346035999999998
0
LINE
8
BLACK
6
CONTINUOUS
10
168.9924350000000004
20
-29.346035999999998
11
169.206750999999997
21
-29.1423089999999974
0
LINE
8
BLACK
6
CONTINUOUS
10
169.206750999999997
20
-29.1423089999999974
11
169.3936109999999928
21
-28.913138
0
LINE
8
BLACK
6
CONTINUOUS
10
169.3936109999999928
20
-28.913138
11
169.5500209999999868
21
-28.662196999999999
0
LINE
8
BLACK
6
CONTINUOUS
10
169.5500209999999868
20
-28.662196999999999
11
169.6734749999999963
21
-28.3935049999999976
0
LINE
8
BLACK
6
CONTINUOUS
10
169.6734749999999963
20
-28.3935049999999976
11
169.7619929999999897
21
-28.1113689999999998
0
LINE
8
BLACK
6
CONTINUOUS
10
169.7619929999999897
20
-28.1113689999999998
11
169.8141569999999945
21
-27.8203110000000002
0
LINE
8
BLACK
6
CONTINUOUS
10
169.8141569999999945
20
-27.8203110000000002
11
169.8291309999999896
21
-27.524994999999997
0
LINE
8
BLACK
6
CONTINUOUS
10
169.8291309999999896
20
-27.524994999999997
11
169.8066759999999817
21
-27.2301529999999978
0
LINE
8
BLACK
6
CONTINUOUS
10
169.8066759999999817
20
-27.2301529999999978
11
169.7471510000000023
21
-26.9405109999999972
0
LINE
8
BLACK
6
CONTINUOUS
10
169.7471510000000023
20
-26.9405109999999972
11
169.6515109999999993
21
-26.6607089999999971
0
LINE
8
BLACK
6
CONTINUOUS
10
169.6515109999999993
20
-26.6607089999999971
11
169.5212870000000009
21
-26.3952329999999975
0
LINE
8
BLACK
6
CONTINUOUS
10
169.5212870000000009
20
-26.3952329999999975
11
169.3585659999999962
21
-26.1483360000000005
0
LINE
8
BLACK
6
CONTINUOUS
10
169.3585659999999962
20
-26.1483360000000005
11
169.1659569999999917
21
-25.9239749999999987
0
LINE
8
BLACK
6
CONTINUOUS
10
169.1659569999999917
20
-25.9239749999999987
11
168.9465459999999837
21
-25.7257459999999973
0
LINE
8
BLACK
6
CONTINUOUS
10
168.9465459999999837
20
-25.7257459999999973
11
168.7038499999999885
21
-25.5568249999999999
0
LINE
8
BLACK
6
CONTINUOUS
10
168.7038499999999885
20
-25.5568249999999999
11
168.4417569999999955
21
-25.4199199999999976
0
LINE
8
BLACK
6
CONTINUOUS
10
168.4417569999999955
20
-25.4199199999999976
11
168.1644670000000019
21
-25.3172239999999995
0
LINE
8
BLACK
6
CONTINUOUS
10
168.1644670000000019
20
-25.3172239999999995
11
167.8764249999999834
21
-25.2503819999999983
0
LINE
8
BLACK
6
CONTINUOUS
10
167.8764249999999834
20
-25.2503819999999983
11
167.5822469999999953
21
-25.2204680000000003
0
LINE
8
BLACK
6
CONTINUOUS
10
167.5822469999999953
20
-25.2204680000000003
11
167.2866459999999904
21
-25.2279579999999974
0
LINE
8
BLACK
6
CONTINUOUS
10
167.2866459999999904
20
-25.2279579999999974
11
166.9943600000000004
21
-25.2727349999999973
0
LINE
8
BLACK
6
CONTINUOUS
10
166.9943600000000004
20
-25.2727349999999973
11
166.7100729999999942
21
-25.3540789999999987
0
LINE
8
BLACK
6
CONTINUOUS
10
166.7100729999999942
20
-25.3540789999999987
11
166.4383409999999799
21
-25.4706879999999991
0
LINE
8
BLACK
6
CONTINUOUS
10
166.4383409999999799
20
-25.4706879999999991
11
166.1835179999999923
21
-25.6206919999999982
0
LINE
8
BLACK
6
CONTINUOUS
10
166.1835179999999923
20
-25.6206919999999982
11
165.9496890000000064
21
-25.8016889999999997
0
LINE
8
BLACK
6
CONTINUOUS
10
165.9496890000000064
20
-25.8016889999999997
11
165.8450909999999965
21
-25.9061799999999991
0
LINE
8
BLACK
6
CONTINUOUS
10
165.8450909999999965
20
-25.9061799999999991
11
165.8450909999999965
21
-25.9061789999999981
0
LINE
8
BLACK
6
CONTINUOUS
10
165.8450909999999965
20
-25.9061789999999981
11
165.0185149999999794
21
-26.7327549999999974
0
LINE
8
BLACK
6
CONTINUOUS
10
165.0185149999999794
20
-26.7327549999999974
11
165.0179310000000044
21
-26.7331439999999994
0
LINE
8
BLACK
6
CONTINUOUS
10
165.0179310000000044
20
-26.7331439999999994
11
165.0177280000000053
21
-26.7335239999999992
0
LINE
8
BLACK
6
CONTINUOUS
10
165.0177280000000053
20
-26.7335239999999992
11
164.8390529999999785
21
-26.8867469999999997
0
LINE
8
BLACK
6
CONTINUOUS
10
164.8390529999999785
20
-26.8867469999999997
11
164.6447629999999833
21
-27.0196129999999997
0
LINE
8
BLACK
6
CONTINUOUS
10
164.6447629999999833
20
-27.0196129999999997
11
164.4371649999999931
21
-27.1305429999999994
0
LINE
8
BLACK
6
CONTINUOUS
10
164.4371649999999931
20
-27.1305429999999994
11
164.2187279999999987
21
-27.2182189999999977
0
LINE
8
BLACK
6
CONTINUOUS
10
164.2187279999999987
20
-27.2182189999999977
11
163.9920449999999903
21
-27.2815979999999989
0
LINE
8
BLACK
6
CONTINUOUS
10
163.9920449999999903
20
-27.2815979999999989
11
163.7598099999999874
21
-27.3199289999999984
0
LINE
8
BLACK
6
CONTINUOUS
10
163.7598099999999874
20
-27.3199289999999984
11
163.5247970000000066
21
-27.3327549999999988
0
LINE
8
BLACK
6
CONTINUOUS
10
163.5247970000000066
20
-27.3327549999999988
11
163.5247839999999826
21
-27.3327579999999983
0
LINE
8
BLACK
6
CONTINUOUS
10
163.5247839999999826
20
-27.3327579999999983
11
163.5247839999999826
21
-27.3327600000000004
0
LINE
8
BLACK
6
CONTINUOUS
10
163.5247839999999826
20
-27.3327600000000004
11
163.5247799999999927
21
-27.3327579999999983
0
LINE
8
BLACK
6
CONTINUOUS
10
163.5247799999999927
20
-27.3327579999999983
11
163.5247739999999794
21
-27.3327600000000004
0
LINE
8
BLACK
6
CONTINUOUS
10
163.5247739999999794
20
-27.3327600000000004
11
146.4867789999999843
21
-27.3327600000000004
0
LINE
8
BLACK
6
CONTINUOUS
10
146.4867789999999843
20
-27.3327600000000004
11
146.4867789999999843
21
-27.3327719999999985
0
LINE
8
BLACK
6
CONTINUOUS
10
146.4867789999999843
20
-27.3327719999999985
11
146.3447170000000028
21
-27.3327729999999995
0
LINE
8
BLACK
6
CONTINUOUS
10
146.3447170000000028
20
-27.3327729999999995
11
146.0623769999999979
21
-27.3645859999999992
0
LINE
8
BLACK
6
CONTINUOUS
10
146.0623769999999979
20
-27.3645859999999992
11
145.7853749999999877
21
-27.4278109999999984
0
LINE
8
BLACK
6
CONTINUOUS
10
145.7853749999999877
20
-27.4278109999999984
11
145.5171939999999893
21
-27.5216519999999996
0
LINE
8
BLACK
6
CONTINUOUS
10
145.5171939999999893
20
-27.5216519999999996
11
145.2612049999999897
21
-27.6449280000000002
0
LINE
8
BLACK
6
CONTINUOUS
10
145.2612049999999897
20
-27.6449280000000002
11
145.0206279999999879
21
-27.796090999999997
0
LINE
8
BLACK
6
CONTINUOUS
10
145.0206279999999879
20
-27.796090999999997
11
144.7984879999999919
21
-27.9732389999999995
0
LINE
8
BLACK
6
CONTINUOUS
10
144.7984879999999919
20
-27.9732389999999995
11
144.698032999999981
21
-28.0736899999999991
0
LINE
8
BLACK
6
CONTINUOUS
10
144.698032999999981
20
-28.0736899999999991
11
144.6980340000000069
21
-28.0736899999999991
0
LINE
8
BLACK
6
CONTINUOUS
10
144.6980340000000069
20
-28.0736899999999991
11
142.3654410000000041
21
-30.4062809999999999
0
LINE
8
BLACK
6
CONTINUOUS
10
142.3654410000000041
20
-30.4062809999999999
11
142.3654400000000066
21
-30.4062839999999994
0
LINE
8
BLACK
6
CONTINUOUS
10
142.3654400000000066
20
-30.4062839999999994
11
142.1455540000000042
21
-30.6027819999999977
0
LINE
8
BLACK
6
CONTINUOUS
10
142.1455540000000042
20
-30.6027819999999977
11
141.9050489999999911
21
-30.7734249999999996
0
LINE
8
BLACK
6
CONTINUOUS
10
141.9050489999999911
20
-30.7734249999999996
11
141.6469510000000014
21
-30.9160669999999982
0
LINE
8
BLACK
6
CONTINUOUS
10
141.6469510000000014
20
-30.9160669999999982
11
141.3745059999999967
21
-31.0289149999999978
0
LINE
8
BLACK
6
CONTINUOUS
10
141.3745059999999967
20
-31.0289149999999978
11
141.0911380000000008
21
-31.1105489999999989
0
LINE
8
BLACK
6
CONTINUOUS
10
141.0911380000000008
20
-31.1105489999999989
11
140.8004119999999944
21
-31.1599429999999984
0
LINE
8
BLACK
6
CONTINUOUS
10
140.8004119999999944
20
-31.1599429999999984
11
140.5059839999999838
21
-31.1764759999999974
0
LINE
8
BLACK
6
CONTINUOUS
10
140.5059839999999838
20
-31.1764759999999974
11
140.5059839999999838
21
-31.1765030000000003
0
LINE
8
BLACK
6
CONTINUOUS
10
140.5059839999999838
20
-31.1765030000000003
11
140.4765940000000057
21
-31.1669539999999969
0
LINE
8
BLACK
6
CONTINUOUS
10
140.4765940000000057
20
-31.1669539999999969
11
140.4653679999999838
21
-31.1515019999999971
0
LINE
8
BLACK
6
CONTINUOUS
10
140.4653679999999838
20
-31.1515019999999971
11
97.6840989999999891
21
-31.1514999999999986
0
LINE
8
BLACK
6
CONTINUOUS
10
97.6840989999999891
20
-31.1514999999999986
11
97.6728729999999956
21
-31.1669509999999974
0
LINE
8
BLACK
6
CONTINUOUS
10
97.6728729999999956
20
-31.1669509999999974
11
97.6434840000000008
21
-31.1764999999999972
0
LINE
8
BLACK
6
CONTINUOUS
10
97.6434840000000008
20
-31.1764999999999972
11
97.3490539999999953
21
-31.1599639999999987
0
LINE
8
BLACK
6
CONTINUOUS
10
97.3490539999999953
20
-31.1599639999999987
11
97.0583269999999914
21
-31.1105659999999986
0
LINE
8
BLACK
6
CONTINUOUS
10
97.0583269999999914
20
-31.1105659999999986
11
96.7749589999999955
21
-31.028927999999997
0
LINE
8
BLACK
6
CONTINUOUS
10
96.7749589999999955
20
-31.028927999999997
11
96.5025129999999933
21
-30.9160760000000003
0
LINE
8
BLACK
6
CONTINUOUS
10
96.5025129999999933
20
-30.9160760000000003
11
96.2444149999999894
21
-30.7734299999999976
0
LINE
8
BLACK
6
CONTINUOUS
10
96.2444149999999894
20
-30.7734299999999976
11
96.0039110000000022
21
-30.6027839999999998
0
LINE
8
BLACK
6
CONTINUOUS
10
96.0039110000000022
20
-30.6027839999999998
11
95.7840249999999997
21
-30.4062829999999984
0
LINE
8
BLACK
6
CONTINUOUS
10
95.7840249999999997
20
-30.4062829999999984
11
95.7840269999999947
21
-30.4062799999999989
0
LINE
8
BLACK
6
CONTINUOUS
10
95.7840269999999947
20
-30.4062799999999989
11
93.4514369999999985
21
-28.0736889999999981
0
LINE
8
BLACK
6
CONTINUOUS
10
93.4514369999999985
20
-28.0736889999999981
11
93.4514349999999894
21
-28.0736879999999971
0
LINE
8
BLACK
6
CONTINUOUS
10
93.4514349999999894
20
-28.0736879999999971
11
93.4514349999999894
21
-28.0736869999999996
0
LINE
8
BLACK
6
CONTINUOUS
10
93.4514349999999894
20
-28.0736869999999996
11
93.4513359999999977
21
-28.0735390000000002
0
LINE
8
BLACK
6
CONTINUOUS
10
93.4513359999999977
20
-28.0735390000000002
11
93.351003999999989
21
-27.9732109999999992
0
LINE
8
BLACK
6
CONTINUOUS
10
93.351003999999989
20
-27.9732109999999992
11
93.1288599999999889
21
-27.7960639999999977
0
LINE
8
BLACK
6
CONTINUOUS
10
93.1288599999999889
20
-27.7960639999999977
11
92.8882789999999972
21
-27.6449019999999983
0
LINE
8
BLACK
6
CONTINUOUS
10
92.8882789999999972
20
-27.6449019999999983
11
92.6322859999999935
21
-27.5216269999999987
0
LINE
8
BLACK
6
CONTINUOUS
10
92.6322859999999935
20
-27.5216269999999987
11
92.3641009999999909
21
-27.4277889999999971
0
LINE
8
BLACK
6
CONTINUOUS
10
92.3641009999999909
20
-27.4277889999999971
11
92.0870960000000025
21
-27.3645669999999974
0
LINE
8
BLACK
6
CONTINUOUS
10
92.0870960000000025
20
-27.3645669999999974
11
91.8047529999999909
21
-27.3327559999999998
0
LINE
8
BLACK
6
CONTINUOUS
10
91.8047529999999909
20
-27.3327559999999998
11
91.6626890000000003
21
-27.3327569999999973
0
LINE
8
BLACK
6
CONTINUOUS
10
91.6626890000000003
20
-27.3327569999999973
11
74.624693999999991
21
-27.3327569999999973
0
LINE
8
BLACK
6
CONTINUOUS
10
74.624693999999991
20
-27.3327569999999973
11
74.6246869999999944
21
-27.3327549999999988
0
LINE
8
BLACK
6
CONTINUOUS
10
74.6246869999999944
20
-27.3327549999999988
11
74.624684000000002
21
-27.3327569999999973
0
LINE
8
BLACK
6
CONTINUOUS
10
74.624684000000002
20
-27.3327569999999973
11
74.3896579999999972
21
-27.3199269999999999
0
LINE
8
BLACK
6
CONTINUOUS
10
74.3896579999999972
20
-27.3199269999999999
11
74.1574250000000035
21
-27.2815929999999973
0
LINE
8
BLACK
6
CONTINUOUS
10
74.1574250000000035
20
-27.2815929999999973
11
73.93074399999999
21
-27.2182099999999991
0
LINE
8
BLACK
6
CONTINUOUS
10
73.93074399999999
20
-27.2182099999999991
11
73.7123079999999931
21
-27.1305319999999988
0
LINE
8
BLACK
6
CONTINUOUS
10
73.7123079999999931
20
-27.1305319999999988
11
73.5047129999999953
21
-27.0195989999999995
0
LINE
8
BLACK
6
CONTINUOUS
10
73.5047129999999953
20
-27.0195989999999995
11
73.3104249999999951
21
-26.8867309999999975
0
LINE
8
BLACK
6
CONTINUOUS
10
73.3104249999999951
20
-26.8867309999999975
11
73.1317530000000033
21
-26.7335059999999984
0
LINE
8
BLACK
6
CONTINUOUS
10
73.1317530000000033
20
-26.7335059999999984
11
73.1317399999999935
21
-26.7335199999999986
0
LINE
8
BLACK
6
CONTINUOUS
10
73.1317399999999935
20
-26.7335199999999986
11
73.131535999999997
21
-26.7331419999999973
0
LINE
8
BLACK
6
CONTINUOUS
10
73.131535999999997
20
-26.7331419999999973
11
73.130952999999991
21
-26.7327519999999978
0
LINE
8
BLACK
6
CONTINUOUS
10
73.130952999999991
20
-26.7327519999999978
11
72.3043770000000023
21
-25.9061759999999985
0
LINE
8
BLACK
6
CONTINUOUS
10
72.3043770000000023
20
-25.9061759999999985
11
72.3043729999999982
21
-25.9061789999999981
0
LINE
8
BLACK
6
CONTINUOUS
10
72.3043729999999982
20
-25.9061789999999981
11
72.1997739999999908
21
-25.8016860000000001
0
LINE
8
BLACK
6
CONTINUOUS
10
72.1997739999999908
20
-25.8016860000000001
11
71.9659400000000034
21
-25.6206849999999982
0
LINE
8
BLACK
6
CONTINUOUS
10
71.9659400000000034
20
-25.6206849999999982
11
71.711112
21
-25.4706759999999974
0
LINE
8
BLACK
6
CONTINUOUS
10
71.711112
20
-25.4706759999999974
11
71.4393749999999983
21
-25.3540639999999975
0
LINE
8
BLACK
6
CONTINUOUS
10
71.4393749999999983
20
-25.3540639999999975
11
71.1550819999999931
21
-25.2727170000000001
0
LINE
8
BLACK
6
CONTINUOUS
10
71.1550819999999931
20
-25.2727170000000001
11
70.8627899999999897
21
-25.2279400000000003
0
LINE
8
BLACK
6
CONTINUOUS
10
70.8627899999999897
20
-25.2279400000000003
11
70.5671820000000025
21
-25.2204489999999986
0
LINE
8
BLACK
6
CONTINUOUS
10
70.5671820000000025
20
-25.2204489999999986
11
70.2729970000000037
21
-25.2503639999999976
  0
ENDSEC
  0
EOF
